{
.appVersion = "85";
copyright = "Copyright (c) 2018 by Seslavinskaya Anna. All rights reserved.";
customParameters = (
{
name = vendorID;
value = CYRE;
},
{
name = panose;
value = (
0,
0,
5,
0,
0,
0,
0,
0,
0,
0
);
},
{
name = unicodeRanges;
value = (
0,
1,
2,
7,
9,
29,
33
);
},
{
name = license;
value = "SIL OFL 1.1";
}
);
date = "2017-10-30 11:33:25 +0000";
designer = "Seslavinskaya Anna";
designerURL = "https://www.behance.net/seslavinskaya";
familyName = "Sangha Kali";
featurePrefixes = (
{
automatic = 1;
code = "languagesystem DFLT dflt;\012languagesystem latn dflt;\012languagesystem latn CAT;\012languagesystem latn ROM;\012languagesystem latn MOL;\012languagesystem latn KAZ;\012languagesystem latn TAT;\012languagesystem latn TRK;\012languagesystem latn CRT;\012languagesystem latn AZE;\012";
name = Languagesystems;
}
);
features = (
{
automatic = 1;
code = "feature locl;\012feature frac;\012feature ordn;\012";
name = aalt;
},
{
automatic = 1;
code = "script latn;\012language CAT;\012sub l periodcentered' l by periodcentered.loclCAT;\012sub L periodcentered' L by periodcentered.loclCAT;\012language ROM;\012sub Scedilla by Scommaaccent;\012sub scedilla by scommaaccent;\012sub Tcedilla by Tcommaaccent;\012sub tcedilla by tcommaaccent;\012language MOL;\012sub Scedilla by Scommaaccent;\012sub scedilla by scommaaccent;\012sub Tcedilla by Tcommaaccent;\012sub tcedilla by tcommaaccent;\012language KAZ;\012sub i by idotaccent;\012language TAT;\012sub i by idotaccent;\012language TRK;\012sub i by idotaccent;\012language CRT;\012sub i by idotaccent;\012language AZE;\012sub i by idotaccent;\012";
name = locl;
},
{
automatic = 1;
code = "sub one slash eight by oneeighth;\012sub one slash four by onequarter;\012sub three slash eight by threeeighths;\012sub one slash two by onehalf;\012sub five slash eight by fiveeighths;\012sub three slash four by threequarters;\012sub seven slash eight by seveneighths;\012";
name = frac;
},
{
automatic = 1;

glyphs = (
{
glyphname = A;
lastChange = "2018-09-26 05:20:38 +0000";
layers = (
{
layerId = "6992DDD3-6ECA-4BF7-B654-AC36925D8FF8";
paths = (
{
closed = 1;
nodes = (
"672 844 OFFCURVE",
"521 896 OFFCURVE",
"346 896 CURVE",
"365 925 OFFCURVE",
"387 951 OFFCURVE",
"412 975 CURVE",
"437 998 OFFCURVE",
"464 1019 OFFCURVE",
"495 1036 CURVE",
"525 1053 OFFCURVE",
"558 1066 OFFCURVE",
"593 1075 CURVE",
"628 1084 OFFCURVE",
"664 1089 OFFCURVE",
"702 1089 CURVE",
"798 1089 LINE",
"798 741 LINE"
);
},
{
closed = 1;
nodes = (
"634 1326 OFFCURVE",
"576 1318 OFFCURVE",
"521 1303 CURVE",
"465 1288 OFFCURVE",
"412 1266 OFFCURVE",
"363 1239 CURVE",
"314 1212 OFFCURVE",
"269 1179 OFFCURVE",
"228 1141 CURVE",
"187 1102 OFFCURVE",
"152 1060 OFFCURVE",
"123 1013 CURVE",
"94 966 OFFCURVE",
"71 915 OFFCURVE",
"55 861 CURVE",
"38 806 OFFCURVE",
"30 749 OFFCURVE",
"30 690 CURVE",
"30 0 LINE",
"271 0 LINE",
"271 649 LINE",
"285 653 OFFCURVE",
"301 656 OFFCURVE",
"319 659 CURVE",
"336 661 OFFCURVE",
"354 662 OFFCURVE",
"371 662 CURVE",
"428 662 OFFCURVE",
"483 651 OFFCURVE",
"535 629 CURVE",
"586 606 OFFCURVE",
"632 576 OFFCURVE",
"671 537 CURVE",
"710 498 OFFCURVE",
"741 453 OFFCURVE",
"764 401 CURVE",
"787 349 OFFCURVE",
"798 294 OFFCURVE",
"798 235 CURVE",
"798 0 LINE",
"1043 0 LINE",
"1043 1089 LINE",
"1191 1089 LINE",
"1191 1327 LINE",
"694 1327 LINE"
);
}
);
width = 1221;
}
);
leftKerningGroup = A;
rightKerningGroup = A;
unicode = 0041;
},
{
glyphname = AE;
lastChange = "2018-09-25 23:41:15 +0000";
layers = (
{
layerId = "6992DDD3-6ECA-4BF7-B654-AC36925D8FF8";
paths = (
{
closed = 1;
nodes = (
"1466 240 LINE",
"1043 240 LINE",
"1044 298 OFFCURVE",
"1055 353 OFFCURVE",
"1078 405 CURVE",
"1101 457 OFFCURVE",
"1131 502 OFFCURVE",
"1170 541 CURVE",
"1209 580 OFFCURVE",
"1254 610 OFFCURVE",
"1305 633 CURVE",
"1356 656 OFFCURVE",
"1411 667 OFFCURVE",
"1470 667 CURVE",
"1470 909 LINE",
"1387 909 OFFCURVE",
"1310 895 OFFCURVE",
"1237 868 CURVE",
"1166 842 OFFCURVE",
"1101 805 OFFCURVE",
"1043 758 CURVE",
"1043 1088 LINE",
"1470 1088 LINE",
"1470 1326 LINE",
"694 1327 LINE",
"634 1326 OFFCURVE",
"576 1318 OFFCURVE",
"521 1303 CURVE",
"465 1288 OFFCURVE",
"412 1266 OFFCURVE",
"363 1239 CURVE",
"314 1212 OFFCURVE",
"269 1179 OFFCURVE",
"228 1141 CURVE",
"187 1102 OFFCURVE",
"152 1060 OFFCURVE",
"123 1013 CURVE",
"94 966 OFFCURVE",
"71 915 OFFCURVE",
"55 861 CURVE",
"38 806 OFFCURVE",
"30 749 OFFCURVE",
"30 690 CURVE",
"30 0 LINE",
"271 0 LINE",
"271 649 LINE",
"285 653 OFFCURVE",
"301 656 OFFCURVE",
"319 659 CURVE",
"336 661 OFFCURVE",
"354 662 OFFCURVE",
"371 662 CURVE",
"428 662 OFFCURVE",
"483 651 OFFCURVE",
"535 629 CURVE",
"586 606 OFFCURVE",
"632 576 OFFCURVE",
"671 537 CURVE",
"710 498 OFFCURVE",
"741 453 OFFCURVE",
"764 401 CURVE",
"787 349 OFFCURVE",
"798 294 OFFCURVE",
"798 235 CURVE",
"798 0 LINE",
"1704 0 LINE",
"1704 454 LINE",
"1466 454 LINE"
);
},
{
closed = 1;
nodes = (
"365 925 OFFCURVE",
"387 951 OFFCURVE",
"412 975 CURVE",
"437 998 OFFCURVE",
"464 1019 OFFCURVE",
"495 1036 CURVE",
"525 1053 OFFCURVE",
"558 1066 OFFCURVE",
"593 1075 CURVE",
"628 1084 OFFCURVE",
"664 1089 OFFCURVE",
"702 1089 CURVE",
"798 1089 LINE",
"798 741 LINE",
"672 844 OFFCURVE",
"521 896 OFFCURVE",
"346 896 CURVE"
);
}
);
width = 1734;
}
);
leftKerningGroup = A;
rightKerningGroup = E;
unicode = 00C6;
},
{
glyphname = B;
lastChange = "2018-09-25 23:41:15 +0000";
layers = (
{
layerId = "6992DDD3-6ECA-4BF7-B654-AC36925D8FF8";
paths = (
{
closed = 1;
nodes = (
"1178 297 OFFCURVE",
"1169 355 OFFCURVE",
"1153 412 CURVE",
"1138 468 OFFCURVE",
"1116 521 OFFCURVE",
"1087 570 CURVE",
"1058 619 OFFCURVE",
"1024 663 OFFCURVE",
"984 704 CURVE",
"944 744 OFFCURVE",
"900 779 OFFCURVE",
"851 808 CURVE",
"847 810 OFFCURVE",
"844 812 OFFCURVE",
"840 814 CURVE",
"856 828 OFFCURVE",
"872 843 OFFCURVE",
"888 858 CURVE",
"928 899 OFFCURVE",
"962 943 OFFCURVE",
"991 992 CURVE",
"1020 1041 OFFCURVE",
"1042 1094 OFFCURVE",
"1057 1150 CURVE",
"1073 1207 OFFCURVE",
"1081 1265 OFFCURVE",
"1081 1326 CURVE",
"1082 1326 LINE",
"30 1326 LINE",
"30 1087 LINE",
"177 1087 LINE",
"177 900 LINE",
"104 900 LINE",
"104 661 LINE",
"177 661 LINE",
"177 0 LINE",
"178 0 LINE",
"1177 0 LINE",
"1178 0 LINE",
"1178 236 LINE"
);
},
{
closed = 1;
nodes = (
"755 1062 OFFCURVE",
"735 1039 OFFCURVE",
"713 1018 CURVE",
"674 982 OFFCURVE",
"629 953 OFFCURVE",
"578 932 CURVE",
"533 914 OFFCURVE",
"484 903 OFFCURVE",
"434 901 CURVE",
"417 901 LINE",
"417 1087 LINE",
"772 1087 LINE"
);
},
{
closed = 1;
nodes = (
"417 662 LINE",
"439 662 LINE",
"511 662 LINE",
"568 662 OFFCURVE",
"623 651 OFFCURVE",
"674 630 CURVE",
"725 609 OFFCURVE",
"770 580 OFFCURVE",
"809 544 CURVE",
"848 507 OFFCURVE",
"879 465 OFFCURVE",
"902 416 CURVE",
"925 367 OFFCURVE",
"937 314 OFFCURVE",
"937 258 CURVE",
"937 239 LINE",
"417 239 LINE"
);
}
);
width = 1208;
}
);
leftKerningGroup = B;
rightKerningGroup = B;
unicode = 0042;
},
{
glyphname = C;
lastChange = "2018-09-25 23:41:15 +0000";
layers = (
{
layerId = "6992DDD3-6ECA-4BF7-B654-AC36925D8FF8";
paths = (
{
closed = 1;
nodes = (
"1132 363 OFFCURVE",
"1112 339 OFFCURVE",
"1089 316 CURVE",
"999 226 OFFCURVE",
"878 176 OFFCURVE",
"750 176 CURVE",
"622 176 OFFCURVE",
"501 226 OFFCURVE",
"411 316 CURVE",
"320 407 OFFCURVE",
"270 527 OFFCURVE",
"270 656 CURVE",
"270 784 OFFCURVE",
"320 904 OFFCURVE",
"411 995 CURVE",
"501 1086 OFFCURVE",
"622 1136 OFFCURVE",
"750 1136 CURVE",
"808 1136 OFFCURVE",
"865 1126 OFFCURVE",
"918 1106 CURVE",
"918 890 LINE",
"1158 890 LINE",
"1158 1249 LINE",
"1042 1329 OFFCURVE",
"902 1376 OFFCURVE",
"750 1376 CURVE",
"352 1376 OFFCURVE",
"30 1053 OFFCURVE",
"30 656 CURVE",
"30 258 OFFCURVE",
"352 -64 OFFCURVE",
"750 -64 CURVE",
"931 -64 OFFCURVE",
"1096 2 OFFCURVE",
"1222 112 CURVE",
"1150 390 LINE"
);
}
);
width = 1252;
}
);
leftKerningGroup = O;
rightKerningGroup = C;
unicode = 0043;
},
{
glyphname = D;
lastChange = "2018-09-25 23:41:15 +0000";
layers = (
{
layerId = "6992DDD3-6ECA-4BF7-B654-AC36925D8FF8";
paths = (
{
closed = 1;
nodes = (
"417 239 LINE",
"417 1087 LINE",
"628 1087 LINE",
"685 1087 OFFCURVE",
"740 1076 OFFCURVE",
"791 1054 CURVE",
"842 1031 OFFCURVE",
"887 1001 OFFCURVE",
"926 963 CURVE",
"964 924 OFFCURVE",
"994 879 OFFCURVE",
"1017 828 CURVE",
"1040 777 OFFCURVE",
"1051 722 OFFCURVE",
"1051 663 CURVE",
"1051 606 OFFCURVE",
"1040 553 OFFCURVE",
"1018 502 CURVE",
"996 450 OFFCURVE",
"965 403 OFFCURVE",
"925 362 CURVE",
"885 322 OFFCURVE",
"839 292 OFFCURVE",
"788 271 CURVE",
"737 250 OFFCURVE",
"682 239 OFFCURVE",
"625 239 CURVE"
);
},
{
closed = 1;
nodes = (
"30 1326 LINE",
"30 1087 LINE",
"178 1087 LINE",
"178 0 LINE",
"628 0 LINE",
"689 0 OFFCURVE",
"747 8 OFFCURVE",
"804 24 CURVE",
"861 40 OFFCURVE",
"914 63 OFFCURVE",
"963 92 CURVE",
"1012 121 OFFCURVE",
"1056 155 OFFCURVE",
"1097 196 CURVE",
"1137 236 OFFCURVE",
"1171 281 OFFCURVE",
"1200 330 CURVE",
"1229 379 OFFCURVE",
"1251 431 OFFCURVE",
"1267 488 CURVE",
"1282 544 OFFCURVE",
"1290 602 OFFCURVE",
"1290 663 CURVE",
"1290 724 OFFCURVE",
"1282 782 OFFCURVE",
"1267 839 CURVE",
"1251 896 OFFCURVE",
"1229 949 OFFCURVE",
"1200 998 CURVE",
"1171 1047 OFFCURVE",
"1137 1091 OFFCURVE",
"1097 1132 CURVE",
"1056 1172 OFFCURVE",
"1012 1207 OFFCURVE",
"963 1236 CURVE",
"914 1265 OFFCURVE",
"861 1287 OFFCURVE",
"804 1303 CURVE",
"747 1318 OFFCURVE",
"689 1326 OFFCURVE",
"628 1326 CURVE"
);
}
);
width = 1320;
}
);
leftKerningGroup = B;
rightKerningGroup = O;
unicode = 0044;
},
{
glyphname = Eth;
lastChange = "2018-09-25 23:41:15 +0000";
layers = (
{
layerId = "6992DDD3-6ECA-4BF7-B654-AC36925D8FF8";
paths = (
{
closed = 1;
nodes = (
"1251 896 OFFCURVE",
"1229 949 OFFCURVE",
"1200 998 CURVE",
"1171 1047 OFFCURVE",
"1137 1091 OFFCURVE",
"1097 1132 CURVE",
"1056 1172 OFFCURVE",
"1012 1207 OFFCURVE",
"963 1236 CURVE",
"914 1265 OFFCURVE",
"861 1287 OFFCURVE",
"804 1303 CURVE",
"747 1318 OFFCURVE",
"689 1326 OFFCURVE",
"628 1326 CURVE",
"30 1326 LINE",
"30 1087 LINE",
"178 1087 LINE",
"178 906 LINE",
"104 906 LINE",
"104 665 LINE",
"178 665 LINE",
"178 0 LINE",
"628 0 LINE",
"689 0 OFFCURVE",
"747 8 OFFCURVE",
"804 24 CURVE",
"861 40 OFFCURVE",
"914 63 OFFCURVE",
"963 92 CURVE",
"1012 121 OFFCURVE",
"1056 155 OFFCURVE",
"1097 196 CURVE",
"1137 236 OFFCURVE",
"1171 281 OFFCURVE",
"1200 330 CURVE",
"1229 379 OFFCURVE",
"1251 431 OFFCURVE",
"1267 488 CURVE",
"1282 544 OFFCURVE",
"1290 602 OFFCURVE",
"1290 663 CURVE",
"1290 724 OFFCURVE",
"1282 782 OFFCURVE",
"1267 839 CURVE"
);
},
{
closed = 1;
nodes = (
"996 450 OFFCURVE",
"965 403 OFFCURVE",
"925 362 CURVE",
"885 322 OFFCURVE",
"839 292 OFFCURVE",
"788 271 CURVE",
"737 250 OFFCURVE",
"682 239 OFFCURVE",
"625 239 CURVE",
"417 239 LINE",
"417 665 LINE",
"504 665 LINE",
"504 906 LINE",
"417 906 LINE",
"417 1087 LINE",
"628 1087 LINE",
"685 1087 OFFCURVE",
"740 1076 OFFCURVE",
"791 1054 CURVE",
"842 1031 OFFCURVE",
"887 1001 OFFCURVE",
"926 963 CURVE",
"964 924 OFFCURVE",
"994 879 OFFCURVE",
"1017 828 CURVE",
"1040 777 OFFCURVE",
"1051 722 OFFCURVE",
"1051 663 CURVE",
"1051 606 OFFCURVE",
"1040 553 OFFCURVE",
"1018 502 CURVE"
);
}
);
width = 1320;
}
);
leftKerningGroup = B;
rightKerningGroup = O;
unicode = 00D0;
},
{
glyphname = E;
lastChange = "2018-09-25 23:41:15 +0000";
layers = (
{
layerId = "6992DDD3-6ECA-4BF7-B654-AC36925D8FF8";
paths = (
{
closed = 1;
nodes = (
"178 1088 LINE",
"178 240 LINE",
"104 240 LINE",
"104 0 LINE",
"1082 0 LINE",
"1082 454 LINE",
"844 454 LINE",
"844 240 LINE",
"421 240 LINE",
"422 298 OFFCURVE",
"433 353 OFFCURVE",
"456 405 CURVE",
"479 457 OFFCURVE",
"509 502 OFFCURVE",
"548 541 CURVE",
"587 580 OFFCURVE",
"632 610 OFFCURVE",
"683 633 CURVE",
"734 656 OFFCURVE",
"789 667 OFFCURVE",
"848 667 CURVE",
"848 909 LINE",
"765 909 OFFCURVE",
"688 895 OFFCURVE",
"615 868 CURVE",
"542 841 OFFCURVE",
"476 803 OFFCURVE",
"417 755 CURVE",
"417 1088 LINE",
"848 1088 LINE",
"848 1326 LINE",
"30 1326 LINE",
"30 1088 LINE"
);
}
);
width = 1112;
}
);
leftKerningGroup = E;
rightKerningGroup = E;
unicode = 0045;
},
{
glyphname = Emacron;
lastChange = "2018-09-25 23:41:15 +0000";
layers = (
{
components = (
{
name = E;
transform = "{1, 0, 0, 1, 10, 0}";
}
);
layerId = "6992DDD3-6ECA-4BF7-B654-AC36925D8FF8";
paths = (
{
closed = 1;
nodes = (
"848 1426 LINE",
"848 1664 LINE",
"30 1664 LINE",
"30 1426 LINE"
);
}
);
width = 1122;
}
);
leftKerningGroup = E;
rightKerningGroup = E;
unicode = 0112;
},
{
glyphname = F;
lastChange = "2018-09-25 23:41:15 +0000";
layers = (
{
layerId = "6992DDD3-6ECA-4BF7-B654-AC36925D8FF8";
paths = (
{
closed = 1;
nodes = (
"30 1087 LINE",
"178 1087 LINE",
"178 0 LINE",
"420 0 LINE",
"420 235 LINE",
"421 293 OFFCURVE",
"432 348 OFFCURVE",
"455 400 CURVE",
"478 451 OFFCURVE",
"508 497 OFFCURVE",
"547 536 CURVE",
"586 575 OFFCURVE",
"631 606 OFFCURVE",
"682 629 CURVE",
"733 652 OFFCURVE",
"788 663 OFFCURVE",
"847 663 CURVE",
"844 903 LINE",
"762 903 OFFCURVE",
"685 889 OFFCURVE",
"613 861 CURVE",
"540 832 OFFCURVE",
"475 794 OFFCURVE",
"417 746 CURVE",
"420 1087 LINE",
"940 1087 LINE",
"939 1086 LINE",
"939 872 LINE",
"1177 872 LINE",
"1177 1326 LINE",
"30 1326 LINE"
);
}
);
width = 1207;
}
);
leftKerningGroup = B;
rightKerningGroup = F;
unicode = 0046;
},
{
glyphname = G;
lastChange = "2018-09-25 23:41:15 +0000";
layers = (
{
layerId = "6992DDD3-6ECA-4BF7-B654-AC36925D8FF8";
paths = (
{
closed = 1;
nodes = (
"808 900 LINE",
"808 662 LINE",
"984 662 LINE",
"984 235 LINE",
"948 215 OFFCURVE",
"911 200 OFFCURVE",
"872 191 CURVE SMOOTH",
"833 182 OFFCURVE",
"793 177 OFFCURVE",
"752 177 CURVE SMOOTH",
"685 177 OFFCURVE",
"622 190 OFFCURVE",
"563 215 CURVE SMOOTH",
"504 240 OFFCURVE",
"454 275 OFFCURVE",
"411 319 CURVE SMOOTH",
"368 362 OFFCURVE",
"334 413 OFFCURVE",
"309 471 CURVE SMOOTH",
"284 528 OFFCURVE",
"272 589 OFFCURVE",
"272 654 CURVE SMOOTH",
"272 719 OFFCURVE",
"285 781 OFFCURVE",
"310 840 CURVE SMOOTH",
"335 899 OFFCURVE",
"369 950 OFFCURVE",
"412 994 CURVE SMOOTH",
"455 1038 OFFCURVE",
"506 1073 OFFCURVE",
"565 1099 CURVE SMOOTH",
"623 1124 OFFCURVE",
"685 1137 OFFCURVE",
"752 1137 CURVE SMOOTH",
"801 1137 OFFCURVE",
"848 1130 OFFCURVE",
"895 1115 CURVE SMOOTH",
"941 1100 OFFCURVE",
"985 1078 OFFCURVE",
"1026 1050 CURVE",
"1160 1247 LINE",
"1101 1287 OFFCURVE",
"1037 1319 OFFCURVE",
"969 1342 CURVE SMOOTH",
"900 1365 OFFCURVE",
"828 1376 OFFCURVE",
"752 1376 CURVE SMOOTH",
"686 1376 OFFCURVE",
"622 1368 OFFCURVE",
"561 1351 CURVE SMOOTH",
"500 1334 OFFCURVE",
"442 1309 OFFCURVE",
"389 1278 CURVE SMOOTH",
"335 1247 OFFCURVE",
"286 1209 OFFCURVE",
"242 1165 CURVE SMOOTH",
"198 1121 OFFCURVE",
"160 1072 OFFCURVE",
"129 1019 CURVE SMOOTH",
"98 966 OFFCURVE",
"73 908 OFFCURVE",
"56 847 CURVE SMOOTH",
"39 785 OFFCURVE",
"30 721 OFFCURVE",
"30 654 CURVE",
"30 588 OFFCURVE",
"39 524 OFFCURVE",
"56 463 CURVE SMOOTH",
"73 402 OFFCURVE",
"98 345 OFFCURVE",
"129 292 CURVE SMOOTH",
"160 239 OFFCURVE",
"198 190 OFFCURVE",
"242 147 CURVE SMOOTH",
"286 103 OFFCURVE",
"335 65 OFFCURVE",
"389 34 CURVE SMOOTH",
"442 3 OFFCURVE",
"500 -22 OFFCURVE",
"561 -39 CURVE SMOOTH",
"622 -56 OFFCURVE",
"686 -64 OFFCURVE",
"752 -64 CURVE SMOOTH",
"842 -64 OFFCURVE",
"927 -49 OFFCURVE",
"1008 -18 CURVE SMOOTH",
"1088 13 OFFCURVE",
"1160 56 OFFCURVE",
"1225 113 CURVE",
"1225 662 LINE",
"1320 662 LINE",
"1321 900 LINE"
);
}
);
width = 1351;
}
);
leftKerningGroup = O;
rightKerningGroup = H;
unicode = 0047;
},
{
glyphname = H;
lastChange = "2018-09-25 23:41:15 +0000";
layers = (
{
layerId = "6992DDD3-6ECA-4BF7-B654-AC36925D8FF8";
paths = (
{
closed = 1;
nodes = (
"1028 898 LINE",
"1028 1327 LINE",
"789 1327 LINE",
"789 898 LINE",
"692 898 LINE",
"611 898 OFFCURVE",
"534 884 OFFCURVE",
"463 857 CURVE",
"391 830 OFFCURVE",
"326 793 OFFCURVE",
"269 746 CURVE",
"269 1327 LINE",
"30 1327 LINE",
"30 0 LINE",
"269 0 LINE",
"269 257 LINE",
"269 313 OFFCURVE",
"285 366 OFFCURVE",
"308 415 CURVE",
"331 464 OFFCURVE",
"362 507 OFFCURVE",
"401 544 CURVE",
"439 580 OFFCURVE",
"483 609 OFFCURVE",
"534 630 CURVE",
"584 651 OFFCURVE",
"638 662 OFFCURVE",
"696 662 CURVE",
"789 662 LINE",
"789 0 LINE",
"1028 0 LINE",
"1028 662 LINE",
"1119 662 LINE",
"1119 898 LINE"
);
}
);
width = 1149;
}
);
leftKerningGroup = M;
rightKerningGroup = H;
unicode = 0048;
},
{
glyphname = Hbar;
lastChange = "2018-09-25 23:41:15 +0000";
layers = (
{
layerId = "6992DDD3-6ECA-4BF7-B654-AC36925D8FF8";
paths = (
{
closed = 1;
nodes = (
"1028 843 LINE",
"1102 843 LINE",
"1102 1085 LINE",
"1028 1085 LINE",
"1028 1326 LINE",
"789 1326 LINE",
"789 1085 LINE",
"694 1085 LINE",
"541 1085 OFFCURVE",
"397 1049 OFFCURVE",
"269 986 CURVE",
"269 1326 LINE",
"30 1326 LINE",
"30 0 LINE",
"269 0 LINE",
"269 127 LINE",
"269 183 OFFCURVE",
"285 236 OFFCURVE",
"308 285 CURVE",
"331 334 OFFCURVE",
"362 377 OFFCURVE",
"401 414 CURVE",
"439 450 OFFCURVE",
"483 479 OFFCURVE",
"534 500 CURVE",
"584 521 OFFCURVE",
"638 532 OFFCURVE",
"696 532 CURVE",
"789 532 LINE",
"789 0 LINE",
"1028 0 LINE",
"1028 532 LINE",
"1103 532 LINE",
"1103 776 LINE",
"1028 776 LINE"
);
},
{
closed = 1;
nodes = (
"611 776 OFFCURVE",
"534 762 OFFCURVE",
"463 735 CURVE",
"391 708 OFFCURVE",
"326 671 OFFCURVE",
"269 624 CURVE",
"269 706 LINE",
"276 711 OFFCURVE",
"283 715 OFFCURVE",
"290 720 CURVE",
"328 746 OFFCURVE",
"370 769 OFFCURVE",
"412 787 CURVE",
"501 824 OFFCURVE",
"596 843 OFFCURVE",
"694 843 CURVE",
"789 843 LINE",
"789 776 LINE",
"692 776 LINE"
);
}
);
width = 1133;
}
);
leftKerningGroup = M;
rightKerningGroup = H;
unicode = 0126;
},
{
glyphname = I;
lastChange = "2018-09-25 23:41:15 +0000";
layers = (
{
layerId = "6992DDD3-6ECA-4BF7-B654-AC36925D8FF8";
paths = (
{
closed = 1;
nodes = (
"567 1326 LINE",
"30 1326 LINE",
"30 1085 LINE",
"178 1085 LINE",
"178 241 LINE",
"30 241 LINE",
"30 0 LINE",
"567 0 LINE",
"567 241 LINE",
"419 241 LINE",
"419 1085 LINE",
"567 1085 LINE"
);
}
);
width = 597;
}
);
leftKerningGroup = I;
rightKerningGroup = I;
unicode = 0049;
},
{
glyphname = Imacron;
lastChange = "2018-09-25 23:41:15 +0000";
layers = (
{
components = (
{
alignment = -1;
name = I;
transform = "{1, 0, 0, 1, 10, 0}";
}
);
layerId = "6992DDD3-6ECA-4BF7-B654-AC36925D8FF8";
paths = (
{
closed = 1;
nodes = (
"567 1426 LINE",
"567 1664 LINE",
"30 1664 LINE",
"30 1426 LINE"
);
}
);
width = 607;
}
);
leftKerningGroup = I;
rightKerningGroup = I;
unicode = 012A;
},
{
glyphname = J;
lastChange = "2018-09-25 23:41:15 +0000";
layers = (
{
layerId = "6992DDD3-6ECA-4BF7-B654-AC36925D8FF8";
paths = (
{
closed = 1;
nodes = (
"209 1090 LINE",
"416 1090 LINE",
"416 489 LINE",
"416 448 OFFCURVE",
"404 413 OFFCURVE",
"379 382 CURVE",
"354 351 OFFCURVE",
"323 324 OFFCURVE",
"286 303 CURVE",
"214 263 OFFCURVE",
"123 239 OFFCURVE",
"30 239 CURVE",
"33 0 LINE",
"79 0 OFFCURVE",
"127 4 OFFCURVE",
"176 13 CURVE",
"225 22 OFFCURVE",
"272 35 OFFCURVE",
"319 52 CURVE",
"365 69 OFFCURVE",
"409 91 OFFCURVE",
"450 116 CURVE",
"491 141 OFFCURVE",
"527 170 OFFCURVE",
"558 203 CURVE",
"589 236 OFFCURVE",
"613 272 OFFCURVE",
"631 313 CURVE",
"649 353 OFFCURVE",
"658 397 OFFCURVE",
"658 444 CURVE",
"658 1090 LINE",
"755 1090 LINE",
"755 1329 LINE",
"209 1329 LINE"
);
}
);
width = 785;
}
);
leftKerningGroup = J;
rightKerningGroup = J;
unicode = 004A;
},
{
glyphname = K;
lastChange = "2018-09-25 23:41:15 +0000";
layers = (
{
layerId = "6992DDD3-6ECA-4BF7-B654-AC36925D8FF8";
paths = (
{
closed = 1;
nodes = (
"740 710 LINE",
"986 806 OFFCURVE",
"1160 1045 OFFCURVE",
"1160 1325 CURVE",
"923 1325 LINE",
"923 1212 OFFCURVE",
"879 1106 OFFCURVE",
"799 1026 CURVE",
"719 946 OFFCURVE",
"613 903 OFFCURVE",
"501 903 CURVE",
"418 903 LINE",
"419 1326 LINE",
"30 1326 LINE",
"30 1088 LINE",
"176 1088 LINE",
"176 903 LINE",
"102 903 LINE",
"102 665 LINE",
"176 665 LINE",
"176 0 LINE",
"417 0 LINE",
"418 665 LINE",
"489 665 LINE",
"928 0 LINE",
"1146 0 LINE",
"1146 237 LINE",
"1054 237 LINE"
);
}
);
width = 1190;
}
);
leftKerningGroup = B;
rightKerningGroup = X;
unicode = 004B;
},
{
glyphname = L;
lastChange = "2018-09-25 23:41:15 +0000";
layers = (
{
layerId = "6992DDD3-6ECA-4BF7-B654-AC36925D8FF8";
paths = (
{
closed = 1;
nodes = (
"1008 0 LINE",
"1008 454 LINE",
"770 454 LINE",
"770 240 LINE",
"342 240 LINE",
"342 1087 LINE",
"416 1087 LINE",
"417 1326 LINE",
"30 1326 LINE",
"30 1087 LINE",
"104 1087 LINE",
"104 240 LINE",
"30 240 LINE",
"30 0 LINE"
);
}
);
width = 1038;
}
);
leftKerningGroup = E;
rightKerningGroup = E;
unicode = 004C;
},
{
glyphname = Lslash;
lastChange = "2018-09-25 23:41:15 +0000";
layers = (
{
layerId = "6992DDD3-6ECA-4BF7-B654-AC36925D8FF8";
paths = (
{
closed = 1;
nodes = (
"770 240 LINE",
"342 240 LINE",
"342 671 LINE",
"345 673 LINE",
"416 720 LINE",
"416 1003 LINE",
"345 956 LINE",
"342 954 LINE",
"342 1087 LINE",
"416 1087 LINE",
"417 1326 LINE",
"30 1326 LINE",
"30 1087 LINE",
"104 1087 LINE",
"104 797 LINE",
"30 748 LINE",
"30 465 LINE",
"104 514 LINE",
"104 240 LINE",
"30 240 LINE",
"30 0 LINE",
"1008 0 LINE",
"1008 454 LINE",
"770 454 LINE"
);
}
);
width = 1038;
}
);
leftKerningGroup = E;
rightKerningGroup = E;
unicode = 0141;
},
{
glyphname = M;
lastChange = "2018-09-25 23:41:15 +0000";
layers = (
{
layerId = "6992DDD3-6ECA-4BF7-B654-AC36925D8FF8";
paths = (
{
closed = 1;
nodes = (
"1119 1271 OFFCURVE",
"1108 1217 OFFCURVE",
"1085 1166 CURVE SMOOTH",
"1062 1115 OFFCURVE",
"1031 1069 OFFCURVE",
"992 1030 CURVE SMOOTH",
"953 990 OFFCURVE",
"908 958 OFFCURVE",
"857 935 CURVE SMOOTH",
"805 912 OFFCURVE",
"751 900 OFFCURVE",
"694 900 CURVE SMOOTH",
"634 900 OFFCURVE",
"578 912 OFFCURVE",
"526 936 CURVE SMOOTH",
"474 959 OFFCURVE",
"429 991 OFFCURVE",
"391 1030 CURVE SMOOTH",
"353 1069 OFFCURVE",
"323 1115 OFFCURVE",
"302 1167 CURVE SMOOTH",
"280 1218 OFFCURVE",
"269 1272 OFFCURVE",
"269 1327 CURVE",
"30 1327 LINE",
"30 0 LINE",
"269 0 LINE",
"269 817 LINE",
"328 770 OFFCURVE",
"393 732 OFFCURVE",
"465 705 CURVE SMOOTH",
"536 678 OFFCURVE",
"613 664 OFFCURVE",
"694 664 CURVE SMOOTH",
"775 664 OFFCURVE",
"851 678 OFFCURVE",
"923 705 CURVE SMOOTH",
"995 732 OFFCURVE",
"1060 770 OFFCURVE",
"1119 817 CURVE",
"1119 0 LINE",
"1357 0 LINE",
"1357 1327 LINE",
"1119 1327 LINE"
);
}
);
width = 1387;
}
);
leftKerningGroup = M;
rightKerningGroup = M;
unicode = 004D;
},
{
glyphname = N;
lastChange = "2018-09-25 23:41:15 +0000";
layers = (
{
layerId = "6992DDD3-6ECA-4BF7-B654-AC36925D8FF8";
paths = (
{
closed = 1;
nodes = (
"1120 771 LINE",
"1060 855 OFFCURVE",
"991 931 OFFCURVE",
"914 1000 CURVE SMOOTH",
"836 1068 OFFCURVE",
"751 1126 OFFCURVE",
"660 1175 CURVE SMOOTH",
"568 1224 OFFCURVE",
"470 1261 OFFCURVE",
"367 1288 CURVE SMOOTH",
"264 1314 OFFCURVE",
"157 1327 OFFCURVE",
"46 1327 CURVE SMOOTH",
"30 1327 LINE",
"30 0 LINE",
"268 0 LINE",
"268 1067 LINE",
"346 1051 OFFCURVE",
"421 1027 OFFCURVE",
"492 994 CURVE SMOOTH",
"563 961 OFFCURVE",
"630 921 OFFCURVE",
"692 874 CURVE SMOOTH",
"753 827 OFFCURVE",
"810 774 OFFCURVE",
"861 715 CURVE SMOOTH",
"912 656 OFFCURVE",
"956 592 OFFCURVE",
"993 523 CURVE SMOOTH",
"1030 454 OFFCURVE",
"1059 382 OFFCURVE",
"1081 306 CURVE SMOOTH",
"1103 230 OFFCURVE",
"1116 152 OFFCURVE",
"1120 71 CURVE",
"1120 0 LINE",
"1359 0 LINE",
"1359 1327 LINE",
"1120 1327 LINE"
);
}
);
width = 1389;
}
);
leftKerningGroup = M;
rightKerningGroup = M;
unicode = 004E;
},
{
glyphname = Eng;
lastChange = "2018-09-25 23:41:15 +0000";
layers = (
{
layerId = "6992DDD3-6ECA-4BF7-B654-AC36925D8FF8";
paths = (
{
closed = 1;
nodes = (
"1359 1327 LINE",
"1120 1327 LINE",
"1120 771 LINE",
"1060 855 OFFCURVE",
"991 931 OFFCURVE",
"914 1000 CURVE",
"836 1068 OFFCURVE",
"751 1126 OFFCURVE",
"660 1175 CURVE",
"568 1224 OFFCURVE",
"470 1261 OFFCURVE",
"367 1288 CURVE",
"264 1314 OFFCURVE",
"157 1327 OFFCURVE",
"46 1327 CURVE",
"30 1327 LINE",
"30 0 LINE",
"268 0 LINE",
"268 1067 LINE",
"346 1051 OFFCURVE",
"421 1027 OFFCURVE",
"492 994 CURVE",
"563 961 OFFCURVE",
"630 921 OFFCURVE",
"692 874 CURVE",
"753 827 OFFCURVE",
"810 774 OFFCURVE",
"861 715 CURVE",
"912 656 OFFCURVE",
"956 592 OFFCURVE",
"993 523 CURVE",
"1030 454 OFFCURVE",
"1059 382 OFFCURVE",
"1081 306 CURVE",
"1113 196 OFFCURVE",
"1116 157 OFFCURVE",
"1120 1 CURVE",
"1120 -54 OFFCURVE",
"1120 -46 OFFCURVE",
"1120 -56 CURVE",
"1120 -75 OFFCURVE",
"1111 -88 OFFCURVE",
"1103 -96 CURVE",
"1096 -104 OFFCURVE",
"1082 -113 OFFCURVE",
"1063 -113 CURVE",
"1043 -113 OFFCURVE",
"1030 -104 OFFCURVE",
"1022 -96 CURVE",
"1019 -93 OFFCURVE",
"1015 -88 OFFCURVE",
"1012 -83 CURVE",
"949 -328 LINE",
"984 -343 OFFCURVE",
"1022 -351 OFFCURVE",
"1063 -351 CURVE",
"1226 -351 OFFCURVE",
"1359 -219 OFFCURVE",
"1359 -56 CURVE"
);
}
);
width = 1389;
}
);
leftKerningGroup = M;
rightKerningGroup = M;
unicode = 014A;
},
{
glyphname = O;
lastChange = "2018-09-26 00:47:25 +0000";
layers = (
{
layerId = "6992DDD3-6ECA-4BF7-B654-AC36925D8FF8";
paths = (
{
closed = 1;
nodes = (
"30 590 OFFCURVE",
"39 526 OFFCURVE",
"56 465 CURVE SMOOTH",
"73 404 OFFCURVE",
"98 346 OFFCURVE",
"129 293 CURVE SMOOTH",
"160 240 OFFCURVE",
"198 191 OFFCURVE",
"242 147 CURVE SMOOTH",
"286 103 OFFCURVE",
"335 66 OFFCURVE",
"388 35 CURVE SMOOTH",
"441 4 OFFCURVE",
"499 -21 OFFCURVE",
"560 -38 CURVE SMOOTH",
"621 -55 OFFCURVE",
"685 -64 OFFCURVE",
"751 -64 CURVE SMOOTH",
"817 -64 OFFCURVE",
"881 -55 OFFCURVE",
"942 -38 CURVE SMOOTH",
"1003 -21 OFFCURVE",
"1061 4 OFFCURVE",
"1114 35 CURVE SMOOTH",
"1167 66 OFFCURVE",
"1216 103 OFFCURVE",
"1260 147 CURVE SMOOTH",
"1304 191 OFFCURVE",
"1342 240 OFFCURVE",
"1373 293 CURVE SMOOTH",
"1404 346 OFFCURVE",
"1429 404 OFFCURVE",
"1446 465 CURVE SMOOTH",
"1463 526 OFFCURVE",
"1472 590 OFFCURVE",
"1472 656 CURVE SMOOTH",
"1472 722 OFFCURVE",
"1463 786 OFFCURVE",
"1446 847 CURVE SMOOTH",
"1429 908 OFFCURVE",
"1404 966 OFFCURVE",
"1373 1019 CURVE SMOOTH",
"1342 1072 OFFCURVE",
"1304 1121 OFFCURVE",
"1260 1165 CURVE SMOOTH",
"1216 1209 OFFCURVE",
"1167 1247 OFFCURVE",
"1114 1278 CURVE SMOOTH",
"1061 1309 OFFCURVE",
"1003 1333 OFFCURVE",
"942 1350 CURVE SMOOTH",
"881 1367 OFFCURVE",
"817 1376 OFFCURVE",
"751 1376 CURVE SMOOTH",
"685 1376 OFFCURVE",
"621 1367 OFFCURVE",
"560 1350 CURVE SMOOTH",
"499 1333 OFFCURVE",
"441 1309 OFFCURVE",
"388 1278 CURVE SMOOTH",
"335 1247 OFFCURVE",
"286 1209 OFFCURVE",
"242 1165 CURVE SMOOTH",
"198 1121 OFFCURVE",
"160 1072 OFFCURVE",
"129 1019 CURVE SMOOTH",
"98 966 OFFCURVE",
"73 908 OFFCURVE",
"56 847 CURVE SMOOTH",
"39 786 OFFCURVE",
"30 722 OFFCURVE",
"30 656 CURVE SMOOTH"
);
},
{
closed = 1;
nodes = (
"685 175 OFFCURVE",
"623 188 OFFCURVE",
"565 214 CURVE SMOOTH",
"506 239 OFFCURVE",
"455 274 OFFCURVE",
"412 318 CURVE SMOOTH",
"369 361 OFFCURVE",
"334 412 OFFCURVE",
"309 471 CURVE SMOOTH",
"284 529 OFFCURVE",
"271 591 OFFCURVE",
"271 656 CURVE SMOOTH",
"271 721 OFFCURVE",
"284 782 OFFCURVE",
"309 841 CURVE SMOOTH",
"334 899 OFFCURVE",
"369 950 OFFCURVE",
"413 994 CURVE SMOOTH",
"456 1037 OFFCURVE",
"507 1072 OFFCURVE",
"566 1098 CURVE SMOOTH",
"624 1123 OFFCURVE",
"686 1136 OFFCURVE",
"751 1136 CURVE SMOOTH",
"816 1136 OFFCURVE",
"878 1123 OFFCURVE",
"936 1098 CURVE SMOOTH",
"994 1072 OFFCURVE",
"1045 1037 OFFCURVE",
"1089 994 CURVE SMOOTH",
"1132 950 OFFCURVE",
"1167 899 OFFCURVE",
"1193 841 CURVE SMOOTH",
"1218 783 OFFCURVE",
"1231 721 OFFCURVE",
"1231 656 CURVE SMOOTH",
"1231 592 OFFCURVE",
"1219 531 OFFCURVE",
"1195 473 CURVE SMOOTH",
"1171 414 OFFCURVE",
"1136 362 OFFCURVE",
"1091 315 CURVE SMOOTH",
"1044 270 OFFCURVE",
"992 235 OFFCURVE",
"935 211 CURVE SMOOTH",
"877 187 OFFCURVE",
"816 175 OFFCURVE",
"751 175 CURVE SMOOTH"
);
},
{
closed = 1;
nodes = (
"635 538 LINE",
"635 777 LINE",
"874 777 LINE",
"874 538 LINE"
);
},
{
closed = 1;
nodes = (
"30 590 OFFCURVE",
"39 526 OFFCURVE",
"56 465 CURVE SMOOTH",
"73 404 OFFCURVE",
"98 346 OFFCURVE",
"129 293 CURVE SMOOTH",
"160 240 OFFCURVE",
"198 191 OFFCURVE",
"242 147 CURVE SMOOTH",
"286 103 OFFCURVE",
"335 66 OFFCURVE",
"388 35 CURVE SMOOTH",
"441 4 OFFCURVE",
"499 -21 OFFCURVE",
"560 -38 CURVE SMOOTH",
"621 -55 OFFCURVE",
"685 -64 OFFCURVE",
"751 -64 CURVE SMOOTH",
"817 -64 OFFCURVE",
"881 -55 OFFCURVE",
"942 -38 CURVE SMOOTH",
"1003 -21 OFFCURVE",
"1061 4 OFFCURVE",
"1114 35 CURVE SMOOTH",
"1167 66 OFFCURVE",
"1216 103 OFFCURVE",
"1260 147 CURVE SMOOTH",
"1304 191 OFFCURVE",
"1342 240 OFFCURVE",
"1373 293 CURVE SMOOTH",
"1404 346 OFFCURVE",
"1429 404 OFFCURVE",
"1446 465 CURVE SMOOTH",
"1463 526 OFFCURVE",
"1472 590 OFFCURVE",
"1472 656 CURVE SMOOTH",
"1472 722 OFFCURVE",
"1463 786 OFFCURVE",
"1446 847 CURVE SMOOTH",
"1429 908 OFFCURVE",
"1404 966 OFFCURVE",
"1373 1019 CURVE SMOOTH",
"1342 1072 OFFCURVE",
"1304 1121 OFFCURVE",
"1260 1165 CURVE SMOOTH",
"1216 1209 OFFCURVE",
"1167 1247 OFFCURVE",
"1114 1278 CURVE SMOOTH",
"1061 1309 OFFCURVE",
"1003 1333 OFFCURVE",
"942 1350 CURVE SMOOTH",
"881 1367 OFFCURVE",
"817 1376 OFFCURVE",
"751 1376 CURVE SMOOTH",
"685 1376 OFFCURVE",
"621 1367 OFFCURVE",
"560 1350 CURVE SMOOTH",
"499 1333 OFFCURVE",
"441 1309 OFFCURVE",
"388 1278 CURVE SMOOTH",
"335 1247 OFFCURVE",
"286 1209 OFFCURVE",
"242 1165 CURVE SMOOTH",
"198 1121 OFFCURVE",
"160 1072 OFFCURVE",
"129 1019 CURVE SMOOTH",
"98 966 OFFCURVE",
"73 908 OFFCURVE",
"56 847 CURVE SMOOTH",
"39 786 OFFCURVE",
"30 722 OFFCURVE",
"30 656 CURVE SMOOTH"
);
},
{
closed = 1;
nodes = (
"685 175 OFFCURVE",
"623 188 OFFCURVE",
"565 214 CURVE SMOOTH",
"506 239 OFFCURVE",
"455 274 OFFCURVE",
"412 318 CURVE SMOOTH",
"369 361 OFFCURVE",
"334 412 OFFCURVE",
"309 471 CURVE SMOOTH",
"284 529 OFFCURVE",
"271 591 OFFCURVE",
"271 656 CURVE SMOOTH",
"271 721 OFFCURVE",
"284 782 OFFCURVE",
"309 841 CURVE SMOOTH",
"334 899 OFFCURVE",
"369 950 OFFCURVE",
"413 994 CURVE SMOOTH",
"456 1037 OFFCURVE",
"507 1072 OFFCURVE",
"566 1098 CURVE SMOOTH",
"624 1123 OFFCURVE",
"686 1136 OFFCURVE",
"751 1136 CURVE SMOOTH",
"816 1136 OFFCURVE",
"878 1123 OFFCURVE",
"936 1098 CURVE SMOOTH",
"994 1072 OFFCURVE",
"1045 1037 OFFCURVE",
"1089 994 CURVE SMOOTH",
"1132 950 OFFCURVE",
"1167 899 OFFCURVE",
"1193 841 CURVE SMOOTH",
"1218 783 OFFCURVE",
"1231 721 OFFCURVE",
"1231 656 CURVE SMOOTH",
"1231 592 OFFCURVE",
"1219 531 OFFCURVE",
"1195 473 CURVE SMOOTH",
"1171 414 OFFCURVE",
"1136 362 OFFCURVE",
"1091 315 CURVE SMOOTH",
"1044 270 OFFCURVE",
"992 235 OFFCURVE",
"935 211 CURVE SMOOTH",
"877 187 OFFCURVE",
"816 175 OFFCURVE",
"751 175 CURVE SMOOTH"
);
},
{
closed = 1;
nodes = (
"635 538 LINE",
"635 777 LINE",
"874 777 LINE",
"874 538 LINE"
);
},
{
closed = 1;
nodes = (
"30 590 OFFCURVE",
"39 526 OFFCURVE",
"56 465 CURVE SMOOTH",
"73 404 OFFCURVE",
"98 346 OFFCURVE",
"129 293 CURVE SMOOTH",
"160 240 OFFCURVE",
"198 191 OFFCURVE",
"242 147 CURVE SMOOTH",
"286 103 OFFCURVE",
"335 66 OFFCURVE",
"388 35 CURVE SMOOTH",
"441 4 OFFCURVE",
"499 -21 OFFCURVE",
"560 -38 CURVE SMOOTH",
"621 -55 OFFCURVE",
"685 -64 OFFCURVE",
"751 -64 CURVE SMOOTH",
"817 -64 OFFCURVE",
"881 -55 OFFCURVE",
"942 -38 CURVE SMOOTH",
"1003 -21 OFFCURVE",
"1061 4 OFFCURVE",
"1114 35 CURVE SMOOTH",
"1167 66 OFFCURVE",
"1216 103 OFFCURVE",
"1260 147 CURVE SMOOTH",
"1304 191 OFFCURVE",
"1342 240 OFFCURVE",
"1373 293 CURVE SMOOTH",
"1404 346 OFFCURVE",
"1429 404 OFFCURVE",
"1446 465 CURVE SMOOTH",
"1463 526 OFFCURVE",
"1472 590 OFFCURVE",
"1472 656 CURVE SMOOTH",
"1472 722 OFFCURVE",
"1463 786 OFFCURVE",
"1446 847 CURVE SMOOTH",
"1429 908 OFFCURVE",
"1404 966 OFFCURVE",
"1373 1019 CURVE SMOOTH",
"1342 1072 OFFCURVE",
"1304 1121 OFFCURVE",
"1260 1165 CURVE SMOOTH",
"1216 1209 OFFCURVE",
"1167 1247 OFFCURVE",
"1114 1278 CURVE SMOOTH",
"1061 1309 OFFCURVE",
"1003 1333 OFFCURVE",
"942 1350 CURVE SMOOTH",
"881 1367 OFFCURVE",
"817 1376 OFFCURVE",
"751 1376 CURVE SMOOTH",
"685 1376 OFFCURVE",
"621 1367 OFFCURVE",
"560 1350 CURVE SMOOTH",
"499 1333 OFFCURVE",
"441 1309 OFFCURVE",
"388 1278 CURVE SMOOTH",
"335 1247 OFFCURVE",
"286 1209 OFFCURVE",
"242 1165 CURVE SMOOTH",
"198 1121 OFFCURVE",
"160 1072 OFFCURVE",
"129 1019 CURVE SMOOTH",
"98 966 OFFCURVE",
"73 908 OFFCURVE",
"56 847 CURVE SMOOTH",
"39 786 OFFCURVE",
"30 722 OFFCURVE",
"30 656 CURVE SMOOTH"
);
},
{
closed = 1;
nodes = (
"685 175 OFFCURVE",
"623 188 OFFCURVE",
"565 214 CURVE SMOOTH",
"506 239 OFFCURVE",
"455 274 OFFCURVE",
"412 318 CURVE SMOOTH",
"369 361 OFFCURVE",
"334 412 OFFCURVE",
"309 471 CURVE SMOOTH",
"284 529 OFFCURVE",
"271 591 OFFCURVE",
"271 656 CURVE SMOOTH",
"271 721 OFFCURVE",
"284 782 OFFCURVE",
"309 841 CURVE SMOOTH",
"334 899 OFFCURVE",
"369 950 OFFCURVE",
"413 994 CURVE SMOOTH",
"456 1037 OFFCURVE",
"507 1072 OFFCURVE",
"566 1098 CURVE SMOOTH",
"624 1123 OFFCURVE",
"686 1136 OFFCURVE",
"751 1136 CURVE SMOOTH",
"816 1136 OFFCURVE",
"878 1123 OFFCURVE",
"936 1098 CURVE SMOOTH",
"994 1072 OFFCURVE",
"1045 1037 OFFCURVE",
"1089 994 CURVE SMOOTH",
"1132 950 OFFCURVE",
"1167 899 OFFCURVE",
"1193 841 CURVE SMOOTH",
"1218 783 OFFCURVE",
"1231 721 OFFCURVE",
"1231 656 CURVE SMOOTH",
"1231 592 OFFCURVE",
"1219 531 OFFCURVE",
"1195 473 CURVE SMOOTH",
"1171 414 OFFCURVE",
"1136 362 OFFCURVE",
"1091 315 CURVE SMOOTH",
"1044 270 OFFCURVE",
"992 235 OFFCURVE",
"935 211 CURVE SMOOTH",
"877 187 OFFCURVE",
"816 175 OFFCURVE",
"751 175 CURVE SMOOTH"
);
},
{
closed = 1;
nodes = (
"635 538 LINE",
"635 777 LINE",
"874 777 LINE",
"874 538 LINE"
);
}
);
width = 1502;
}
);
leftKerningGroup = O;
rightKerningGroup = O;
unicode = 004F;
},
{
glyphname = Odieresismacron;
lastChange = "2018-09-25 23:41:15 +0000";
layers = (
{
components = (
{
alignment = -1;
name = O;
},
{
name = dieresis;
transform = "{1, 0, 0, 1, 409, 337}";
}
);
layerId = "6992DDD3-6ECA-4BF7-B654-AC36925D8FF8";
paths = (
{
closed = 1;
nodes = (
"1053 1767 LINE",
"1053 2005 LINE",
"434 2005 LINE",
"434 1767 LINE"
);
}
);
width = 1502;
}
);
leftKerningGroup = O;
note = uni022A;
rightKerningGroup = O;
unicode = 022A;
},
{
glyphname = Odotaccentmacron;
lastChange = "2018-09-25 23:41:15 +0000";
layers = (
{
components = (
{
alignment = -1;
name = O;
},
{
alignment = -1;
name = dotaccentcomb;
transform = "{1, 0, 0, 1, 609, 342}";
}
);
layerId = "6992DDD3-6ECA-4BF7-B654-AC36925D8FF8";
paths = (
{
closed = 1;
nodes = (
"1053 1767 LINE",
"1053 2005 LINE",
"434 2005 LINE",
"434 1767 LINE"
);
}
);
width = 1502;
}
);
leftKerningGroup = O;
note = uni0230;
rightKerningGroup = O;
unicode = 0230;
},
{
glyphname = Ohorn;
lastChange = "2018-09-25 23:41:15 +0000";
layers = (
{
layerId = "6992DDD3-6ECA-4BF7-B654-AC36925D8FF8";
paths = (
{
closed = 1;
nodes = (
"874 538 LINE",
"874 777 LINE",
"635 777 LINE",
"635 538 LINE"
);
},
{
closed = 1;
nodes = (
"1305 1293 LINE",
"1310 1290 OFFCURVE",
"1314 1285 OFFCURVE",
"1317 1282 CURVE",
"1324 1273 OFFCURVE",
"1331 1258 OFFCURVE",
"1328 1239 CURVE",
"1325 1220 OFFCURVE",
"1314 1207 OFFCURVE",
"1305 1202 CURVE",
"1296 1195 OFFCURVE",
"1282 1191 OFFCURVE",
"1263 1191 CURVE",
"1247 1191 OFFCURVE",
"1233 1195 OFFCURVE",
"1222 1200 CURVE",
"1209 1211 OFFCURVE",
"1185 1231 OFFCURVE",
"1184 1231 CURVE",
"1162 1248 OFFCURVE",
"1138 1264 OFFCURVE",
"1114 1278 CURVE",
"1061 1309 OFFCURVE",
"1003 1333 OFFCURVE",
"942 1350 CURVE",
"881 1367 OFFCURVE",
"817 1376 OFFCURVE",
"751 1376 CURVE",
"685 1376 OFFCURVE",
"621 1367 OFFCURVE",
"560 1350 CURVE",
"499 1333 OFFCURVE",
"441 1309 OFFCURVE",
"388 1278 CURVE",
"335 1247 OFFCURVE",
"286 1209 OFFCURVE",
"242 1165 CURVE",
"198 1121 OFFCURVE",
"160 1072 OFFCURVE",
"129 1019 CURVE",
"98 966 OFFCURVE",
"73 908 OFFCURVE",
"56 847 CURVE",
"39 786 OFFCURVE",
"30 722 OFFCURVE",
"30 656 CURVE",
"30 590 OFFCURVE",
"39 526 OFFCURVE",
"56 465 CURVE",
"73 404 OFFCURVE",
"98 346 OFFCURVE",
"129 293 CURVE",
"160 240 OFFCURVE",
"198 191 OFFCURVE",
"242 147 CURVE",
"286 103 OFFCURVE",
"335 66 OFFCURVE",
"388 35 CURVE",
"441 4 OFFCURVE",
"499 -21 OFFCURVE",
"560 -38 CURVE",
"621 -55 OFFCURVE",
"685 -64 OFFCURVE",
"751 -64 CURVE",
"817 -64 OFFCURVE",
"881 -55 OFFCURVE",
"942 -38 CURVE",
"1003 -21 OFFCURVE",
"1061 4 OFFCURVE",
"1114 35 CURVE",
"1167 66 OFFCURVE",
"1216 103 OFFCURVE",
"1260 147 CURVE",
"1304 191 OFFCURVE",
"1342 240 OFFCURVE",
"1373 293 CURVE",
"1404 346 OFFCURVE",
"1429 404 OFFCURVE",
"1446 465 CURVE",
"1463 526 OFFCURVE",
"1472 590 OFFCURVE",
"1472 656 CURVE",
"1472 722 OFFCURVE",
"1463 786 OFFCURVE",
"1446 847 CURVE",
"1433 893 OFFCURVE",
"1416 937 OFFCURVE",
"1395 979 CURVE",
"1482 1019 OFFCURVE",
"1548 1102 OFFCURVE",
"1563 1204 CURVE",
"1569 1244 OFFCURVE",
"1567 1283 OFFCURVE",
"1557 1320 CURVE"
);
},
{
closed = 1;
nodes = (
"1171 414 OFFCURVE",
"1136 362 OFFCURVE",
"1091 315 CURVE",
"1044 270 OFFCURVE",
"992 235 OFFCURVE",
"935 211 CURVE",
"877 187 OFFCURVE",
"816 175 OFFCURVE",
"751 175 CURVE",
"685 175 OFFCURVE",
"623 188 OFFCURVE",
"565 214 CURVE",
"506 239 OFFCURVE",
"455 274 OFFCURVE",
"412 318 CURVE",
"369 361 OFFCURVE",
"334 412 OFFCURVE",
"309 471 CURVE",
"284 529 OFFCURVE",
"271 591 OFFCURVE",
"271 656 CURVE",
"271 721 OFFCURVE",
"284 782 OFFCURVE",
"309 841 CURVE",
"334 899 OFFCURVE",
"369 950 OFFCURVE",
"413 994 CURVE",
"456 1037 OFFCURVE",
"507 1072 OFFCURVE",
"566 1098 CURVE",
"624 1123 OFFCURVE",
"686 1136 OFFCURVE",
"751 1136 CURVE",
"816 1136 OFFCURVE",
"878 1123 OFFCURVE",
"936 1098 CURVE",
"994 1072 OFFCURVE",
"1045 1037 OFFCURVE",
"1089 994 CURVE",
"1132 950 OFFCURVE",
"1167 899 OFFCURVE",
"1193 841 CURVE",
"1218 783 OFFCURVE",
"1231 721 OFFCURVE",
"1231 656 CURVE",
"1231 592 OFFCURVE",
"1219 531 OFFCURVE",
"1195 473 CURVE"
);
}
);
width = 1596;
}
);
leftKerningGroup = O;
rightKerningGroup = O;
unicode = 01A0;
},
{
glyphname = Ohornacute;
lastChange = "2018-09-25 23:41:15 +0000";
layers = (
{
components = (
{
name = acute;
transform = "{1, 0, 0, 1, 638, 337}";
}
);
layerId = "6992DDD3-6ECA-4BF7-B654-AC36925D8FF8";
paths = (
{
closed = 1;
nodes = (
"874 538 LINE",
"874 777 LINE",
"635 777 LINE",
"635 538 LINE"
);
},
{
closed = 1;
nodes = (
"1305 1293 LINE",
"1310 1290 OFFCURVE",
"1314 1285 OFFCURVE",
"1317 1282 CURVE",
"1324 1273 OFFCURVE",
"1331 1258 OFFCURVE",
"1328 1239 CURVE",
"1325 1220 OFFCURVE",
"1314 1207 OFFCURVE",
"1305 1202 CURVE",
"1296 1195 OFFCURVE",
"1282 1191 OFFCURVE",
"1263 1191 CURVE",
"1247 1191 OFFCURVE",
"1233 1195 OFFCURVE",
"1222 1200 CURVE",
"1209 1211 OFFCURVE",
"1185 1231 OFFCURVE",
"1184 1231 CURVE",
"1162 1248 OFFCURVE",
"1138 1264 OFFCURVE",
"1114 1278 CURVE",
"1061 1309 OFFCURVE",
"1003 1333 OFFCURVE",
"942 1350 CURVE",
"881 1367 OFFCURVE",
"817 1376 OFFCURVE",
"751 1376 CURVE",
"685 1376 OFFCURVE",
"621 1367 OFFCURVE",
"560 1350 CURVE",
"499 1333 OFFCURVE",
"441 1309 OFFCURVE",
"388 1278 CURVE",
"335 1247 OFFCURVE",
"286 1209 OFFCURVE",
"242 1165 CURVE",
"198 1121 OFFCURVE",
"160 1072 OFFCURVE",
"129 1019 CURVE",
"98 966 OFFCURVE",
"73 908 OFFCURVE",
"56 847 CURVE",
"39 786 OFFCURVE",
"30 722 OFFCURVE",
"30 656 CURVE",
"30 590 OFFCURVE",
"39 526 OFFCURVE",
"56 465 CURVE",
"73 404 OFFCURVE",
"98 346 OFFCURVE",
"129 293 CURVE",
"160 240 OFFCURVE",
"198 191 OFFCURVE",
"242 147 CURVE",
"286 103 OFFCURVE",
"335 66 OFFCURVE",
"388 35 CURVE",
"441 4 OFFCURVE",
"499 -21 OFFCURVE",
"560 -38 CURVE",
"621 -55 OFFCURVE",
"685 -64 OFFCURVE",
"751 -64 CURVE",
"817 -64 OFFCURVE",
"881 -55 OFFCURVE",
"942 -38 CURVE",
"1003 -21 OFFCURVE",
"1061 4 OFFCURVE",
"1114 35 CURVE",
"1167 66 OFFCURVE",
"1216 103 OFFCURVE",
"1260 147 CURVE",
"1304 191 OFFCURVE",
"1342 240 OFFCURVE",
"1373 293 CURVE",
"1404 346 OFFCURVE",
"1429 404 OFFCURVE",
"1446 465 CURVE",
"1463 526 OFFCURVE",
"1472 590 OFFCURVE",
"1472 656 CURVE",
"1472 722 OFFCURVE",
"1463 786 OFFCURVE",
"1446 847 CURVE",
"1433 893 OFFCURVE",
"1416 937 OFFCURVE",
"1395 979 CURVE",
"1482 1019 OFFCURVE",
"1548 1102 OFFCURVE",
"1563 1204 CURVE",
"1569 1244 OFFCURVE",
"1567 1283 OFFCURVE",
"1557 1320 CURVE"
);
},
{
closed = 1;
nodes = (
"1171 414 OFFCURVE",
"1136 362 OFFCURVE",
"1091 315 CURVE",
"1044 270 OFFCURVE",
"992 235 OFFCURVE",
"935 211 CURVE",
"877 187 OFFCURVE",
"816 175 OFFCURVE",
"751 175 CURVE",
"685 175 OFFCURVE",
"623 188 OFFCURVE",
"565 214 CURVE",
"506 239 OFFCURVE",
"455 274 OFFCURVE",
"412 318 CURVE",
"369 361 OFFCURVE",
"334 412 OFFCURVE",
"309 471 CURVE",
"284 529 OFFCURVE",
"271 591 OFFCURVE",
"271 656 CURVE",
"271 721 OFFCURVE",
"284 782 OFFCURVE",
"309 841 CURVE",
"334 899 OFFCURVE",
"369 950 OFFCURVE",
"413 994 CURVE",
"456 1037 OFFCURVE",
"507 1072 OFFCURVE",
"566 1098 CURVE",
"624 1123 OFFCURVE",
"686 1136 OFFCURVE",
"751 1136 CURVE",
"816 1136 OFFCURVE",
"878 1123 OFFCURVE",
"936 1098 CURVE",
"994 1072 OFFCURVE",
"1045 1037 OFFCURVE",
"1089 994 CURVE",
"1132 950 OFFCURVE",
"1167 899 OFFCURVE",
"1193 841 CURVE",
"1218 783 OFFCURVE",
"1231 721 OFFCURVE",
"1231 656 CURVE",
"1231 592 OFFCURVE",
"1219 531 OFFCURVE",
"1195 473 CURVE"
);
}
);
width = 1596;
}
);
leftKerningGroup = O;
note = uni1EDA;
rightKerningGroup = O;
unicode = 1EDA;
},
{
glyphname = Oslash;
lastChange = "2018-09-25 23:41:15 +0000";
layers = (
{
layerId = "6992DDD3-6ECA-4BF7-B654-AC36925D8FF8";
paths = (
{
closed = 1;
nodes = (
"1429 908 OFFCURVE",
"1404 966 OFFCURVE",
"1373 1019 CURVE",
"1342 1072 OFFCURVE",
"1304 1121 OFFCURVE",
"1260 1165 CURVE",
"1216 1209 OFFCURVE",
"1167 1247 OFFCURVE",
"1114 1278 CURVE",
"1061 1309 OFFCURVE",
"1003 1333 OFFCURVE",
"942 1350 CURVE",
"881 1367 OFFCURVE",
"817 1376 OFFCURVE",
"751 1376 CURVE",
"685 1376 OFFCURVE",
"621 1367 OFFCURVE",
"560 1350 CURVE",
"499 1333 OFFCURVE",
"441 1309 OFFCURVE",
"388 1278 CURVE",
"335 1247 OFFCURVE",
"286 1209 OFFCURVE",
"242 1165 CURVE",
"198 1121 OFFCURVE",
"160 1072 OFFCURVE",
"129 1019 CURVE",
"98 966 OFFCURVE",
"73 908 OFFCURVE",
"56 847 CURVE",
"39 786 OFFCURVE",
"30 722 OFFCURVE",
"30 656 CURVE",
"30 590 OFFCURVE",
"39 526 OFFCURVE",
"56 465 CURVE",
"73 404 OFFCURVE",
"98 346 OFFCURVE",
"129 293 CURVE",
"160 240 OFFCURVE",
"198 191 OFFCURVE",
"242 147 CURVE",
"281 108 OFFCURVE",
"334 68 OFFCURVE",
"388 35 CURVE",
"441 4 OFFCURVE",
"499 -21 OFFCURVE",
"560 -38 CURVE",
"621 -55 OFFCURVE",
"685 -64 OFFCURVE",
"751 -64 CURVE",
"817 -64 OFFCURVE",
"881 -55 OFFCURVE",
"942 -38 CURVE",
"1003 -21 OFFCURVE",
"1061 4 OFFCURVE",
"1114 35 CURVE",
"1167 66 OFFCURVE",
"1216 103 OFFCURVE",
"1260 147 CURVE",
"1304 191 OFFCURVE",
"1342 240 OFFCURVE",
"1373 293 CURVE",
"1404 346 OFFCURVE",
"1429 404 OFFCURVE",
"1446 465 CURVE",
"1463 526 OFFCURVE",
"1472 590 OFFCURVE",
"1472 656 CURVE",
"1472 722 OFFCURVE",
"1463 786 OFFCURVE",
"1446 847 CURVE"
);
},
{
closed = 1;
nodes = (
"284 529 OFFCURVE",
"271 591 OFFCURVE",
"271 656 CURVE",
"271 721 OFFCURVE",
"284 782 OFFCURVE",
"309 841 CURVE",
"334 899 OFFCURVE",
"369 950 OFFCURVE",
"413 994 CURVE",
"456 1037 OFFCURVE",
"507 1072 OFFCURVE",
"566 1098 CURVE",
"624 1123 OFFCURVE",
"686 1136 OFFCURVE",
"751 1136 CURVE",
"812 1136 OFFCURVE",
"871 1124 OFFCURVE",
"926 1102 CURVE",
"409 321 LINE",
"367 363 OFFCURVE",
"333 413 OFFCURVE",
"309 471 CURVE"
);
},
{
closed = 1;
nodes = (
"1171 414 OFFCURVE",
"1136 362 OFFCURVE",
"1091 315 CURVE",
"1044 270 OFFCURVE",
"992 235 OFFCURVE",
"935 211 CURVE",
"877 187 OFFCURVE",
"816 175 OFFCURVE",
"751 175 CURVE",
"702 175 OFFCURVE",
"655 182 OFFCURVE",
"610 197 CURVE",
"1117 963 LINE",
"1147 927 OFFCURVE",
"1173 886 OFFCURVE",
"1193 841 CURVE",
"1218 783 OFFCURVE",
"1231 721 OFFCURVE",
"1231 656 CURVE",
"1231 592 OFFCURVE",
"1219 531 OFFCURVE",
"1195 473 CURVE"
);
}
);
width = 1502;
}
);
leftKerningGroup = O;
rightKerningGroup = O;
unicode = 00D8;
},
{
glyphname = OE;
lastChange = "2018-09-25 23:41:15 +0000";
layers = (
{
layerId = "6992DDD3-6ECA-4BF7-B654-AC36925D8FF8";
paths = (
{
closed = 1;
nodes = (
"816 545 LINE",
"816 784 LINE",
"577 784 LINE",
"577 545 LINE"
);
},
{
closed = 1;
nodes = (
"1782 240 LINE",
"1359 240 LINE",
"1360 298 OFFCURVE",
"1371 353 OFFCURVE",
"1394 405 CURVE",
"1417 457 OFFCURVE",
"1447 502 OFFCURVE",
"1486 541 CURVE",
"1525 580 OFFCURVE",
"1570 610 OFFCURVE",
"1621 633 CURVE",
"1672 656 OFFCURVE",
"1727 667 OFFCURVE",
"1786 667 CURVE",
"1786 909 LINE",
"1703 909 OFFCURVE",
"1626 895 OFFCURVE",
"1553 868 CURVE",
"1480 841 OFFCURVE",
"1414 803 OFFCURVE",
"1355 755 CURVE",
"1355 1088 LINE",
"1786 1088 LINE",
"1786 1326 LINE",
"1116 1326 LINE",
"1116 1174 LINE",
"1001 1269 OFFCURVE",
"854 1326 OFFCURVE",
"693 1326 CURVE",
"327 1326 OFFCURVE",
"30 1029 OFFCURVE",
"30 663 CURVE",
"30 297 OFFCURVE",
"327 0 OFFCURVE",
"693 0 CURVE",
"854 0 OFFCURVE",
"1001 57 OFFCURVE",
"1116 152 CURVE",
"1116 0 LINE",
"2020 0 LINE",
"2020 454 LINE",
"1782 454 LINE"
);
},
{
closed = 1;
nodes = (
"1061 449 OFFCURVE",
"1031 404 OFFCURVE",
"992 365 CURVE",
"953 326 OFFCURVE",
"908 296 OFFCURVE",
"858 274 CURVE",
"806 252 OFFCURVE",
"751 241 OFFCURVE",
"693 241 CURVE",
"636 241 OFFCURVE",
"581 252 OFFCURVE",
"529 274 CURVE",
"479 296 OFFCURVE",
"434 326 OFFCURVE",
"395 365 CURVE",
"356 404 OFFCURVE",
"326 449 OFFCURVE",
"305 499 CURVE",
"283 551 OFFCURVE",
"272 606 OFFCURVE",
"272 663 CURVE",
"272 720 OFFCURVE",
"283 775 OFFCURVE",
"305 827 CURVE",
"326 877 OFFCURVE",
"356 922 OFFCURVE",
"395 961 CURVE",
"434 1000 OFFCURVE",
"479 1030 OFFCURVE",
"529 1052 CURVE",
"581 1074 OFFCURVE",
"636 1085 OFFCURVE",
"693 1085 CURVE",
"751 1085 OFFCURVE",
"806 1074 OFFCURVE",
"858 1052 CURVE",
"908 1030 OFFCURVE",
"953 1000 OFFCURVE",
"992 961 CURVE",
"1031 922 OFFCURVE",
"1061 877 OFFCURVE",
"1082 827 CURVE",
"1104 775 OFFCURVE",
"1115 720 OFFCURVE",
"1115 663 CURVE",
"1115 606 OFFCURVE",
"1104 551 OFFCURVE",
"1082 499 CURVE"
);
}
);
width = 2050;
}
);
leftKerningGroup = O;
rightKerningGroup = E;
unicode = 0152;
},
{
glyphname = P;
lastChange = "2018-09-25 23:41:15 +0000";
layers = (
{
layerId = "6992DDD3-6ECA-4BF7-B654-AC36925D8FF8";
paths = (
{
closed = 1;
nodes = (
"30 1326 LINE",
"30 1085 LINE",
"178 1085 LINE",
"178 906 LINE",
"104 906 LINE",
"104 665 LINE",
"178 665 LINE",
"178 0 LINE",
"419 0 LINE",
"419 665 LINE",
"521 665 LINE",
"582 666 OFFCURVE",
"640 674 OFFCURVE",
"695 690 CURVE",
"751 707 OFFCURVE",
"803 729 OFFCURVE",
"852 758 CURVE",
"901 787 OFFCURVE",
"945 822 OFFCURVE",
"985 862 CURVE",
"1025 903 OFFCURVE",
"1059 947 OFFCURVE",
"1088 996 CURVE",
"1117 1045 OFFCURVE",
"1139 1098 OFFCURVE",
"1154 1154 CURVE",
"1170 1210 OFFCURVE",
"1178 1266 OFFCURVE",
"1178 1326 CURVE"
);
},
{
closed = 1;
nodes = (
"771 986 OFFCURVE",
"726 957 OFFCURVE",
"675 936 CURVE",
"624 915 OFFCURVE",
"569 904 OFFCURVE",
"512 904 CURVE",
"419 904 LINE",
"419 1085 LINE",
"865 1085 LINE",
"849 1062 OFFCURVE",
"831 1041 OFFCURVE",
"810 1022 CURVE"
);
}
);
width = 1208;
}
);
leftKerningGroup = B;
rightKerningGroup = P;
unicode = 0050;
},
{
glyphname = Thorn;
lastChange = "2018-09-25 23:41:15 +0000";
layers = (
{
layerId = "6992DDD3-6ECA-4BF7-B654-AC36925D8FF8";
paths = (
{
closed = 1;
nodes = (
"356 1331 LINE",
"115 1331 LINE",
"115 1088 LINE",
"31 1088 LINE",
"31 851 LINE",
"112 851 LINE",
"112 658 LINE",
"30 658 LINE",
"30 421 LINE",
"112 421 LINE",
"112 0 LINE",
"356 0 LINE",
"356 421 LINE",
"446 421 LINE",
"507 421 OFFCURVE",
"565 429 OFFCURVE",
"622 445 CURVE",
"678 460 OFFCURVE",
"731 482 OFFCURVE",
"780 511 CURVE",
"829 540 OFFCURVE",
"873 574 OFFCURVE",
"914 615 CURVE",
"955 655 OFFCURVE",
"989 700 OFFCURVE",
"1018 749 CURVE",
"1047 798 OFFCURVE",
"1069 852 OFFCURVE",
"1085 909 CURVE",
"1101 966 OFFCURVE",
"1109 1026 OFFCURVE",
"1109 1088 CURVE",
"356 1088 LINE"
);
},
{
closed = 1;
nodes = (
"706 748 OFFCURVE",
"678 728 OFFCURVE",
"647 711 CURVE",
"616 694 OFFCURVE",
"584 681 OFFCURVE",
"550 672 CURVE",
"515 663 OFFCURVE",
"480 658 OFFCURVE",
"444 658 CURVE",
"356 658 LINE",
"356 851 LINE",
"798 851 LINE",
"779 822 OFFCURVE",
"756 795 OFFCURVE",
"731 772 CURVE"
);
}
);
width = 1139;
}
);
leftKerningGroup = B;
rightKerningGroup = H;
unicode = 00DE;
},
{
glyphname = Q;
lastChange = "2018-09-25 23:41:15 +0000";
layers = (
{
layerId = "6992DDD3-6ECA-4BF7-B654-AC36925D8FF8";
paths = (
{
closed = 1;
nodes = (
"684 1377 OFFCURVE",
"620 1368 OFFCURVE",
"559 1351 CURVE SMOOTH",
"498 1334 OFFCURVE",
"440 1310 OFFCURVE",
"387 1279 CURVE SMOOTH",
"334 1248 OFFCURVE",
"285 1210 OFFCURVE",
"241 1166 CURVE SMOOTH",
"197 1122 OFFCURVE",
"160 1074 OFFCURVE",
"129 1021 CURVE SMOOTH",
"98 968 OFFCURVE",
"73 910 OFFCURVE",
"56 849 CURVE SMOOTH",
"39 788 OFFCURVE",
"30 724 OFFCURVE",
"30 658 CURVE SMOOTH",
"30 569 OFFCURVE",
"45 484 OFFCURVE",
"76 404 CURVE SMOOTH",
"106 324 OFFCURVE",
"148 253 OFFCURVE",
"201 190 CURVE SMOOTH",
"254 127 OFFCURVE",
"317 74 OFFCURVE",
"390 32 CURVE SMOOTH",
"463 -11 OFFCURVE",
"542 -39 OFFCURVE",
"627 -54 CURVE",
"627 -230 LINE",
"868 -230 LINE",
"868 -54 LINE",
"953 -40 OFFCURVE",
"1033 -12 OFFCURVE",
"1107 30 CURVE SMOOTH",
"1180 72 OFFCURVE",
"1244 125 OFFCURVE",
"1298 188 CURVE SMOOTH",
"1352 251 OFFCURVE",
"1395 322 OFFCURVE",
"1426 403 CURVE SMOOTH",
"1457 483 OFFCURVE",
"1472 568 OFFCURVE",
"1472 658 CURVE SMOOTH",
"1472 724 OFFCURVE",
"1464 788 OFFCURVE",
"1447 849 CURVE SMOOTH",
"1430 910 OFFCURVE",
"1405 968 OFFCURVE",
"1374 1021 CURVE SMOOTH",
"1343 1074 OFFCURVE",
"1305 1122 OFFCURVE",
"1261 1166 CURVE SMOOTH",
"1217 1210 OFFCURVE",
"1168 1248 OFFCURVE",
"1115 1279 CURVE SMOOTH",
"1062 1310 OFFCURVE",
"1004 1334 OFFCURVE",
"943 1351 CURVE SMOOTH",
"882 1368 OFFCURVE",
"818 1377 OFFCURVE",
"751 1377 CURVE SMOOTH"
);
},
{
closed = 1;
nodes = (
"868 640 LINE",
"627 640 LINE",
"627 192 LINE",
"575 205 OFFCURVE",
"527 227 OFFCURVE",
"483 258 CURVE SMOOTH",
"439 288 OFFCURVE",
"401 324 OFFCURVE",
"370 365 CURVE SMOOTH",
"339 406 OFFCURVE",
"314 452 OFFCURVE",
"297 503 CURVE SMOOTH",
"279 553 OFFCURVE",
"270 605 OFFCURVE",
"270 658 CURVE SMOOTH",
"270 723 OFFCURVE",
"283 784 OFFCURVE",
"309 842 CURVE SMOOTH",
"334 900 OFFCURVE",
"369 951 OFFCURVE",
"413 994 CURVE SMOOTH",
"456 1037 OFFCURVE",
"507 1072 OFFCURVE",
"566 1098 CURVE SMOOTH",
"624 1123 OFFCURVE",
"686 1136 OFFCURVE",
"751 1136 CURVE SMOOTH",
"817 1136 OFFCURVE",
"879 1123 OFFCURVE",
"938 1098 CURVE SMOOTH",
"996 1073 OFFCURVE",
"1047 1038 OFFCURVE",
"1091 995 CURVE SMOOTH",
"1134 952 OFFCURVE",
"1169 901 OFFCURVE",
"1194 843 CURVE SMOOTH",
"1219 785 OFFCURVE",
"1231 723 OFFCURVE",
"1231 658 CURVE SMOOTH",
"1231 593 OFFCURVE",
"1219 531 OFFCURVE",
"1195 473 CURVE SMOOTH",
"1171 414 OFFCURVE",
"1136 363 OFFCURVE",
"1091 318 CURVE SMOOTH",
"1060 286 OFFCURVE",
"1025 259 OFFCURVE",
"988 238 CURVE SMOOTH",
"950 216 OFFCURVE",
"910 200 OFFCURVE",
"868 190 CURVE"
);
}
);
width = 1502;
}
);
leftKerningGroup = O;
rightKerningGroup = O;
unicode = 0051;
},
{
glyphname = R;
lastChange = "2018-09-25 23:41:15 +0000";
layers = (
{
layerId = "6992DDD3-6ECA-4BF7-B654-AC36925D8FF8";
paths = (
{
closed = 1;
nodes = (
"1140 471 OFFCURVE",
"1118 524 OFFCURVE",
"1089 573 CURVE",
"1060 622 OFFCURVE",
"1026 666 OFFCURVE",
"986 707 CURVE",
"956 737 OFFCURVE",
"924 765 OFFCURVE",
"889 789 CURVE",
"1048 906 OFFCURVE",
"1161 1108 OFFCURVE",
"1161 1325 CURVE",
"30 1326 LINE",
"30 1085 LINE",
"177 1085 LINE",
"177 903 LINE",
"104 903 LINE",
"104 665 LINE",
"177 665 LINE",
"177 0 LINE",
"418 0 LINE",
"419 665 LINE",
"513 665 LINE",
"570 665 OFFCURVE",
"625 654 OFFCURVE",
"676 633 CURVE",
"727 612 OFFCURVE",
"772 583 OFFCURVE",
"811 547 CURVE",
"850 510 OFFCURVE",
"881 468 OFFCURVE",
"904 419 CURVE",
"927 370 OFFCURVE",
"939 317 OFFCURVE",
"939 261 CURVE",
"939 0 LINE",
"1180 0 LINE",
"1180 239 LINE",
"1180 300 OFFCURVE",
"1171 358 OFFCURVE",
"1155 415 CURVE"
);
},
{
closed = 1;
nodes = (
"419 1085 LINE",
"849 1085 LINE",
"835 1064 OFFCURVE",
"818 1044 OFFCURVE",
"800 1026 CURVE",
"720 946 OFFCURVE",
"614 903 OFFCURVE",
"502 903 CURVE",
"419 903 LINE"
);
}
);
width = 1210;
}
);
leftKerningGroup = B;
rightKerningGroup = B;
unicode = 0052;
},
{
glyphname = S;
lastChange = "2018-09-25 23:41:15 +0000";
layers = (
{
layerId = "6992DDD3-6ECA-4BF7-B654-AC36925D8FF8";
paths = (
{
closed = 1;
nodes = (
"340 898 LINE",
"359 927 OFFCURVE",
"381 953 OFFCURVE",
"407 977 CURVE SMOOTH",
"432 1000 OFFCURVE",
"460 1020 OFFCURVE",
"491 1037 CURVE SMOOTH",
"521 1054 OFFCURVE",
"553 1067 OFFCURVE",
"588 1076 CURVE SMOOTH",
"622 1085 OFFCURVE",
"658 1089 OFFCURVE",
"695 1089 CURVE SMOOTH",
"1029 1089 LINE",
"1029 1327 LINE",
"692 1327 LINE SMOOTH",
"631 1326 OFFCURVE",
"572 1318 OFFCURVE",
"516 1303 CURVE SMOOTH",
"459 1287 OFFCURVE",
"407 1265 OFFCURVE",
"358 1236 CURVE SMOOTH",
"309 1207 OFFCURVE",
"264 1173 OFFCURVE",
"224 1133 CURVE SMOOTH",
"184 1092 OFFCURVE",
"150 1048 OFFCURVE",
"121 999 CURVE SMOOTH",
"92 950 OFFCURVE",
"70 897 OFFCURVE",
"54 840 CURVE SMOOTH",
"38 783 OFFCURVE",
"30 724 OFFCURVE",
"30 663 CURVE SMOOTH",
"30 660 LINE",
"790 658 LINE",
"789 600 OFFCURVE",
"777 546 OFFCURVE",
"755 495 CURVE SMOOTH",
"732 444 OFFCURVE",
"702 399 OFFCURVE",
"664 361 CURVE SMOOTH",
"626 323 OFFCURVE",
"581 293 OFFCURVE",
"530 271 CURVE SMOOTH",
"479 249 OFFCURVE",
"424 238 OFFCURVE",
"365 238 CURVE SMOOTH",
"30 238 LINE",
"30 0 LINE",
"372 0 LINE SMOOTH",
"432 1 OFFCURVE",
"490 9 OFFCURVE",
"546 25 CURVE SMOOTH",
"602 41 OFFCURVE",
"654 63 OFFCURVE",
"703 92 CURVE SMOOTH",
"752 121 OFFCURVE",
"796 155 OFFCURVE",
"836 195 CURVE SMOOTH",
"876 235 OFFCURVE",
"910 280 OFFCURVE",
"939 329 CURVE SMOOTH",
"968 378 OFFCURVE",
"990 430 OFFCURVE",
"1006 487 CURVE SMOOTH",
"1021 543 OFFCURVE",
"1029 602 OFFCURVE",
"1029 663 CURVE SMOOTH",
"1029 897 LINE"
);
}
);
width = 1059;
}
);
leftKerningGroup = S;
rightKerningGroup = S;
unicode = 0053;
},
{
glyphname = Schwa;
lastChange = "2018-09-25 23:41:15 +0000";
layers = (
{
layerId = "6992DDD3-6ECA-4BF7-B654-AC36925D8FF8";
paths = (
{
closed = 1;
nodes = (
"940 672 OFFCURVE",
"931 736 OFFCURVE",
"914 797 CURVE",
"897 858 OFFCURVE",
"872 916 OFFCURVE",
"841 969 CURVE",
"810 1022 OFFCURVE",
"772 1071 OFFCURVE",
"728 1115 CURVE",
"684 1159 OFFCURVE",
"635 1196 OFFCURVE",
"582 1227 CURVE",
"529 1258 OFFCURVE",
"471 1283 OFFCURVE",
"410 1300 CURVE",
"359 1314 OFFCURVE",
"306 1323 OFFCURVE",
"251 1325 CURVE",
"251 1327 LINE",
"39 1327 LINE",
"39 1087 LINE",
"219 1087 LINE",
"285 1087 OFFCURVE",
"347 1074 OFFCURVE",
"405 1048 CURVE",
"464 1023 OFFCURVE",
"515 988 OFFCURVE",
"558 944 CURVE",
"584 918 OFFCURVE",
"607 888 OFFCURVE",
"627 856 CURVE",
"604 852 OFFCURVE",
"581 847 OFFCURVE",
"559 841 CURVE",
"498 824 OFFCURVE",
"440 799 OFFCURVE",
"387 768 CURVE",
"334 737 OFFCURVE",
"285 699 OFFCURVE",
"241 655 CURVE",
"197 611 OFFCURVE",
"160 562 OFFCURVE",
"129 509 CURVE",
"98 456 OFFCURVE",
"73 398 OFFCURVE",
"56 337 CURVE",
"47 305 OFFCURVE",
"41 273 OFFCURVE",
"36 240 CURVE",
"32 209 OFFCURVE",
"30 178 OFFCURVE",
"30 146 CURVE",
"30 0 LINE",
"1076 0 LINE",
"1076 240 LINE",
"940 240 LINE"
);
},
{
closed = 1;
nodes = (
"333 391 OFFCURVE",
"368 442 OFFCURVE",
"412 485 CURVE",
"455 528 OFFCURVE",
"506 563 OFFCURVE",
"565 588 CURVE",
"608 606 OFFCURVE",
"652 618 OFFCURVE",
"698 623 CURVE",
"699 617 OFFCURVE",
"699 612 OFFCURVE",
"699 606 CURVE",
"699 240 LINE",
"279 240 LINE",
"285 272 OFFCURVE",
"295 302 OFFCURVE",
"308 332 CURVE"
);
}
);
width = 1106;
}
);
leftKerningGroup = M;
note = uni018F;
rightKerningGroup = E;
unicode = 018F;
},
{
glyphname = T;
lastChange = "2018-09-25 23:41:15 +0000";
layers = (
{
layerId = "6992DDD3-6ECA-4BF7-B654-AC36925D8FF8";
paths = (
{
closed = 1;
nodes = (
"1363 1326 LINE",
"30 1326 LINE",
"30 1085 LINE",
"576 1085 LINE",
"576 994 LINE",
"363 994 LINE",
"363 753 LINE",
"576 753 LINE",
"576 0 LINE",
"817 0 LINE",
"817 753 LINE",
"1030 753 LINE",
"1030 994 LINE",
"817 994 LINE",
"817 1085 LINE",
"1363 1085 LINE"
);
}
);
width = 1393;
}
);
leftKerningGroup = T;
rightKerningGroup = T;
unicode = 0054;
},
{
glyphname = Tcedilla;
lastChange = "2018-09-25 23:41:15 +0000";
layers = (
{
components = (
{
alignment = -1;
name = T;
}
);
layerId = "6992DDD3-6ECA-4BF7-B654-AC36925D8FF8";
paths = (
{
closed = 1;
nodes = (
"339 -230 LINE",
"623 -230 LINE",
"798 36 LINE",
"691 98 LINE"
);
}
);
width = 1393;
}
);
leftKerningGroup = T;
note = uni0162;
rightKerningGroup = T;
unicode = 0162;
},
{
glyphname = U;
lastChange = "2018-09-25 23:41:15 +0000";
layers = (
{
layerId = "6992DDD3-6ECA-4BF7-B654-AC36925D8FF8";
paths = (
{
closed = 1;
nodes = (
"1124 603 LINE",
"1124 487 OFFCURVE",
"1080 381 OFFCURVE",
"999 301 CURVE",
"918 220 OFFCURVE",
"811 176 OFFCURVE",
"697 176 CURVE",
"583 176 OFFCURVE",
"476 220 OFFCURVE",
"395 301 CURVE",
"314 381 OFFCURVE",
"270 490 OFFCURVE",
"270 606 CURVE",
"270 1321 LINE",
"31 1321 LINE",
"30 603 LINE",
"30 235 OFFCURVE",
"329 -64 OFFCURVE",
"697 -64 CURVE",
"1065 -64 OFFCURVE",
"1364 235 OFFCURVE",
"1364 603 CURVE",
"1364 1321 LINE",
"1124 1321 LINE"
);
}
);
width = 1394;
}
);
leftKerningGroup = M;
rightKerningGroup = M;
unicode = 0055;
},
{
glyphname = Uhorn;
lastChange = "2018-09-25 23:41:15 +0000";
layers = (
{
layerId = "6992DDD3-6ECA-4BF7-B654-AC36925D8FF8";
paths = (
{
closed = 1;
nodes = (
"1455 1293 LINE",
"1459 1290 OFFCURVE",
"1464 1285 OFFCURVE",
"1466 1282 CURVE",
"1473 1273 OFFCURVE",
"1480 1258 OFFCURVE",
"1477 1239 CURVE",
"1474 1220 OFFCURVE",
"1464 1207 OFFCURVE",
"1455 1201 CURVE",
"1445 1195 OFFCURVE",
"1431 1188 OFFCURVE",
"1413 1190 CURVE",
"1393 1193 OFFCURVE",
"1381 1204 OFFCURVE",
"1374 1213 CURVE",
"1370 1218 OFFCURVE",
"1366 1226 OFFCURVE",
"1364 1235 CURVE",
"1364 1321 LINE",
"1124 1321 LINE",
"1124 603 LINE",
"1124 487 OFFCURVE",
"1080 381 OFFCURVE",
"999 301 CURVE",
"918 220 OFFCURVE",
"811 176 OFFCURVE",
"697 176 CURVE",
"583 176 OFFCURVE",
"476 220 OFFCURVE",
"395 301 CURVE",
"314 381 OFFCURVE",
"270 490 OFFCURVE",
"270 606 CURVE",
"270 1321 LINE",
"31 1321 LINE",
"30 603 LINE",
"30 235 OFFCURVE",
"329 -64 OFFCURVE",
"697 -64 CURVE",
"1065 -64 OFFCURVE",
"1364 235 OFFCURVE",
"1364 603 CURVE",
"1364 957 LINE",
"1369 956 OFFCURVE",
"1373 956 OFFCURVE",
"1378 955 CURVE",
"1539 931 OFFCURVE",
"1689 1043 OFFCURVE",
"1713 1204 CURVE",
"1719 1245 OFFCURVE",
"1716 1283 OFFCURVE",
"1706 1320 CURVE"
);
}
);
width = 1746;
}
);
leftKerningGroup = M;
rightKerningGroup = T;
unicode = 01AF;
},
{
glyphname = V;
lastChange = "2018-09-25 23:41:15 +0000";
layers = (
{
layerId = "6992DDD3-6ECA-4BF7-B654-AC36925D8FF8";
paths = (
{
closed = 1;
nodes = (
"878 648 LINE",
"876 591 OFFCURVE",
"864 537 OFFCURVE",
"841 487 CURVE",
"818 437 OFFCURVE",
"787 394 OFFCURVE",
"749 357 CURVE",
"711 320 OFFCURVE",
"667 290 OFFCURVE",
"616 269 CURVE",
"565 247 OFFCURVE",
"511 236 OFFCURVE",
"453 236 CURVE",
"360 236 LINE",
"360 1088 LINE",
"569 1088 LINE",
"569 1327 LINE",
"30 1327 LINE",
"30 1088 LINE",
"122 1088 LINE",
"122 0 LINE",
"462 0 LINE",
"522 1 OFFCURVE",
"580 9 OFFCURVE",
"636 25 CURVE",
"692 41 OFFCURVE",
"744 63 OFFCURVE",
"793 92 CURVE",
"841 121 OFFCURVE",
"885 155 OFFCURVE",
"925 195 CURVE",
"965 235 OFFCURVE",
"999 280 OFFCURVE",
"1028 329 CURVE",
"1056 378 OFFCURVE",
"1078 430 OFFCURVE",
"1094 487 CURVE",
"1109 543 OFFCURVE",
"1117 602 OFFCURVE",
"1117 663 CURVE",
"1117 1327 LINE",
"878 1327 LINE"
);
}
);
width = 1147;
}
);
leftKerningGroup = E;
rightKerningGroup = S;
unicode = 0056;
},
{
glyphname = W;
lastChange = "2018-09-25 23:41:15 +0000";
layers = (
{
layerId = "6992DDD3-6ECA-4BF7-B654-AC36925D8FF8";
paths = (
{
closed = 1;
nodes = (
"1119 1327 LINE",
"1119 253 LINE",
"1074 265 OFFCURVE",
"1033 284 OFFCURVE",
"995 310 CURVE SMOOTH",
"957 336 OFFCURVE",
"924 367 OFFCURVE",
"897 403 CURVE SMOOTH",
"869 439 OFFCURVE",
"847 479 OFFCURVE",
"832 523 CURVE SMOOTH",
"816 567 OFFCURVE",
"808 614 OFFCURVE",
"808 663 CURVE",
"569 663 LINE",
"567 663 LINE",
"567 614 OFFCURVE",
"560 568 OFFCURVE",
"545 525 CURVE SMOOTH",
"530 481 OFFCURVE",
"509 441 OFFCURVE",
"482 405 CURVE SMOOTH",
"455 369 OFFCURVE",
"423 338 OFFCURVE",
"386 312 CURVE SMOOTH",
"349 286 OFFCURVE",
"308 266 OFFCURVE",
"264 253 CURVE",
"269 1327 LINE",
"30 1327 LINE",
"30 0 LINE",
"151 0 LINE",
"204 2 OFFCURVE",
"257 10 OFFCURVE",
"309 25 CURVE SMOOTH",
"360 39 OFFCURVE",
"409 58 OFFCURVE",
"456 83 CURVE SMOOTH",
"503 108 OFFCURVE",
"546 137 OFFCURVE",
"586 171 CURVE SMOOTH",
"625 204 OFFCURVE",
"659 242 OFFCURVE",
"688 283 CURVE",
"717 240 OFFCURVE",
"752 201 OFFCURVE",
"792 166 CURVE SMOOTH",
"831 131 OFFCURVE",
"874 102 OFFCURVE",
"921 77 CURVE SMOOTH",
"967 52 OFFCURVE",
"1016 33 OFFCURVE",
"1069 20 CURVE SMOOTH",
"1122 7 OFFCURVE",
"1176 0 OFFCURVE",
"1231 0 CURVE SMOOTH",
"1357 0 LINE",
"1357 1327 LINE"
);
}
);
width = 1387;
}
);
leftKerningGroup = M;
rightKerningGroup = M;
unicode = 0057;
},
{
glyphname = X;
lastChange = "2018-09-25 23:41:15 +0000";
layers = (
{
layerId = "6992DDD3-6ECA-4BF7-B654-AC36925D8FF8";
paths = (
{
closed = 1;
nodes = (
"809 719 LINE",
"1057 816 OFFCURVE",
"1233 1044 OFFCURVE",
"1233 1327 CURVE",
"993 1327 LINE",
"993 1212 OFFCURVE",
"949 1119 OFFCURVE",
"868 1039 CURVE",
"813 983 OFFCURVE",
"745 945 OFFCURVE",
"672 927 CURVE",
"407 1327 LINE",
"30 1327 LINE",
"30 1087 LINE",
"272 1087 LINE",
"423 865 LINE",
"191 762 OFFCURVE",
"30 530 OFFCURVE",
"30 256 CURVE",
"31 0 LINE",
"271 0 LINE",
"271 256 LINE",
"270 256 LINE",
"270 438 OFFCURVE",
"383 593 OFFCURVE",
"543 655 CURVE",
"562 662 LINE",
"998 0 LINE",
"1217 0 LINE",
"1217 240 LINE",
"1126 240 LINE"
);
}
);
width = 1263;
}
);
leftKerningGroup = M;
rightKerningGroup = X;
unicode = 0058;
},
{
glyphname = Y;
lastChange = "2018-09-25 23:41:15 +0000";
layers = (
{
layerId = "6992DDD3-6ECA-4BF7-B654-AC36925D8FF8";
paths = (
{
closed = 1;
nodes = (
"30 1005 OFFCURVE",
"262 732 OFFCURVE",
"573 675 CURVE",
"573 0 LINE",
"813 0 LINE",
"813 674 LINE",
"1125 730 OFFCURVE",
"1359 1003 OFFCURVE",
"1359 1331 CURVE",
"1119 1331 LINE",
"1119 1215 OFFCURVE",
"1077 1109 OFFCURVE",
"996 1028 CURVE SMOOTH",
"916 948 OFFCURVE",
"809 903 OFFCURVE",
"695 903 CURVE SMOOTH",
"580 903 OFFCURVE",
"473 948 OFFCURVE",
"393 1028 CURVE SMOOTH",
"312 1109 OFFCURVE",
"270 1215 OFFCURVE",
"270 1331 CURVE",
"30 1331 LINE"
);
}
);
width = 1389;
}
);
leftKerningGroup = Y;
rightKerningGroup = Y;
unicode = 0059;
},
{
glyphname = Z;
lastChange = "2018-09-25 23:41:15 +0000";
layers = (
{
layerId = "6992DDD3-6ECA-4BF7-B654-AC36925D8FF8";
paths = (
{
closed = 1;
nodes = (
"1031 0 LINE",
"1031 454 LINE",
"793 454 LINE",
"793 240 LINE",
"328 240 LINE",
"1036 1312 LINE",
"1036 1327 LINE",
"30 1327 LINE",
"30 884 LINE",
"270 883 LINE",
"270 1087 LINE",
"603 1087 LINE",
"30 225 LINE",
"30 0 LINE"
);
}
);
width = 1066;
}
);
leftKerningGroup = M;
rightKerningGroup = Z;
unicode = 005A;
},
{
glyphname = a;
lastChange = "2018-09-25 07:06:48 +0000";
layers = (
{
layerId = "6992DDD3-6ECA-4BF7-B654-AC36925D8FF8";
paths = (
{
closed = 1;
nodes = (
"955 994 LINE",
"30 994 LINE",
"30 753 LINE",
"640 753 LINE",
"640 683 LINE",
"30 683 LINE",
"30 448 LINE",
"30 382 OFFCURVE",
"44 326 OFFCURVE",
"69 272 CURVE",
"96 218 OFFCURVE",
"131 170 OFFCURVE",
"175 130 CURVE",
"219 90 OFFCURVE",
"270 57 OFFCURVE",
"328 34 CURVE",
"385 11 OFFCURVE",
"446 0 OFFCURVE",
"509 0 CURVE",
"881 0 LINE",
"881 753 LINE",
"955 753 LINE"
);
},
{
closed = 1;
nodes = (
"476 241 OFFCURVE",
"446 247 OFFCURVE",
"416 259 CURVE",
"387 272 OFFCURVE",
"362 289 OFFCURVE",
"341 311 CURVE",
"320 332 OFFCURVE",
"302 357 OFFCURVE",
"290 386 CURVE",
"282 404 OFFCURVE",
"277 423 OFFCURVE",
"274 442 CURVE",
"640 442 LINE",
"640 241 LINE",
"509 241 LINE"
);
}
);
width = 985;
}
);
leftKerningGroup = a;
rightKerningGroup = a;
unicode = 0061;
},
{
glyphname = amacron;
lastChange = "2018-09-25 02:49:17 +0000";
layers = (
{
components = (
{
alignment = -1;
name = a;
transform = "{1, 0, 0, 1, 10, 0}";
}
);
layerId = "6992DDD3-6ECA-4BF7-B654-AC36925D8FF8";
paths = (
{
closed = 1;
nodes = (
"953 1089 LINE",
"953 1327 LINE",
"30 1327 LINE",
"30 1089 LINE"
);
}
);
width = 995;
}
);
leftKerningGroup = a;
rightKerningGroup = a;
unicode = 0101;
},
{
glyphname = ae;
lastChange = "2018-09-25 02:49:17 +0000";
layers = (
{
layerId = "6992DDD3-6ECA-4BF7-B654-AC36925D8FF8";
paths = (
{
closed = 1;
nodes = (
"30 994 LINE",
"30 753 LINE",
"640 753 LINE",
"640 683 LINE",
"30 683 LINE",
"30 448 LINE",
"30 382 OFFCURVE",
"44 326 OFFCURVE",
"69 272 CURVE",
"96 218 OFFCURVE",
"131 170 OFFCURVE",
"175 130 CURVE",
"219 90 OFFCURVE",
"270 57 OFFCURVE",
"328 34 CURVE",
"385 11 OFFCURVE",
"446 0 OFFCURVE",
"509 0 CURVE",
"881 0 LINE",
"881 61 LINE",
"899 51 OFFCURVE",
"918 42 OFFCURVE",
"938 34 CURVE",
"995 11 OFFCURVE",
"1056 0 OFFCURVE",
"1119 0 CURVE",
"1417 0 LINE",
"1417 241 LINE",
"1119 241 LINE",
"1086 241 OFFCURVE",
"1056 247 OFFCURVE",
"1026 259 CURVE",
"997 273 OFFCURVE",
"972 290 OFFCURVE",
"951 311 CURVE",
"930 332 OFFCURVE",
"913 357 OFFCURVE",
"900 386 CURVE",
"892 404 OFFCURVE",
"887 423 OFFCURVE",
"884 442 CURVE",
"1012 442 LINE",
"1076 442 OFFCURVE",
"1136 453 OFFCURVE",
"1194 476 CURVE",
"1251 499 OFFCURVE",
"1303 532 OFFCURVE",
"1346 572 CURVE",
"1390 612 OFFCURVE",
"1426 660 OFFCURVE",
"1452 714 CURVE",
"1478 769 OFFCURVE",
"1491 827 OFFCURVE",
"1491 890 CURVE",
"1491 994 LINE"
);
},
{
closed = 1;
nodes = (
"509 241 LINE",
"476 241 OFFCURVE",
"446 247 OFFCURVE",
"416 259 CURVE",
"387 272 OFFCURVE",
"362 289 OFFCURVE",
"341 311 CURVE",
"320 332 OFFCURVE",
"302 357 OFFCURVE",
"290 386 CURVE",
"282 404 OFFCURVE",
"277 423 OFFCURVE",
"274 442 CURVE",
"640 442 LINE",
"640 241 LINE"
);
},
{
closed = 1;
nodes = (
"1076 689 OFFCURVE",
"1045 683 OFFCURVE",
"1012 683 CURVE",
"881 683 LINE",
"881 753 LINE",
"1181 753 LINE",
"1162 734 OFFCURVE",
"1130 713 OFFCURVE",
"1105 701 CURVE"
);
}
);
width = 1521;
}
);
leftKerningGroup = a;
rightKerningGroup = a;
unicode = 00E6;
},
{
glyphname = b;
lastChange = "2018-09-25 07:09:32 +0000";
layers = (
{
layerId = "6992DDD3-6ECA-4BF7-B654-AC36925D8FF8";
paths = (
{
closed = 1;
nodes = (
"639 440 OFFCURVE",
"633 413 OFFCURVE",
"621 386 CURVE",
"609 357 OFFCURVE",
"592 332 OFFCURVE",
"570 311 CURVE",
"549 289 OFFCURVE",
"524 272 OFFCURVE",
"495 259 CURVE",
"465 247 OFFCURVE",
"435 241 OFFCURVE",
"402 241 CURVE",
"271 241 LINE",
"271 753 LINE",
"640 753 LINE",
"640 470 LINE"
);
},
{
closed = 1;
nodes = (
"881 994 LINE",
"271 994 LINE",
"271 1326 LINE",
"30 1326 LINE",
"30 0 LINE",
"402 0 LINE",
"465 0 OFFCURVE",
"526 11 OFFCURVE",
"583 34 CURVE",
"641 57 OFFCURVE",
"692 90 OFFCURVE",
"736 130 CURVE",
"780 170 OFFCURVE",
"815 218 OFFCURVE",
"842 272 CURVE",
"867 325 OFFCURVE",
"880 382 OFFCURVE",
"881 442 CURVE"
);
}
);
width = 911;
}
);
leftKerningGroup = h;
rightKerningGroup = s;
unicode = 0062;
},
{
glyphname = c;
lastChange = "2018-09-25 07:07:09 +0000";
layers = (
{
layerId = "6992DDD3-6ECA-4BF7-B654-AC36925D8FF8";
paths = (
{
closed = 1;
nodes = (
"789 335 OFFCURVE",
"774 315 OFFCURVE",
"756 296 CURVE",
"702 243 OFFCURVE",
"631 213 OFFCURVE",
"555 213 CURVE",
"479 213 OFFCURVE",
"408 243 OFFCURVE",
"354 296 CURVE",
"301 350 OFFCURVE",
"271 421 OFFCURVE",
"271 497 CURVE",
"271 573 OFFCURVE",
"301 644 OFFCURVE",
"354 698 CURVE",
"408 751 OFFCURVE",
"479 781 OFFCURVE",
"555 781 CURVE",
"574 781 OFFCURVE",
"593 779 OFFCURVE",
"611 775 CURVE",
"611 668 LINE",
"852 668 LINE",
"852 930 LINE",
"767 988 OFFCURVE",
"665 1022 OFFCURVE",
"555 1022 CURVE",
"265 1022 OFFCURVE",
"30 787 OFFCURVE",
"30 497 CURVE",
"30 207 OFFCURVE",
"265 -28 OFFCURVE",
"555 -28 CURVE",
"675 -28 OFFCURVE",
"785 12 OFFCURVE",
"873 80 CURVE",
"802 356 LINE"
);
}
);
width = 903;
}
);
leftKerningGroup = o;
rightKerningGroup = c;
unicode = 0063;
},
{
glyphname = d;
lastChange = "2018-09-25 07:16:59 +0000";
layers = (
{
layerId = "6992DDD3-6ECA-4BF7-B654-AC36925D8FF8";
paths = (
{
closed = 1;
nodes = (
"476 241 OFFCURVE",
"446 247 OFFCURVE",
"417 259 CURVE",
"387 272 OFFCURVE",
"362 289 OFFCURVE",
"341 311 CURVE",
"320 332 OFFCURVE",
"303 357 OFFCURVE",
"290 386 CURVE",
"279 413 OFFCURVE",
"272 440 OFFCURVE",
"271 470 CURVE",
"271 753 LINE",
"402 753 LINE",
"435 753 OFFCURVE",
"466 747 OFFCURVE",
"495 734 CURVE",
"524 722 OFFCURVE",
"549 705 OFFCURVE",
"570 684 CURVE",
"592 662 OFFCURVE",
"609 637 OFFCURVE",
"622 608 CURVE",
"633 581 OFFCURVE",
"639 554 OFFCURVE",
"640 524 CURVE",
"640 241 LINE",
"509 241 LINE"
);
},
{
closed = 1;
nodes = (
"640 938 LINE",
"630 944 OFFCURVE",
"619 950 OFFCURVE",
"609 955 CURVE",
"554 981 OFFCURVE",
"496 994 OFFCURVE",
"433 994 CURVE",
"30 994 LINE",
"30 448 LINE",
"31 382 OFFCURVE",
"43 326 OFFCURVE",
"70 272 CURVE",
"96 218 OFFCURVE",
"131 170 OFFCURVE",
"175 130 CURVE",
"219 90 OFFCURVE",
"270 57 OFFCURVE",
"328 34 CURVE",
"385 11 OFFCURVE",
"446 0 OFFCURVE",
"509 0 CURVE",
"881 0 LINE",
"881 1326 LINE",
"640 1326 LINE"
);
}
);
width = 911;
}
);
leftKerningGroup = m;
rightKerningGroup = d;
unicode = 0064;
},
{
glyphname = eth;
lastChange = "2018-09-25 02:49:17 +0000";
layers = (
{
layerId = "6992DDD3-6ECA-4BF7-B654-AC36925D8FF8";
paths = (
{
closed = 1;
nodes = (
"881 1266 LINE",
"881 1326 LINE",
"640 1326 LINE",
"640 1266 LINE",
"566 1266 LINE",
"566 1025 LINE",
"640 1025 LINE",
"640 938 LINE",
"630 944 OFFCURVE",
"619 950 OFFCURVE",
"609 955 CURVE",
"554 981 OFFCURVE",
"496 994 OFFCURVE",
"433 994 CURVE",
"30 994 LINE",
"30 448 LINE",
"31 382 OFFCURVE",
"43 326 OFFCURVE",
"70 272 CURVE",
"96 218 OFFCURVE",
"131 170 OFFCURVE",
"175 130 CURVE",
"219 90 OFFCURVE",
"270 57 OFFCURVE",
"328 34 CURVE",
"385 11 OFFCURVE",
"446 0 OFFCURVE",
"509 0 CURVE",
"881 0 LINE",
"881 1025 LINE",
"955 1025 LINE",
"955 1266 LINE"
);
},
{
closed = 1;
nodes = (
"509 241 LINE",
"476 241 OFFCURVE",
"446 247 OFFCURVE",
"417 259 CURVE",
"387 272 OFFCURVE",
"362 289 OFFCURVE",
"341 311 CURVE",
"320 332 OFFCURVE",
"303 357 OFFCURVE",
"290 386 CURVE",
"279 413 OFFCURVE",
"272 440 OFFCURVE",
"271 470 CURVE",
"271 753 LINE",
"402 753 LINE",
"435 753 OFFCURVE",
"466 747 OFFCURVE",
"495 734 CURVE",
"524 722 OFFCURVE",
"549 705 OFFCURVE",
"570 684 CURVE",
"592 662 OFFCURVE",
"609 637 OFFCURVE",
"622 608 CURVE",
"633 581 OFFCURVE",
"639 554 OFFCURVE",
"640 524 CURVE",
"640 241 LINE"
);
}
);
width = 985;
}
);
leftKerningGroup = m;
rightKerningGroup = a;
unicode = 00F0;
},
{
glyphname = e;
lastChange = "2018-09-25 22:49:01 +0000";
layers = (
{
layerId = "6992DDD3-6ECA-4BF7-B654-AC36925D8FF8";
paths = (
{
closed = 1;
nodes = (
"970 994 LINE",
"30 994 LINE",
"30 753 LINE",
"178 753 LINE",
"178 683 LINE",
"104 683 LINE",
"104 442 LINE",
"178 442 LINE",
"179 382 OFFCURVE",
"192 325 OFFCURVE",
"217 273 CURVE",
"244 218 OFFCURVE",
"279 171 OFFCURVE",
"323 130 CURVE",
"367 90 OFFCURVE",
"418 58 OFFCURVE",
"476 35 CURVE",
"533 11 OFFCURVE",
"594 0 OFFCURVE",
"657 0 CURVE",
"955 0 LINE",
"955 241 LINE",
"657 241 LINE",
"624 241 OFFCURVE",
"594 247 OFFCURVE",
"564 259 CURVE",
"535 273 OFFCURVE",
"510 290 OFFCURVE",
"489 311 CURVE",
"467 332 OFFCURVE",
"450 357 OFFCURVE",
"438 387 CURVE",
"430 405 OFFCURVE",
"425 423 OFFCURVE",
"422 442 CURVE",
"550 442 LINE",
"613 442 OFFCURVE",
"674 453 OFFCURVE",
"731 476 CURVE",
"789 499 OFFCURVE",
"840 532 OFFCURVE",
"884 572 CURVE",
"928 612 OFFCURVE",
"963 660 OFFCURVE",
"990 714 CURVE",
"1016 769 OFFCURVE",
"1029 827 OFFCURVE",
"1029 890 CURVE",
"1029 994 LINE",
"997 994 LINE"
);
},
{
closed = 1;
nodes = (
"613 689 OFFCURVE",
"583 683 OFFCURVE",
"550 683 CURVE",
"419 683 LINE",
"419 753 LINE",
"719 753 LINE",
"719 753 OFFCURVE",
"719 753 OFFCURVE",
"718 753 CURVE",
"697 731 OFFCURVE",
"672 714 OFFCURVE",
"643 701 CURVE"
);
}
);
width = 1059;
}
);
leftKerningGroup = e;
rightKerningGroup = e;
unicode = 0065;
},
{
glyphname = emacron;
lastChange = "2018-09-25 02:49:17 +0000";
layers = (
{
components = (
{
alignment = -1;
name = e;
transform = "{1, 0, 0, 1, 10, 0}";
}
);
layerId = "6992DDD3-6ECA-4BF7-B654-AC36925D8FF8";
paths = (
{
closed = 1;
nodes = (
"1029 1089 LINE",
"1029 1327 LINE",
"30 1327 LINE",
"30 1089 LINE"
);
}
);
width = 1069;
}
);
leftKerningGroup = e;
rightKerningGroup = e;
unicode = 0113;
},
{
glyphname = f;
lastChange = "2018-09-25 07:06:37 +0000";
layers = (
{
layerId = "6992DDD3-6ECA-4BF7-B654-AC36925D8FF8";
paths = (
{
closed = 1;
nodes = (
"412 1085 OFFCURVE",
"416 1084 OFFCURVE",
"419 1084 CURVE",
"480 1317 LINE",
"457 1323 OFFCURVE",
"433 1326 OFFCURVE",
"408 1326 CURVE",
"240 1326 OFFCURVE",
"104 1190 OFFCURVE",
"104 1022 CURVE",
"104 994 LINE",
"30 994 LINE",
"30 753 LINE",
"104 753 LINE",
"104 0 LINE",
"345 0 LINE",
"345 753 LINE",
"419 753 LINE",
"419 994 LINE",
"345 994 LINE",
"345 1022 LINE",
"345 1044 OFFCURVE",
"355 1058 OFFCURVE",
"364 1066 CURVE",
"372 1075 OFFCURVE",
"387 1085 OFFCURVE",
"408 1085 CURVE"
);
}
);
width = 510;
}
);
leftKerningGroup = f;
rightKerningGroup = f;
unicode = 0066;
},
{
glyphname = g;
lastChange = "2018-09-25 07:09:36 +0000";
layers = (
{
layerId = "6992DDD3-6ECA-4BF7-B654-AC36925D8FF8";
paths = (
{
closed = 1;
nodes = (
"906 20 OFFCURVE",
"830 109 OFFCURVE",
"646 109 CURVE",
"331 109 LINE",
"314 109 OFFCURVE",
"300 115 OFFCURVE",
"290 127 CURVE",
"279 139 OFFCURVE",
"274 153 OFFCURVE",
"274 168 CURVE",
"274 183 OFFCURVE",
"278 196 OFFCURVE",
"287 207 CURVE",
"296 218 OFFCURVE",
"308 225 OFFCURVE",
"321 226 CURVE",
"323 226 OFFCURVE",
"326 226 OFFCURVE",
"328 226 CURVE",
"382 199 OFFCURVE",
"444 184 OFFCURVE",
"508 184 CURVE",
"732 184 OFFCURVE",
"913 365 OFFCURVE",
"913 589 CURVE",
"913 647 OFFCURVE",
"901 703 OFFCURVE",
"879 753 CURVE",
"914 753 LINE",
"914 994 LINE",
"673 994 LINE",
"673 959 LINE",
"623 982 OFFCURVE",
"567 994 OFFCURVE",
"508 994 CURVE",
"285 994 OFFCURVE",
"103 813 OFFCURVE",
"103 589 CURVE",
"103 522 OFFCURVE",
"119 460 OFFCURVE",
"148 404 CURVE",
"115 377 OFFCURVE",
"83 340 OFFCURVE",
"62 300 CURVE",
"41 260 OFFCURVE",
"30 216 OFFCURVE",
"30 168 CURVE",
"30 127 OFFCURVE",
"38 89 OFFCURVE",
"54 52 CURVE",
"70 16 OFFCURVE",
"92 -16 OFFCURVE",
"119 -43 CURVE",
"146 -70 OFFCURVE",
"178 -91 OFFCURVE",
"215 -107 CURVE",
"251 -123 OFFCURVE",
"290 -131 OFFCURVE",
"331 -131 CURVE",
"628 -131 LINE",
"656 -131 OFFCURVE",
"684 -136 OFFCURVE",
"712 -147 CURVE",
"739 -157 OFFCURVE",
"765 -171 OFFCURVE",
"788 -190 CURVE",
"811 -209 OFFCURVE",
"830 -231 OFFCURVE",
"846 -256 CURVE",
"861 -279 OFFCURVE",
"871 -304 OFFCURVE",
"876 -331 CURVE",
"956 -24 LINE",
"952 -21 OFFCURVE",
"948 -17 OFFCURVE",
"944 -14 CURVE"
);
},
{
closed = 1;
nodes = (
"424 736 OFFCURVE",
"465 753 OFFCURVE",
"508 753 CURVE",
"552 753 OFFCURVE",
"593 736 OFFCURVE",
"624 705 CURVE",
"655 674 OFFCURVE",
"672 633 OFFCURVE",
"672 589 CURVE",
"672 545 OFFCURVE",
"655 504 OFFCURVE",
"624 473 CURVE",
"593 442 OFFCURVE",
"552 425 OFFCURVE",
"508 425 CURVE",
"465 425 OFFCURVE",
"424 442 OFFCURVE",
"393 473 CURVE",
"362 504 OFFCURVE",
"345 545 OFFCURVE",
"345 589 CURVE",
"345 633 OFFCURVE",
"362 674 OFFCURVE",
"393 705 CURVE"
);
}
);
width = 986;
}
);
leftKerningGroup = g;
rightKerningGroup = g;
unicode = 0067;
},
{
glyphname = h;
lastChange = "2018-09-25 09:38:33 +0000";
layers = (
{
layerId = "6992DDD3-6ECA-4BF7-B654-AC36925D8FF8";
paths = (
{
closed = 1;
nodes = (
"509 995 LINE",
"446 995 OFFCURVE",
"385 984 OFFCURVE",
"328 960 CURVE",
"308 953 OFFCURVE",
"289 944 OFFCURVE",
"271 934 CURVE",
"271 1326 LINE",
"30 1326 LINE",
"30 0 LINE",
"271 0 LINE",
"271 525 LINE",
"272 555 OFFCURVE",
"278 582 OFFCURVE",
"290 608 CURVE",
"302 638 OFFCURVE",
"319 663 OFFCURVE",
"341 684 CURVE",
"362 705 OFFCURVE",
"387 722 OFFCURVE",
"416 736 CURVE",
"446 748 OFFCURVE",
"476 754 OFFCURVE",
"509 754 CURVE",
"640 754 LINE",
"640 0 LINE",
"881 0 LINE",
"881 994 LINE",
"881 995 LINE"
);
}
);
width = 911;
}
);
leftKerningGroup = h;
rightKerningGroup = m;
unicode = 0068;
},
{
glyphname = hbar;
lastChange = "2018-09-25 02:49:17 +0000";
layers = (
{
layerId = "6992DDD3-6ECA-4BF7-B654-AC36925D8FF8";
paths = (
{
closed = 1;
nodes = (
"520 995 OFFCURVE",
"459 984 OFFCURVE",
"402 960 CURVE",
"382 953 OFFCURVE",
"363 944 OFFCURVE",
"345 934 CURVE",
"345 1025 LINE",
"419 1025 LINE",
"419 1266 LINE",
"345 1266 LINE",
"345 1326 LINE",
"104 1326 LINE",
"104 1266 LINE",
"30 1266 LINE",
"30 1025 LINE",
"104 1025 LINE",
"104 0 LINE",
"345 0 LINE",
"345 525 LINE",
"346 555 OFFCURVE",
"352 582 OFFCURVE",
"364 608 CURVE",
"376 638 OFFCURVE",
"393 663 OFFCURVE",
"415 684 CURVE",
"436 705 OFFCURVE",
"461 722 OFFCURVE",
"490 736 CURVE",
"520 748 OFFCURVE",
"550 754 OFFCURVE",
"583 754 CURVE",
"714 754 LINE",
"714 0 LINE",
"955 0 LINE",
"955 994 LINE",
"955 995 LINE",
"583 995 LINE"
);
}
);
width = 985;
}
);
leftKerningGroup = i;
rightKerningGroup = m;
unicode = 0127;
},
{
glyphname = i;
lastChange = "2018-09-25 22:49:43 +0000";
layers = (
{
components = (
{
alignment = -1;
name = dotaccentcomb;
transform = "{1, 0, 0, 1, 87, 0}";
}
);
layerId = "6992DDD3-6ECA-4BF7-B654-AC36925D8FF8";
paths = (
{
closed = 1;
nodes = (
"30 994 LINE",
"30 753 LINE",
"104 753 LINE",
"104 0 LINE",
"345 0 LINE",
"345 994 LINE"
);
}
);
width = 375;
}
);
leftKerningGroup = i;
rightKerningGroup = m;
unicode = 0069;
},
{
glyphname = idotless;
lastChange = "2018-09-25 02:49:17 +0000";
layers = (
{
layerId = "6992DDD3-6ECA-4BF7-B654-AC36925D8FF8";
paths = (
{
closed = 1;
nodes = (
"30 994 LINE",
"30 753 LINE",
"104 753 LINE",
"104 0 LINE",
"345 0 LINE",
"345 994 LINE"
);
}
);
width = 375;
}
);
leftKerningGroup = i;
note = dotlessi;
rightKerningGroup = m;
unicode = 0131;
},
{
glyphname = ij;
lastChange = "2018-09-25 02:54:07 +0000";
layers = (
{
components = (
{
name = i;
}
);
layerId = "6992DDD3-6ECA-4BF7-B654-AC36925D8FF8";
paths = (
{
closed = 1;
nodes = (
"782 997 LINE",
"393 994 LINE",
"393 753 LINE",
"541 753 LINE",
"541 143 LINE",
"541 114 OFFCURVE",
"535 80 OFFCURVE",
"535 80 CURVE",
"525 26 OFFCURVE",
"498 -24 OFFCURVE",
"458 -65 CURVE",
"404 -118 OFFCURVE",
"333 -148 OFFCURVE",
"257 -148 CURVE",
"257 -389 LINE",
"547 -389 OFFCURVE",
"782 -154 OFFCURVE",
"782 136 CURVE"
);
},
{
closed = 1;
nodes = (
"782 1089 LINE",
"782 1327 LINE",
"544 1327 LINE",
"544 1089 LINE"
);
}
);
width = 812;
}
);
leftKerningGroup = i;
rightKerningGroup = m;
unicode = 0133;
},
{
glyphname = imacron;
lastChange = "2018-09-25 02:52:40 +0000";
layers = (
{
components = (
{
alignment = -1;
name = idotless;
transform = "{1, 0, 0, 1, 10, 0}";
}
);
layerId = "6992DDD3-6ECA-4BF7-B654-AC36925D8FF8";
paths = (
{
closed = 1;
nodes = (
"344 1089 LINE",
"344 1327 LINE",
"30 1327 LINE",
"30 1089 LINE"
);
}
);
width = 385;
}
);
leftKerningGroup = i;
rightKerningGroup = m;
unicode = 012B;
},
{
glyphname = j;
lastChange = "2018-09-25 07:16:20 +0000";
layers = (
{
components = (
{
alignment = -1;
name = dotaccentcomb;
transform = "{1, 0, 0, 1, 297, 0}";
}
);
layerId = "6992DDD3-6ECA-4BF7-B654-AC36925D8FF8";
paths = (
{
closed = 1;
nodes = (
"555 997 LINE",
"166 994 LINE",
"166 753 LINE",
"314 753 LINE",
"314 143 LINE",
"314 114 OFFCURVE",
"308 80 OFFCURVE",
"308 80 CURVE",
"298 26 OFFCURVE",
"271 -24 OFFCURVE",
"231 -65 CURVE",
"177 -118 OFFCURVE",
"106 -148 OFFCURVE",
"30 -148 CURVE",
"30 -389 LINE",
"320 -389 OFFCURVE",
"555 -154 OFFCURVE",
"555 136 CURVE"
);
}
);
width = 585;
}
);
leftKerningGroup = j;
rightKerningGroup = j;
unicode = 006A;
},
{
glyphname = jdotless;
lastChange = "2018-09-25 02:52:40 +0000";
layers = (
{
layerId = "6992DDD3-6ECA-4BF7-B654-AC36925D8FF8";
paths = (
{
closed = 1;
nodes = (
"555 997 LINE",
"166 994 LINE",
"166 753 LINE",
"314 753 LINE",
"314 143 LINE",
"314 114 OFFCURVE",
"308 80 OFFCURVE",
"308 80 CURVE",
"298 26 OFFCURVE",
"271 -24 OFFCURVE",
"231 -65 CURVE",
"177 -118 OFFCURVE",
"106 -148 OFFCURVE",
"30 -148 CURVE",
"30 -389 LINE",
"320 -389 OFFCURVE",
"555 -154 OFFCURVE",
"555 136 CURVE"
);
}
);
width = 585;
}
);
leftKerningGroup = j;
note = uni0237;
rightKerningGroup = j;
unicode = 0237;
},
{
glyphname = k;
lastChange = "2018-09-25 07:04:19 +0000";
layers = (
{
layerId = "6992DDD3-6ECA-4BF7-B654-AC36925D8FF8";
paths = (
{
closed = 1;
nodes = (
"549 731 OFFCURVE",
"524 714 OFFCURVE",
"495 701 CURVE",
"465 689 OFFCURVE",
"435 683 OFFCURVE",
"402 683 CURVE",
"339 683 LINE",
"340 683 OFFCURVE",
"340 684 OFFCURVE",
"341 684 CURVE",
"362 705 OFFCURVE",
"387 723 OFFCURVE",
"416 736 CURVE",
"445 748 OFFCURVE",
"476 754 OFFCURVE",
"509 754 CURVE",
"572 754 LINE",
"571 753 OFFCURVE",
"571 753 OFFCURVE",
"570 753 CURVE"
);
},
{
closed = 1;
nodes = (
"509 995 LINE",
"445 995 OFFCURVE",
"385 984 OFFCURVE",
"327 961 CURVE",
"308 953 OFFCURVE",
"289 944 OFFCURVE",
"271 934 CURVE",
"271 1326 LINE",
"30 1326 LINE",
"30 0 LINE",
"271 0 LINE",
"271 442 LINE",
"305 442 LINE",
"597 0 LINE",
"881 0 LINE",
"569 471 LINE",
"574 472 OFFCURVE",
"579 474 OFFCURVE",
"583 476 CURVE",
"641 499 OFFCURVE",
"692 532 OFFCURVE",
"736 572 CURVE",
"780 612 OFFCURVE",
"815 660 OFFCURVE",
"842 714 CURVE",
"868 769 OFFCURVE",
"881 827 OFFCURVE",
"881 890 CURVE",
"881 995 LINE"
);
}
);
width = 911;
}
);
leftKerningGroup = h;
rightKerningGroup = k;
unicode = 006B;
},
{
glyphname = l;
lastChange = "2018-09-25 22:50:16 +0000";
layers = (
{
layerId = "6992DDD3-6ECA-4BF7-B654-AC36925D8FF8";
paths = (
{
closed = 1;
nodes = (
"30 1085 LINE",
"104 1085 LINE",
"104 0 LINE",
"345 0 LINE",
"345 1326 LINE",
"30 1326 LINE"
);
}
);
width = 375;
}
);
leftKerningGroup = i;
rightKerningGroup = b;
unicode = 006C;
},
{
glyphname = lslash;
lastChange = "2018-09-25 02:52:40 +0000";
layers = (
{
layerId = "6992DDD3-6ECA-4BF7-B654-AC36925D8FF8";
paths = (
{
closed = 1;
nodes = (
"345 1327 LINE",
"342 1327 LINE",
"30 1327 LINE",
"30 1086 LINE",
"104 1086 LINE",
"104 797 LINE",
"30 748 LINE",
"30 465 LINE",
"104 514 LINE",
"104 0 LINE",
"345 0 LINE",
"345 673 LINE",
"416 720 LINE",
"416 1003 LINE",
"345 956 LINE"
);
}
);
width = 446;
}
);
leftKerningGroup = m;
rightKerningGroup = a;
unicode = 0142;
},
{
glyphname = m;
lastChange = "2018-09-25 07:07:32 +0000";
layers = (
{
layerId = "6992DDD3-6ECA-4BF7-B654-AC36925D8FF8";
paths = (
{
closed = 1;
nodes = (
"999 994 LINE",
"936 994 OFFCURVE",
"878 981 OFFCURVE",
"823 955 CURVE",
"813 950 OFFCURVE",
"802 944 OFFCURVE",
"792 938 CURVE",
"792 995 LINE",
"478 994 LINE",
"415 994 OFFCURVE",
"357 981 OFFCURVE",
"302 955 CURVE",
"292 950 OFFCURVE",
"281 944 OFFCURVE",
"271 938 CURVE",
"271 995 LINE",
"30 995 LINE",
"30 0 LINE",
"271 0 LINE",
"271 524 LINE",
"272 554 OFFCURVE",
"278 581 OFFCURVE",
"289 608 CURVE",
"302 637 OFFCURVE",
"319 662 OFFCURVE",
"340 684 CURVE",
"362 705 OFFCURVE",
"387 722 OFFCURVE",
"416 734 CURVE",
"445 747 OFFCURVE",
"476 753 OFFCURVE",
"509 753 CURVE",
"551 753 LINE",
"551 0 LINE",
"792 0 LINE",
"792 524 LINE",
"793 554 OFFCURVE",
"799 581 OFFCURVE",
"810 608 CURVE",
"823 637 OFFCURVE",
"840 662 OFFCURVE",
"861 684 CURVE",
"883 705 OFFCURVE",
"908 722 OFFCURVE",
"937 734 CURVE",
"966 747 OFFCURVE",
"997 753 OFFCURVE",
"1030 753 CURVE",
"1072 753 LINE",
"1072 0 LINE",
"1313 0 LINE",
"1313 995 LINE"
);
}
);
width = 1343;
}
);
leftKerningGroup = m;
rightKerningGroup = m;
unicode = 006D;
},
{
glyphname = n;
lastChange = "2018-09-25 22:45:58 +0000";
layers = (
{
layerId = "6992DDD3-6ECA-4BF7-B654-AC36925D8FF8";
paths = (
{
closed = 1;
nodes = (
"509 995 LINE",
"446 995 OFFCURVE",
"385 984 OFFCURVE",
"328 960 CURVE",
"308 953 OFFCURVE",
"289 944 OFFCURVE",
"271 934 CURVE",
"271 994 LINE",
"30 994 LINE",
"30 0 LINE",
"271 0 LINE",
"271 525 LINE",
"272 555 OFFCURVE",
"278 582 OFFCURVE",
"290 608 CURVE",
"302 638 OFFCURVE",
"320 663 OFFCURVE",
"341 684 CURVE",
"362 705 OFFCURVE",
"387 722 OFFCURVE",
"416 736 CURVE",
"446 748 OFFCURVE",
"476 754 OFFCURVE",
"509 754 CURVE",
"640 754 LINE",
"640 0 LINE",
"881 0 LINE",
"881 995 LINE"
);
}
);
width = 911;
}
);
leftKerningGroup = m;
rightKerningGroup = m;
unicode = 006E;
},
{
glyphname = eng;
lastChange = "2018-09-25 02:52:40 +0000";
layers = (
{
layerId = "6992DDD3-6ECA-4BF7-B654-AC36925D8FF8";
paths = (
{
closed = 1;
nodes = (
"509 995 LINE",
"446 995 OFFCURVE",
"385 984 OFFCURVE",
"328 960 CURVE",
"308 953 OFFCURVE",
"289 944 OFFCURVE",
"271 934 CURVE",
"271 994 LINE",
"30 994 LINE",
"30 0 LINE",
"271 0 LINE",
"271 525 LINE",
"272 555 OFFCURVE",
"278 582 OFFCURVE",
"290 608 CURVE",
"302 638 OFFCURVE",
"320 663 OFFCURVE",
"341 684 CURVE",
"362 705 OFFCURVE",
"387 722 OFFCURVE",
"416 736 CURVE",
"446 748 OFFCURVE",
"476 754 OFFCURVE",
"509 754 CURVE",
"640 754 LINE",
"640 -57 LINE",
"640 -76 OFFCURVE",
"631 -89 OFFCURVE",
"623 -97 CURVE",
"616 -105 OFFCURVE",
"602 -114 OFFCURVE",
"583 -114 CURVE",
"563 -114 OFFCURVE",
"550 -105 OFFCURVE",
"542 -97 CURVE",
"539 -94 OFFCURVE",
"535 -89 OFFCURVE",
"532 -84 CURVE",
"469 -329 LINE",
"504 -344 OFFCURVE",
"542 -352 OFFCURVE",
"583 -352 CURVE",
"746 -352 OFFCURVE",
"881 -220 OFFCURVE",
"881 -57 CURVE",
"881 995 LINE"
);
}
);
width = 911;
}
);
leftKerningGroup = m;
rightKerningGroup = m;
unicode = 014B;
},
{
glyphname = o;
lastChange = "2018-09-25 22:48:50 +0000";
layers = (
{
layerId = "6992DDD3-6ECA-4BF7-B654-AC36925D8FF8";
paths = (
{
closed = 1;
nodes = (
"631 781 OFFCURVE",
"702 751 OFFCURVE",
"756 698 CURVE",
"809 644 OFFCURVE",
"839 573 OFFCURVE",
"839 497 CURVE",
"839 421 OFFCURVE",
"809 350 OFFCURVE",
"756 296 CURVE",
"702 243 OFFCURVE",
"631 213 OFFCURVE",
"555 213 CURVE",
"479 213 OFFCURVE",
"408 243 OFFCURVE",
"354 296 CURVE",
"301 350 OFFCURVE",
"271 421 OFFCURVE",
"271 497 CURVE",
"271 573 OFFCURVE",
"301 644 OFFCURVE",
"354 698 CURVE",
"408 751 OFFCURVE",
"479 781 OFFCURVE",
"555 781 CURVE"
);
},
{
closed = 1;
nodes = (
"265 1022 OFFCURVE",
"30 787 OFFCURVE",
"30 497 CURVE",
"30 207 OFFCURVE",
"265 -28 OFFCURVE",
"555 -28 CURVE",
"845 -28 OFFCURVE",
"1080 207 OFFCURVE",
"1080 497 CURVE",
"1080 787 OFFCURVE",
"845 1022 OFFCURVE",
"555 1022 CURVE"
);
}
);
width = 1110;
}
);
leftKerningGroup = o;
rightKerningGroup = o;
unicode = 006F;
},
{
glyphname = odieresismacron;
lastChange = "2018-09-25 02:52:20 +0000";
layers = (
{
components = (
{
alignment = -1;
name = o;
transform = "{1, 0, 0, 1, 10, 0}";
},
{
alignment = -1;
name = dieresiscomb;
transform = "{1, 0, 0, 1, 224, 0}";
}
);
layerId = "6992DDD3-6ECA-4BF7-B654-AC36925D8FF8";
paths = (
{
closed = 1;
nodes = (
"868 1433 LINE",
"868 1671 LINE",
"244 1670 LINE",
"244 1432 LINE"
);
}
);
width = 1110;
}
);
leftKerningGroup = o;
note = uni022B;
rightKerningGroup = o;
unicode = 022B;
},
{
glyphname = ohorn;
lastChange = "2018-09-25 02:52:40 +0000";
layers = (
{
layerId = "6992DDD3-6ECA-4BF7-B654-AC36925D8FF8";
paths = (
{
closed = 1;
nodes = (
"966 994 LINE",
"971 991 OFFCURVE",
"975 986 OFFCURVE",
"978 983 CURVE",
"985 974 OFFCURVE",
"992 959 OFFCURVE",
"989 940 CURVE",
"986 921 OFFCURVE",
"975 908 OFFCURVE",
"966 902 CURVE",
"957 896 OFFCURVE",
"943 889 OFFCURVE",
"924 891 CURVE",
"906 894 OFFCURVE",
"898 898 OFFCURVE",
"881 908 CURVE",
"792 979 OFFCURVE",
"678 1022 OFFCURVE",
"555 1022 CURVE",
"265 1022 OFFCURVE",
"30 787 OFFCURVE",
"30 497 CURVE",
"30 207 OFFCURVE",
"265 -28 OFFCURVE",
"555 -28 CURVE",
"845 -28 OFFCURVE",
"1080 207 OFFCURVE",
"1080 497 CURVE",
"1080 560 OFFCURVE",
"1069 621 OFFCURVE",
"1048 677 CURVE",
"1140 716 OFFCURVE",
"1209 800 OFFCURVE",
"1224 905 CURVE",
"1230 946 OFFCURVE",
"1228 984 OFFCURVE",
"1218 1021 CURVE"
);
},
{
closed = 1;
nodes = (
"702 243 OFFCURVE",
"631 213 OFFCURVE",
"555 213 CURVE",
"479 213 OFFCURVE",
"408 243 OFFCURVE",
"354 296 CURVE",
"301 350 OFFCURVE",
"271 421 OFFCURVE",
"271 497 CURVE",
"271 573 OFFCURVE",
"301 644 OFFCURVE",
"354 698 CURVE",
"408 751 OFFCURVE",
"479 781 OFFCURVE",
"555 781 CURVE",
"631 781 OFFCURVE",
"702 751 OFFCURVE",
"756 698 CURVE",
"809 644 OFFCURVE",
"839 573 OFFCURVE",
"839 497 CURVE",
"839 421 OFFCURVE",
"809 350 OFFCURVE",
"756 296 CURVE"
);
}
);
width = 1257;
}
);
leftKerningGroup = o;
rightKerningGroup = o;
unicode = 01A1;
},
{
glyphname = oslash;
lastChange = "2018-09-25 02:52:40 +0000";
layers = (
{
layerId = "6992DDD3-6ECA-4BF7-B654-AC36925D8FF8";
paths = (
{
closed = 1;
nodes = (
"265 1022 OFFCURVE",
"30 787 OFFCURVE",
"30 497 CURVE",
"30 207 OFFCURVE",
"265 -28 OFFCURVE",
"555 -28 CURVE",
"845 -28 OFFCURVE",
"1080 207 OFFCURVE",
"1080 497 CURVE",
"1080 787 OFFCURVE",
"845 1022 OFFCURVE",
"555 1022 CURVE"
);
},
{
closed = 1;
nodes = (
"408 751 OFFCURVE",
"479 781 OFFCURVE",
"555 781 CURVE",
"570 781 OFFCURVE",
"585 780 OFFCURVE",
"599 778 CURVE",
"314 347 LINE",
"286 391 OFFCURVE",
"271 443 OFFCURVE",
"271 497 CURVE",
"271 573 OFFCURVE",
"301 644 OFFCURVE",
"354 698 CURVE"
);
},
{
closed = 1;
nodes = (
"702 243 OFFCURVE",
"631 213 OFFCURVE",
"555 213 CURVE",
"540 213 OFFCURVE",
"526 214 OFFCURVE",
"511 216 CURVE",
"796 647 LINE",
"824 602 OFFCURVE",
"839 551 OFFCURVE",
"839 497 CURVE",
"839 421 OFFCURVE",
"809 350 OFFCURVE",
"756 296 CURVE"
);
}
);
width = 1110;
}
);
leftKerningGroup = o;
rightKerningGroup = o;
unicode = 00F8;
},
{
glyphname = oe;
lastChange = "2018-09-25 02:52:40 +0000";
layers = (
{
layerId = "6992DDD3-6ECA-4BF7-B654-AC36925D8FF8";
paths = (
{
closed = 1;
nodes = (
"833 943 LINE",
"752 993 OFFCURVE",
"657 1022 OFFCURVE",
"555 1022 CURVE",
"265 1022 OFFCURVE",
"30 787 OFFCURVE",
"30 497 CURVE",
"30 207 OFFCURVE",
"265 -28 OFFCURVE",
"555 -28 CURVE",
"714 -28 OFFCURVE",
"856 43 OFFCURVE",
"953 154 CURVE",
"961 146 OFFCURVE",
"969 137 OFFCURVE",
"978 130 CURVE",
"1022 90 OFFCURVE",
"1073 57 OFFCURVE",
"1131 34 CURVE",
"1188 11 OFFCURVE",
"1249 -1 OFFCURVE",
"1312 -1 CURVE",
"1610 -1 LINE",
"1610 241 LINE",
"1312 241 LINE",
"1279 241 OFFCURVE",
"1249 247 OFFCURVE",
"1219 259 CURVE",
"1190 272 OFFCURVE",
"1165 289 OFFCURVE",
"1144 311 CURVE",
"1123 332 OFFCURVE",
"1105 357 OFFCURVE",
"1093 386 CURVE",
"1085 403 OFFCURVE",
"1080 422 OFFCURVE",
"1077 440 CURVE",
"1077 441 OFFCURVE",
"1077 441 OFFCURVE",
"1077 442 CURVE",
"1205 442 LINE",
"1269 442 OFFCURVE",
"1329 453 OFFCURVE",
"1387 476 CURVE",
"1444 499 OFFCURVE",
"1496 532 OFFCURVE",
"1539 572 CURVE",
"1583 612 OFFCURVE",
"1619 660 OFFCURVE",
"1645 714 CURVE",
"1671 769 OFFCURVE",
"1684 827 OFFCURVE",
"1684 890 CURVE",
"1684 995 LINE",
"833 994 LINE"
);
},
{
closed = 1;
nodes = (
"479 213 OFFCURVE",
"408 243 OFFCURVE",
"354 296 CURVE",
"301 350 OFFCURVE",
"271 421 OFFCURVE",
"271 497 CURVE",
"271 573 OFFCURVE",
"301 644 OFFCURVE",
"354 698 CURVE",
"408 751 OFFCURVE",
"479 781 OFFCURVE",
"555 781 CURVE",
"631 781 OFFCURVE",
"702 751 OFFCURVE",
"756 698 CURVE",
"809 644 OFFCURVE",
"839 573 OFFCURVE",
"839 497 CURVE",
"839 421 OFFCURVE",
"809 350 OFFCURVE",
"756 296 CURVE",
"702 243 OFFCURVE",
"631 213 OFFCURVE",
"555 213 CURVE"
);
},
{
closed = 1;
nodes = (
"1269 688 OFFCURVE",
"1238 682 OFFCURVE",
"1205 682 CURVE",
"1074 682 LINE",
"1074 752 LINE",
"1374 752 LINE",
"1352 730 OFFCURVE",
"1327 713 OFFCURVE",
"1298 700 CURVE"
);
}
);
width = 1714;
}
);
leftKerningGroup = o;
rightKerningGroup = e;
unicode = 0153;
},
{
glyphname = p;
lastChange = "2018-09-26 05:32:43 +0000";
layers = (
{
layerId = "6992DDD3-6ECA-4BF7-B654-AC36925D8FF8";
paths = (
{
closed = 1;
nodes = (
"955 995 LINE",
"30 995 LINE",
"30 753 LINE",
"104 753 LINE",
"104 -388 LINE",
"345 -388 LINE",
"345 0 LINE",
"476 0 LINE",
"540 0 OFFCURVE",
"600 11 OFFCURVE",
"658 35 CURVE",
"715 58 OFFCURVE",
"767 90 OFFCURVE",
"810 130 CURVE",
"854 171 OFFCURVE",
"890 218 OFFCURVE",
"916 273 CURVE",
"942 327 OFFCURVE",
"955 386 OFFCURVE",
"955 448 CURVE",
"955 553 LINE"
);
},
{
closed = 1;
nodes = (
"683 357 OFFCURVE",
"666 332 OFFCURVE",
"645 311 CURVE",
"623 290 OFFCURVE",
"598 273 OFFCURVE",
"569 260 CURVE",
"540 247 OFFCURVE",
"509 241 OFFCURVE",
"476 241 CURVE",
"345 241 LINE",
"345 753 LINE",
"714 753 LINE",
"714 479 LINE",
"714 446 OFFCURVE",
"708 416 OFFCURVE",
"695 387 CURVE"
);
}
);
width = 985;
}
);
leftKerningGroup = i;
rightKerningGroup = s;
unicode = 0070;
},
{
glyphname = thorn;
lastChange = "2018-09-25 02:52:40 +0000";
layers = (
{
layerId = "6992DDD3-6ECA-4BF7-B654-AC36925D8FF8";
paths = (
{
closed = 1;
nodes = (
"683 357 OFFCURVE",
"666 332 OFFCURVE",
"645 311 CURVE",
"623 290 OFFCURVE",
"598 273 OFFCURVE",
"569 260 CURVE",
"540 247 OFFCURVE",
"509 241 OFFCURVE",
"476 241 CURVE",
"345 241 LINE",
"345 753 LINE",
"714 753 LINE",
"714 479 LINE",
"714 446 OFFCURVE",
"708 416 OFFCURVE",
"695 387 CURVE"
);
},
{
closed = 1;
nodes = (
"955 995 LINE",
"345 995 LINE",
"345 1143 LINE",
"104 1143 LINE",
"104 995 LINE",
"30 995 LINE",
"30 753 LINE",
"104 753 LINE",
"104 -388 LINE",
"345 -388 LINE",
"345 0 LINE",
"476 0 LINE",
"540 0 OFFCURVE",
"600 11 OFFCURVE",
"658 35 CURVE",
"715 58 OFFCURVE",
"767 90 OFFCURVE",
"810 130 CURVE",
"854 171 OFFCURVE",
"890 218 OFFCURVE",
"916 273 CURVE",
"942 327 OFFCURVE",
"955 386 OFFCURVE",
"955 448 CURVE",
"955 553 LINE"
);
}
);
width = 985;
}
);
leftKerningGroup = i;
rightKerningGroup = m;
unicode = 00FE;
},
{
glyphname = q;
lastChange = "2018-09-25 07:09:02 +0000";
layers = (
{
layerId = "6992DDD3-6ECA-4BF7-B654-AC36925D8FF8";
paths = (
{
closed = 1;
nodes = (
"509 995 LINE",
"445 995 OFFCURVE",
"385 984 OFFCURVE",
"327 961 CURVE",
"270 937 OFFCURVE",
"218 905 OFFCURVE",
"175 865 CURVE",
"131 824 OFFCURVE",
"95 777 OFFCURVE",
"69 722 CURVE",
"43 668 OFFCURVE",
"30 610 OFFCURVE",
"30 547 CURVE",
"30 0 LINE",
"402 0 LINE",
"465 0 OFFCURVE",
"526 11 OFFCURVE",
"583 34 CURVE",
"603 42 OFFCURVE",
"622 51 OFFCURVE",
"640 61 CURVE",
"640 -388 LINE",
"881 -388 LINE",
"881 995 LINE"
);
},
{
closed = 1;
nodes = (
"609 357 OFFCURVE",
"591 332 OFFCURVE",
"570 311 CURVE",
"549 290 OFFCURVE",
"524 272 OFFCURVE",
"495 259 CURVE",
"465 247 OFFCURVE",
"435 241 OFFCURVE",
"402 241 CURVE",
"271 241 LINE",
"271 516 LINE",
"271 549 OFFCURVE",
"277 579 OFFCURVE",
"290 609 CURVE",
"302 638 OFFCURVE",
"319 663 OFFCURVE",
"340 684 CURVE",
"362 705 OFFCURVE",
"387 722 OFFCURVE",
"416 736 CURVE",
"445 748 OFFCURVE",
"476 754 OFFCURVE",
"509 754 CURVE",
"640 754 LINE",
"640 470 LINE",
"639 440 OFFCURVE",
"632 413 OFFCURVE",
"621 386 CURVE"
);
}
);
width = 911;
}
);
leftKerningGroup = s;
rightKerningGroup = q;
unicode = 0071;
},
{
glyphname = r;
lastChange = "2018-09-25 22:45:44 +0000";
layers = (
{
layerId = "6992DDD3-6ECA-4BF7-B654-AC36925D8FF8";
paths = (
{
closed = 1;
nodes = (
"546 994 LINE",
"486 993 OFFCURVE",
"429 980 OFFCURVE",
"376 955 CURVE",
"366 950 OFFCURVE",
"356 944 OFFCURVE",
"345 939 CURVE",
"345 994 LINE",
"30 994 LINE",
"30 753 LINE",
"104 753 LINE",
"104 0 LINE",
"345 0 LINE",
"345 526 LINE",
"347 555 OFFCURVE",
"353 582 OFFCURVE",
"363 608 CURVE",
"376 637 OFFCURVE",
"394 662 OFFCURVE",
"415 684 CURVE",
"436 705 OFFCURVE",
"461 722 OFFCURVE",
"490 734 CURVE",
"517 746 OFFCURVE",
"544 752 OFFCURVE",
"574 753 CURVE",
"714 753 LINE",
"714 606 LINE",
"955 606 LINE",
"955 994 LINE"
);
}
);
width = 985;
}
);
leftKerningGroup = i;
rightKerningGroup = r;
unicode = 0072;
},
{
glyphname = s;
lastChange = "2018-09-25 22:46:04 +0000";
layers = (
{
layerId = "6992DDD3-6ECA-4BF7-B654-AC36925D8FF8";
paths = (
{
closed = 1;
nodes = (
"340 683 LINE",
"375 712 OFFCURVE",
"376 717 OFFCURVE",
"416 736 CURVE",
"446 748 OFFCURVE",
"476 754 OFFCURVE",
"509 754 CURVE",
"881 754 LINE",
"881 995 LINE",
"509 995 LINE",
"446 995 OFFCURVE",
"385 984 OFFCURVE",
"328 960 CURVE",
"270 937 OFFCURVE",
"219 905 OFFCURVE",
"175 865 CURVE",
"131 824 OFFCURVE",
"96 777 OFFCURVE",
"69 722 CURVE",
"43 668 OFFCURVE",
"30 609 OFFCURVE",
"30 547 CURVE",
"30 442 LINE",
"637 442 LINE",
"634 423 OFFCURVE",
"629 404 OFFCURVE",
"621 386 CURVE",
"609 357 OFFCURVE",
"592 332 OFFCURVE",
"571 311 CURVE",
"549 289 OFFCURVE",
"524 272 OFFCURVE",
"495 259 CURVE",
"466 247 OFFCURVE",
"435 241 OFFCURVE",
"402 241 CURVE",
"271 241 LINE",
"271 315 LINE",
"30 315 LINE",
"30 0 LINE",
"402 0 LINE",
"466 0 OFFCURVE",
"526 11 OFFCURVE",
"584 34 CURVE",
"641 57 OFFCURVE",
"693 90 OFFCURVE",
"736 130 CURVE",
"780 170 OFFCURVE",
"816 218 OFFCURVE",
"842 272 CURVE",
"867 325 OFFCURVE",
"880 382 OFFCURVE",
"881 442 CURVE",
"881 683 LINE"
);
}
);
width = 911;
}
);
leftKerningGroup = s;
rightKerningGroup = s;
unicode = 0073;
},
{
glyphname = germandbls;
lastChange = "2018-09-25 02:52:40 +0000";
layers = (
{
layerId = "6992DDD3-6ECA-4BF7-B654-AC36925D8FF8";
paths = (
{
closed = 1;
nodes = (
"971 743 OFFCURVE",
"988 812 OFFCURVE",
"988 884 CURVE",
"988 1128 OFFCURVE",
"790 1326 OFFCURVE",
"546 1326 CURVE",
"340 1326 OFFCURVE",
"167 1185 OFFCURVE",
"118 994 CURVE",
"104 994 LINE",
"30 994 LINE",
"30 753 LINE",
"104 753 LINE",
"104 0 LINE",
"345 0 LINE",
"345 890 LINE",
"345 941 OFFCURVE",
"367 989 OFFCURVE",
"404 1026 CURVE",
"442 1064 OFFCURVE",
"492 1085 OFFCURVE",
"546 1085 CURVE",
"600 1085 OFFCURVE",
"650 1064 OFFCURVE",
"688 1026 CURVE",
"726 988 OFFCURVE",
"747 938 OFFCURVE",
"747 884 CURVE",
"747 830 OFFCURVE",
"726 780 OFFCURVE",
"688 742 CURVE",
"650 704 OFFCURVE",
"600 683 OFFCURVE",
"546 683 CURVE",
"402 683 LINE",
"402 442 LINE",
"878 442 LINE",
"875 423 OFFCURVE",
"870 404 OFFCURVE",
"862 386 CURVE",
"850 357 OFFCURVE",
"833 332 OFFCURVE",
"812 311 CURVE",
"790 289 OFFCURVE",
"765 272 OFFCURVE",
"736 259 CURVE",
"707 247 OFFCURVE",
"676 241 OFFCURVE",
"643 241 CURVE",
"643 315 LINE",
"402 315 LINE",
"402 0 LINE",
"643 0 LINE",
"707 0 OFFCURVE",
"767 11 OFFCURVE",
"825 34 CURVE",
"882 57 OFFCURVE",
"934 90 OFFCURVE",
"977 130 CURVE",
"1021 170 OFFCURVE",
"1057 218 OFFCURVE",
"1083 272 CURVE",
"1108 325 OFFCURVE",
"1121 382 OFFCURVE",
"1122 442 CURVE",
"1122 683 LINE",
"940 683 LINE"
);
}
);
width = 1152;
}
);
leftKerningGroup = i;
rightKerningGroup = s;
unicode = 00DF;
},
{
glyphname = longs;
lastChange = "2018-09-25 02:52:40 +0000";
layers = (
{
layerId = "6992DDD3-6ECA-4BF7-B654-AC36925D8FF8";
paths = (
{
closed = 1;
nodes = (
"412 1085 OFFCURVE",
"416 1084 OFFCURVE",
"419 1084 CURVE",
"480 1317 LINE",
"457 1323 OFFCURVE",
"433 1326 OFFCURVE",
"408 1326 CURVE",
"240 1326 OFFCURVE",
"104 1190 OFFCURVE",
"104 1022 CURVE",
"104 994 LINE",
"30 994 LINE",
"30 753 LINE",
"104 753 LINE",
"104 0 LINE",
"345 0 LINE",
"345 1022 LINE",
"345 1044 OFFCURVE",
"355 1058 OFFCURVE",
"364 1066 CURVE",
"372 1075 OFFCURVE",
"387 1085 OFFCURVE",
"408 1085 CURVE"
);
}
);
width = 510;
}
);
leftKerningGroup = f;
rightKerningGroup = f;
unicode = 017F;
},
{
glyphname = t;
lastChange = "2018-09-25 07:06:02 +0000";
layers = (
{
layerId = "6992DDD3-6ECA-4BF7-B654-AC36925D8FF8";
paths = (
{
closed = 1;
nodes = (
"345 994 LINE",
"345 1326 LINE",
"103 1326 LINE",
"103 994 LINE",
"30 994 LINE",
"30 753 LINE",
"103 753 LINE",
"103 0 LINE",
"345 0 LINE",
"345 753 LINE",
"419 753 LINE",
"419 994 LINE"
);
}
);
width = 449;
}
);
leftKerningGroup = i;
rightKerningGroup = a;
unicode = 0074;
},
{
glyphname = tbar;
lastChange = "2018-09-25 02:52:40 +0000";
layers = (
{
layerId = "6992DDD3-6ECA-4BF7-B654-AC36925D8FF8";
paths = (
{
closed = 1;
nodes = (
"345 632 LINE",
"345 753 LINE",
"419 753 LINE",
"419 994 LINE",
"345 994 LINE",
"345 1326 LINE",
"103 1326 LINE",
"103 994 LINE",
"30 994 LINE",
"30 753 LINE",
"103 753 LINE",
"103 632 LINE",
"30 632 LINE",
"30 391 LINE",
"103 391 LINE",
"103 0 LINE",
"345 0 LINE",
"345 391 LINE",
"419 391 LINE",
"419 632 LINE"
);
}
);
width = 449;
}
);
leftKerningGroup = i;
rightKerningGroup = a;
unicode = 0167;
},
{
glyphname = tcedilla;
lastChange = "2018-09-25 02:57:42 +0000";
layers = (
{
components = (
{
name = t;
}
);
layerId = "6992DDD3-6ECA-4BF7-B654-AC36925D8FF8";
paths = (
{
closed = 1;
nodes = (
"-143 -230 LINE",
"141 -230 LINE",
"316 36 LINE",
"209 98 LINE"
);
}
);
width = 449;
}
);
leftKerningGroup = i;
note = uni0163;
rightKerningGroup = a;
unicode = 0163;
},
{
glyphname = u;
lastChange = "2018-09-25 22:46:44 +0000";
layers = (
{
layerId = "6992DDD3-6ECA-4BF7-B654-AC36925D8FF8";
paths = (
{
closed = 1;
nodes = (
"402 0 LINE",
"465 0 OFFCURVE",
"526 11 OFFCURVE",
"583 35 CURVE",
"603 42 OFFCURVE",
"622 51 OFFCURVE",
"640 61 CURVE",
"640 1 LINE",
"881 1 LINE",
"881 995 LINE",
"640 995 LINE",
"640 470 LINE",
"639 440 OFFCURVE",
"633 413 OFFCURVE",
"621 387 CURVE",
"609 357 OFFCURVE",
"591 332 OFFCURVE",
"570 311 CURVE",
"549 290 OFFCURVE",
"524 273 OFFCURVE",
"495 259 CURVE",
"465 247 OFFCURVE",
"435 241 OFFCURVE",
"402 241 CURVE",
"271 241 LINE",
"271 995 LINE",
"30 995 LINE",
"30 0 LINE"
);
}
);
width = 911;
}
);
leftKerningGroup = m;
rightKerningGroup = m;
unicode = 0075;
},
{
glyphname = uhorn;
lastChange = "2018-09-25 02:52:40 +0000";
layers = (
{
layerId = "6992DDD3-6ECA-4BF7-B654-AC36925D8FF8";
paths = (
{
closed = 1;
nodes = (
"969 995 LINE",
"974 991 OFFCURVE",
"978 987 OFFCURVE",
"980 983 CURVE",
"987 974 OFFCURVE",
"994 960 OFFCURVE",
"991 940 CURVE",
"989 921 OFFCURVE",
"978 909 OFFCURVE",
"969 903 CURVE",
"960 896 OFFCURVE",
"945 889 OFFCURVE",
"927 892 CURVE",
"907 895 OFFCURVE",
"899 899 OFFCURVE",
"881 911 CURVE",
"881 995 LINE",
"640 995 LINE",
"640 470 LINE",
"639 440 OFFCURVE",
"633 413 OFFCURVE",
"621 387 CURVE",
"609 357 OFFCURVE",
"591 332 OFFCURVE",
"570 311 CURVE",
"549 290 OFFCURVE",
"524 273 OFFCURVE",
"495 259 CURVE",
"465 247 OFFCURVE",
"435 241 OFFCURVE",
"402 241 CURVE",
"271 241 LINE",
"271 995 LINE",
"30 995 LINE",
"30 0 LINE",
"402 0 LINE",
"465 0 OFFCURVE",
"526 11 OFFCURVE",
"583 35 CURVE",
"603 42 OFFCURVE",
"622 51 OFFCURVE",
"640 61 CURVE",
"640 1 LINE",
"881 1 LINE",
"881 658 LINE",
"885 658 OFFCURVE",
"888 657 OFFCURVE",
"892 656 CURVE",
"1053 633 OFFCURVE",
"1203 744 OFFCURVE",
"1227 906 CURVE",
"1233 946 OFFCURVE",
"1230 985 OFFCURVE",
"1221 1022 CURVE"
);
}
);
width = 1260;
}
);
leftKerningGroup = m;
rightKerningGroup = m;
unicode = 01B0;
},
{
glyphname = v;
lastChange = "2018-09-25 02:52:40 +0000";
layers = (
{
layerId = "6992DDD3-6ECA-4BF7-B654-AC36925D8FF8";
paths = (
{
closed = 1;
nodes = (
"955 994 LINE",
"714 994 LINE",
"714 470 LINE",
"713 440 OFFCURVE",
"707 413 OFFCURVE",
"695 386 CURVE",
"683 357 OFFCURVE",
"666 332 OFFCURVE",
"644 311 CURVE",
"623 289 OFFCURVE",
"598 272 OFFCURVE",
"569 259 CURVE",
"539 247 OFFCURVE",
"509 241 OFFCURVE",
"476 241 CURVE",
"345 241 LINE",
"345 753 LINE",
"419 753 LINE",
"419 994 LINE",
"30 994 LINE",
"30 753 LINE",
"104 753 LINE",
"104 0 LINE",
"476 0 LINE",
"539 0 OFFCURVE",
"600 11 OFFCURVE",
"657 34 CURVE",
"715 57 OFFCURVE",
"766 90 OFFCURVE",
"810 130 CURVE",
"854 170 OFFCURVE",
"889 218 OFFCURVE",
"916 272 CURVE",
"941 325 OFFCURVE",
"954 382 OFFCURVE",
"955 442 CURVE"
);
}
);
width = 985;
}
);
leftKerningGroup = i;
rightKerningGroup = s;
unicode = 0076;
},
{
glyphname = w;
lastChange = "2018-09-25 07:09:25 +0000";
layers = (
{
layerId = "6992DDD3-6ECA-4BF7-B654-AC36925D8FF8";
paths = (
{
closed = 1;
nodes = (
"1072 242 LINE",
"1030 242 LINE",
"997 242 OFFCURVE",
"966 248 OFFCURVE",
"937 261 CURVE",
"908 273 OFFCURVE",
"883 290 OFFCURVE",
"861 311 CURVE",
"840 332 OFFCURVE",
"823 358 OFFCURVE",
"810 387 CURVE",
"799 414 OFFCURVE",
"793 442 OFFCURVE",
"792 472 CURVE",
"792 995 LINE",
"551 995 LINE",
"551 472 LINE",
"550 442 OFFCURVE",
"544 414 OFFCURVE",
"533 387 CURVE",
"520 358 OFFCURVE",
"502 332 OFFCURVE",
"481 311 CURVE",
"460 290 OFFCURVE",
"435 273 OFFCURVE",
"406 261 CURVE",
"376 248 OFFCURVE",
"346 242 OFFCURVE",
"313 242 CURVE",
"271 242 LINE",
"271 995 LINE",
"30 995 LINE",
"30 0 LINE",
"344 1 LINE",
"407 1 OFFCURVE",
"465 14 OFFCURVE",
"520 40 CURVE",
"574 66 OFFCURVE",
"622 101 OFFCURVE",
"662 146 CURVE",
"665 149 OFFCURVE",
"668 153 OFFCURVE",
"671 156 CURVE",
"674 153 OFFCURVE",
"678 149 OFFCURVE",
"681 146 CURVE",
"721 101 OFFCURVE",
"769 66 OFFCURVE",
"823 40 CURVE",
"878 14 OFFCURVE",
"936 1 OFFCURVE",
"999 1 CURVE",
"1313 0 LINE",
"1313 995 LINE",
"1072 995 LINE"
);
}
);
width = 1343;
}
);
leftKerningGroup = m;
rightKerningGroup = m;
unicode = 0077;
},
{
glyphname = x;
lastChange = "2018-09-25 02:52:40 +0000";
layers = (
{
layerId = "6992DDD3-6ECA-4BF7-B654-AC36925D8FF8";
paths = (
{
closed = 1;
nodes = (
"1029 242 LINE",
"869 242 LINE",
"701 496 LINE",
"741 516 OFFCURVE",
"778 542 OFFCURVE",
"810 572 CURVE",
"854 612 OFFCURVE",
"890 660 OFFCURVE",
"916 714 CURVE",
"942 769 OFFCURVE",
"955 827 OFFCURVE",
"955 890 CURVE",
"955 995 LINE",
"714 995 LINE",
"714 921 LINE",
"714 888 OFFCURVE",
"708 857 OFFCURVE",
"695 828 CURVE",
"683 799 OFFCURVE",
"666 774 OFFCURVE",
"644 752 CURVE",
"623 731 OFFCURVE",
"598 714 OFFCURVE",
"569 701 CURVE",
"568 700 OFFCURVE",
"567 700 OFFCURVE",
"565 700 CURVE",
"370 994 LINE",
"30 994 LINE",
"30 753 LINE",
"247 753 LINE",
"320 643 LINE",
"265 620 OFFCURVE",
"217 589 OFFCURVE",
"175 551 CURVE",
"131 510 OFFCURVE",
"96 463 OFFCURVE",
"70 408 CURVE",
"43 354 OFFCURVE",
"30 295 OFFCURVE",
"30 233 CURVE",
"30 0 LINE",
"271 0 LINE",
"271 202 LINE",
"271 235 OFFCURVE",
"277 265 OFFCURVE",
"290 294 CURVE",
"303 324 OFFCURVE",
"320 349 OFFCURVE",
"341 370 CURVE",
"362 391 OFFCURVE",
"387 408 OFFCURVE",
"417 422 CURVE",
"430 427 OFFCURVE",
"444 431 OFFCURVE",
"458 434 CURVE",
"745 0 LINE",
"1029 0 LINE"
);
}
);
width = 1059;
}
);
leftKerningGroup = m;
rightKerningGroup = x;
unicode = 0078;
},
{
glyphname = y;
lastChange = "2018-09-25 02:52:40 +0000";
layers = (
{
layerId = "6992DDD3-6ECA-4BF7-B654-AC36925D8FF8";
paths = (
{
closed = 1;
nodes = (
"955 241 LINE",
"881 241 LINE",
"881 994 LINE",
"640 994 LINE",
"640 241 LINE",
"510 241 LINE",
"476 241 OFFCURVE",
"446 247 OFFCURVE",
"417 259 CURVE",
"388 273 OFFCURVE",
"362 290 OFFCURVE",
"341 311 CURVE",
"320 332 OFFCURVE",
"303 357 OFFCURVE",
"291 387 CURVE",
"278 416 OFFCURVE",
"272 446 OFFCURVE",
"272 479 CURVE",
"272 994 LINE",
"30 994 LINE",
"30 448 LINE",
"30 386 OFFCURVE",
"44 327 OFFCURVE",
"70 273 CURVE",
"96 218 OFFCURVE",
"131 171 OFFCURVE",
"176 130 CURVE",
"219 90 OFFCURVE",
"271 58 OFFCURVE",
"328 35 CURVE",
"386 11 OFFCURVE",
"446 0 OFFCURVE",
"510 0 CURVE",
"606 0 LINE",
"593 -23 OFFCURVE",
"577 -45 OFFCURVE",
"557 -65 CURVE",
"503 -118 OFFCURVE",
"432 -148 OFFCURVE",
"356 -148 CURVE",
"280 -148 OFFCURVE",
"209 -118 OFFCURVE",
"155 -65 CURVE",
"137 -46 OFFCURVE",
"122 -26 OFFCURVE",
"109 -5 CURVE",
"38 -281 LINE",
"126 -349 OFFCURVE",
"236 -389 OFFCURVE",
"356 -389 CURVE",
"599 -389 OFFCURVE",
"804 -224 OFFCURVE",
"864 0 CURVE",
"955 0 LINE"
);
}
);
width = 985;
}
);
leftKerningGroup = m;
rightKerningGroup = y;
unicode = 0079;
},
{
glyphname = ymacron;
lastChange = "2018-09-25 02:52:40 +0000";
layers = (
{
components = (
{
alignment = -1;
name = y;
transform = "{1, 0, 0, 1, 10, 0}";
}
);
layerId = "6992DDD3-6ECA-4BF7-B654-AC36925D8FF8";
paths = (
{
closed = 1;
nodes = (
"881 1089 LINE",
"881 1327 LINE",
"30 1327 LINE",
"30 1089 LINE"
);
}
);
width = 985;
}
);
leftKerningGroup = m;
note = uni0233;
rightKerningGroup = y;
unicode = 0233;
},
{
glyphname = z;
lastChange = "2018-09-25 02:52:40 +0000";
layers = (
{
layerId = "6992DDD3-6ECA-4BF7-B654-AC36925D8FF8";
paths = (
{
closed = 1;
nodes = (
"384 241 LINE",
"881 994 LINE",
"30 994 LINE",
"30 605 LINE",
"271 605 LINE",
"271 753 LINE",
"439 753 LINE",
"30 136 LINE",
"30 0 LINE",
"881 0 LINE",
"881 389 LINE",
"640 389 LINE",
"640 241 LINE"
);
}
);
width = 911;
}
);
leftKerningGroup = m;
rightKerningGroup = m;
unicode = 007A;
},
{
glyphname = ordfeminine;
lastChange = "2018-09-25 21:57:32 +0000";
layers = (
{
layerId = "6992DDD3-6ECA-4BF7-B654-AC36925D8FF8";
paths = (
{
closed = 1;
nodes = (
"679 1006 OFFCURVE",
"672 1013 OFFCURVE",
"665 1019 CURVE",
"646 1035 OFFCURVE",
"631 1067 OFFCURVE",
"631 1099 CURVE",
"631 1262 OFFCURVE",
"499 1395 OFFCURVE",
"335 1395 CURVE",
"172 1395 OFFCURVE",
"40 1262 OFFCURVE",
"40 1099 CURVE",
"40 936 OFFCURVE",
"172 804 OFFCURVE",
"335 804 CURVE",
"415 804 OFFCURVE",
"488 835 OFFCURVE",
"541 887 CURVE",
"581 848 OFFCURVE",
"632 821 OFFCURVE",
"688 810 CURVE",
"688 1001 LINE"
);
},
{
closed = 1;
nodes = (
"401 1003 OFFCURVE",
"375 985 OFFCURVE",
"335 985 CURVE",
"297 985 OFFCURVE",
"271 1003 OFFCURVE",
"255 1019 CURVE",
"239 1033 OFFCURVE",
"221 1061 OFFCURVE",
"221 1099 CURVE",
"221 1138 OFFCURVE",
"239 1164 OFFCURVE",
"255 1180 CURVE",
"271 1196 OFFCURVE",
"297 1214 OFFCURVE",
"335 1214 CURVE",
"375 1214 OFFCURVE",
"401 1196 OFFCURVE",
"417 1180 CURVE",
"433 1164 OFFCURVE",
"451 1138 OFFCURVE",
"451 1099 CURVE",
"451 1061 OFFCURVE",
"433 1033 OFFCURVE",
"417 1019 CURVE"
);
}
);
width = 688;
}
);
leftKerningGroup = ordfeminine;
unicode = 00AA;
},
{
glyphname = ordmasculine;
lastChange = "2018-09-25 21:57:13 +0000";
layers = (
{
layerId = "6992DDD3-6ECA-4BF7-B654-AC36925D8FF8";
paths = (
{
closed = 1;
nodes = (
"172 1395 OFFCURVE",
"40 1262 OFFCURVE",
"40 1099 CURVE",
"40 936 OFFCURVE",
"172 804 OFFCURVE",
"335 804 CURVE",
"499 804 OFFCURVE",
"631 936 OFFCURVE",
"631 1099 CURVE",
"631 1262 OFFCURVE",
"499 1395 OFFCURVE",
"335 1395 CURVE"
);
},
{
closed = 1;
nodes = (
"374 1214 OFFCURVE",
"400 1196 OFFCURVE",
"416 1180 CURVE",
"432 1164 OFFCURVE",
"450 1138 OFFCURVE",
"450 1098 CURVE",
"450 1060 OFFCURVE",
"432 1032 OFFCURVE",
"416 1018 CURVE",
"400 1002 OFFCURVE",
"374 984 OFFCURVE",
"335 984 CURVE",
"297 984 OFFCURVE",
"271 1002 OFFCURVE",
"255 1018 CURVE",
"239 1032 OFFCURVE",
"221 1060 OFFCURVE",
"221 1098 CURVE",
"221 1138 OFFCURVE",
"239 1164 OFFCURVE",
"255 1180 CURVE",
"271 1196 OFFCURVE",
"297 1214 OFFCURVE",
"335 1214 CURVE"
);
}
);
width = 671;
}
);
leftKerningGroup = ordfeminine;
unicode = 00BA;
},
{
glyphname = "Be-cy";
lastChange = "2018-09-25 23:54:13 +0000";
layers = (
{
layerId = "6992DDD3-6ECA-4BF7-B654-AC36925D8FF8";
paths = (
{
closed = 1;
nodes = (
"1177 297 OFFCURVE",
"1169 355 OFFCURVE",
"1153 412 CURVE",
"1138 468 OFFCURVE",
"1116 521 OFFCURVE",
"1087 570 CURVE",
"1058 619 OFFCURVE",
"1024 663 OFFCURVE",
"984 704 CURVE",
"944 744 OFFCURVE",
"900 779 OFFCURVE",
"851 808 CURVE",
"802 837 OFFCURVE",
"750 859 OFFCURVE",
"694 876 CURVE",
"639 892 OFFCURVE",
"581 900 OFFCURVE",
"520 901 CURVE",
"417 901 LINE",
"417 1087 LINE",
"845 1087 LINE",
"845 1326 LINE",
"30 1326 LINE",
"30 1087 LINE",
"177 1087 LINE",
"177 900 LINE",
"104 900 LINE",
"104 661 LINE",
"177 661 LINE",
"178 0 LINE",
"1177 0 LINE",
"1178 0 LINE",
"1178 236 LINE",
"1177 236 LINE"
);
},
{
closed = 1;
nodes = (
"417 662 LINE",
"511 662 LINE",
"568 662 OFFCURVE",
"623 651 OFFCURVE",
"674 630 CURVE",
"725 609 OFFCURVE",
"770 580 OFFCURVE",
"809 544 CURVE",
"848 507 OFFCURVE",
"879 465 OFFCURVE",
"902 416 CURVE",
"925 367 OFFCURVE",
"937 314 OFFCURVE",
"937 258 CURVE",
"937 239 LINE",
"417 239 LINE"
);
}
);
width = 1208;
}
);
leftKerningGroup = B;
note = uni0411;
rightKerningGroup = B;
unicode = 0411;
},
{
glyphname = "Ge-cy";
lastChange = "2018-09-25 08:32:36 +0000";
layers = (
{
layerId = "6992DDD3-6ECA-4BF7-B654-AC36925D8FF8";
paths = (
{
closed = 1;
nodes = (
"30 1326 LINE",
"30 1085 LINE",
"177 1085 LINE",
"177 0 LINE",
"418 0 LINE",
"418 1085 LINE",
"1102 1085 LINE",
"1102 1326 LINE"
);
}
);
width = 1132;
}
);
leftKerningGroup = B;
note = uni0413;
rightKerningGroup = T;
unicode = 0413;
},
{
glyphname = "Gheupturn-cy";
lastChange = "2018-09-25 23:54:13 +0000";
layers = (
{
layerId = "6992DDD3-6ECA-4BF7-B654-AC36925D8FF8";
paths = (
{
closed = 1;
nodes = (
"788 1326 LINE",
"30 1326 LINE",
"30 0 LINE",
"270 0 LINE",
"270 1087 LINE",
"792 1087 LINE",
"792 872 LINE",
"1029 872 LINE",
"1029 1243 LINE",
"1029 1326 LINE",
"1029 1474 LINE",
"788 1474 LINE"
);
}
);
width = 1059;
}
);
leftKerningGroup = B;
note = uni0490;
rightKerningGroup = T;
unicode = 0490;
},
{
glyphname = "De-cy";
lastChange = "2018-09-25 23:54:13 +0000";
layers = (
{
layerId = "6992DDD3-6ECA-4BF7-B654-AC36925D8FF8";
paths = (
{
closed = 1;
nodes = (
"1178 1088 LINE",
"1326 1088 LINE",
"1326 1327 LINE",
"841 1327 LINE",
"752 1326 OFFCURVE",
"669 1309 OFFCURVE",
"590 1276 CURVE",
"511 1243 OFFCURVE",
"441 1197 OFFCURVE",
"382 1140 CURVE",
"322 1083 OFFCURVE",
"274 1015 OFFCURVE",
"238 938 CURVE",
"201 861 OFFCURVE",
"182 777 OFFCURVE",
"179 688 CURVE",
"179 238 LINE",
"30 238 LINE",
"31 0 LINE",
"1252 0 LINE",
"1252 238 LINE",
"1178 238 LINE"
);
},
{
closed = 1;
nodes = (
"419 238 LINE",
"419 662 LINE",
"419 721 OFFCURVE",
"430 776 OFFCURVE",
"453 828 CURVE",
"475 879 OFFCURVE",
"505 924 OFFCURVE",
"544 963 CURVE",
"582 1002 OFFCURVE",
"627 1032 OFFCURVE",
"679 1055 CURVE",
"730 1077 OFFCURVE",
"786 1088 OFFCURVE",
"845 1088 CURVE",
"941 1088 LINE",
"941 238 LINE"
);
}
);
width = 1356;
}
);
leftKerningGroup = De;
note = uni0414;
rightKerningGroup = A;
unicode = 0414;
},
{
glyphname = "Zhe-cy";
lastChange = "2018-09-25 23:54:13 +0000";
layers = (
{
layerId = "6992DDD3-6ECA-4BF7-B654-AC36925D8FF8";
paths = (
{
closed = 1;
nodes = (
"950 965 LINE",
"991 904 LINE",
"910 904 LINE"
);
},
{
closed = 1;
nodes = (
"1400 712 LINE",
"1646 808 OFFCURVE",
"1820 1047 OFFCURVE",
"1820 1327 CURVE",
"1583 1327 LINE",
"1583 1214 OFFCURVE",
"1539 1108 OFFCURVE",
"1459 1028 CURVE",
"1404 973 OFFCURVE",
"1337 936 OFFCURVE",
"1265 917 CURVE",
"1151 1089 LINE",
"1272 1089 LINE",
"1272 1327 LINE",
"629 1327 LINE",
"629 1089 LINE",
"750 1089 LINE",
"636 917 LINE",
"564 936 OFFCURVE",
"497 973 OFFCURVE",
"442 1028 CURVE",
"362 1108 OFFCURVE",
"318 1214 OFFCURVE",
"318 1327 CURVE",
"34 1327 LINE",
"34 1089 LINE",
"125 1089 LINE",
"191 917 OFFCURVE",
"328 779 OFFCURVE",
"501 712 CURVE",
"30 0 LINE",
"313 0 LINE",
"753 666 LINE",
"829 666 LINE",
"829 0 LINE",
"1070 0 LINE",
"1072 666 LINE",
"1148 666 LINE",
"1588 0 LINE",
"1805 0 LINE",
"1805 238 LINE",
"1714 238 LINE"
);
}
);
width = 1850;
}
);
leftKerningGroup = X;
note = uni0416;
rightKerningGroup = X;
unicode = 0416;
},
{
glyphname = "Ze-cy";
lastChange = "2018-09-25 23:54:13 +0000";
layers = (
{
layerId = "6992DDD3-6ECA-4BF7-B654-AC36925D8FF8";
paths = (
{
closed = 1;
nodes = (
"1035 899 LINE",
"662 899 LINE",
"790 1094 LINE",
"947 1094 LINE",
"947 1331 LINE",
"30 1331 LINE",
"30 1094 LINE",
"507 1094 LINE",
"222 662 LINE",
"793 662 LINE",
"787 450 LINE",
"777 398 OFFCURVE",
"751 350 OFFCURVE",
"713 311 CURVE",
"661 260 OFFCURVE",
"593 231 OFFCURVE",
"520 231 CURVE",
"320 231 LINE",
"320 373 LINE",
"89 373 LINE",
"89 0 LINE",
"520 0 LINE",
"798 0 OFFCURVE",
"1036 225 OFFCURVE",
"1036 503 CURVE"
);
}
);
width = 1066;
}
);
leftKerningGroup = Ze;
note = uni0417;
rightKerningGroup = M;
unicode = 0417;
},
{
glyphname = "Ii-cy";
lastChange = "2018-09-25 23:54:13 +0000";
layers = (
{
layerId = "6992DDD3-6ECA-4BF7-B654-AC36925D8FF8";
paths = (
{
closed = 1;
nodes = (
"792 1135 LINE",
"733 1110 OFFCURVE",
"678 1080 OFFCURVE",
"626 1046 CURVE",
"574 1011 OFFCURVE",
"526 975 OFFCURVE",
"482 936 CURVE",
"437 897 OFFCURVE",
"397 857 OFFCURVE",
"362 816 CURVE",
"326 775 OFFCURVE",
"295 735 OFFCURVE",
"270 697 CURVE",
"270 1331 LINE",
"30 1331 LINE",
"30 0 LINE",
"270 0 LINE",
"270 0 OFFCURVE",
"275 57 OFFCURVE",
"286 118 CURVE",
"296 179 OFFCURVE",
"311 239 OFFCURVE",
"331 298 CURVE",
"351 357 OFFCURVE",
"376 414 OFFCURVE",
"405 470 CURVE",
"434 526 OFFCURVE",
"468 578 OFFCURVE",
"507 627 CURVE",
"546 676 OFFCURVE",
"589 720 OFFCURVE",
"637 761 CURVE",
"684 801 OFFCURVE",
"736 835 OFFCURVE",
"792 863 CURVE",
"792 0 LINE",
"1031 0 LINE",
"1031 1331 LINE",
"792 1331 LINE"
);
}
);
width = 1061;
}
);
leftKerningGroup = M;
note = uni0418;
rightKerningGroup = M;
unicode = 0418;
},
{
glyphname = "El-cy";
lastChange = "2018-09-25 21:50:55 +0000";
layers = (
{
layerId = "6992DDD3-6ECA-4BF7-B654-AC36925D8FF8";
paths = (
{
closed = 1;
nodes = (
"626 1325 OFFCURVE",
"568 1317 OFFCURVE",
"513 1301 CURVE",
"457 1284 OFFCURVE",
"405 1262 OFFCURVE",
"356 1233 CURVE",
"307 1204 OFFCURVE",
"263 1169 OFFCURVE",
"223 1129 CURVE",
"183 1088 OFFCURVE",
"149 1044 OFFCURVE",
"120 995 CURVE",
"91 946 OFFCURVE",
"69 893 OFFCURVE",
"54 837 CURVE",
"38 780 OFFCURVE",
"30 722 OFFCURVE",
"30 661 CURVE",
"30 0 LINE",
"270 0 LINE",
"270 683 LINE",
"270 739 OFFCURVE",
"282 792 OFFCURVE",
"305 841 CURVE",
"328 890 OFFCURVE",
"359 932 OFFCURVE",
"398 969 CURVE",
"437 1005 OFFCURVE",
"482 1034 OFFCURVE",
"533 1055 CURVE",
"584 1076 OFFCURVE",
"639 1087 OFFCURVE",
"696 1087 CURVE",
"792 1087 LINE",
"792 0 LINE",
"1029 0 LINE",
"1029 1087 LINE",
"1177 1087 LINE",
"1177 1326 LINE",
"687 1326 LINE"
);
}
);
width = 1207;
}
);
leftKerningGroup = A;
note = uni041B;
rightKerningGroup = A;
unicode = 041B;
},
{
glyphname = "Pe-cy";
lastChange = "2018-09-25 21:50:38 +0000";
layers = (
{
layerId = "6992DDD3-6ECA-4BF7-B654-AC36925D8FF8";
paths = (
{
closed = 1;
nodes = (
"30 1331 LINE",
"30 0 LINE",
"270 0 LINE",
"270 1094 LINE",
"792 1094 LINE",
"792 0 LINE",
"1031 0 LINE",
"1031 1094 LINE",
"1179 1094 LINE",
"1179 1331 LINE"
);
}
);
width = 1209;
}
);
leftKerningGroup = M;
note = uni041F;
rightKerningGroup = A;
unicode = 041F;
},
{
glyphname = "U-cy";
lastChange = "2018-09-25 23:54:40 +0000";
layers = (
{
layerId = "6992DDD3-6ECA-4BF7-B654-AC36925D8FF8";
paths = (
{
closed = 1;
nodes = (
"896 1329 LINE",
"664 1329 LINE",
"664 922 LINE",
"608 922 OFFCURVE",
"556 933 OFFCURVE",
"507 954 CURVE",
"458 975 OFFCURVE",
"415 1004 OFFCURVE",
"378 1041 CURVE",
"341 1078 OFFCURVE",
"312 1121 OFFCURVE",
"290 1171 CURVE",
"268 1220 OFFCURVE",
"257 1272 OFFCURVE",
"257 1329 CURVE",
"30 1329 LINE",
"30 1241 OFFCURVE",
"47 1158 OFFCURVE",
"80 1081 CURVE",
"114 1003 OFFCURVE",
"159 936 OFFCURVE",
"216 878 CURVE",
"274 820 OFFCURVE",
"341 775 OFFCURVE",
"418 741 CURVE",
"494 708 OFFCURVE",
"577 691 OFFCURVE",
"664 691 CURVE",
"664 510 LINE",
"664 482 OFFCURVE",
"659 450 OFFCURVE",
"659 450 CURVE",
"649 398 OFFCURVE",
"623 350 OFFCURVE",
"585 311 CURVE",
"533 260 OFFCURVE",
"465 231 OFFCURVE",
"392 231 CURVE",
"335 231 LINE",
"335 373 LINE",
"104 373 LINE",
"104 0 LINE",
"392 0 LINE",
"670 0 OFFCURVE",
"895 225 OFFCURVE",
"895 503 CURVE",
"895 691 LINE",
"896 691 LINE",
"984 691 LINE",
"984 922 LINE",
"896 922 LINE"
);
}
);
width = 1014;
}
);
leftKerningGroup = Ze;
note = uni0423;
rightKerningGroup = H;
unicode = 0423;
},
{
glyphname = "Ef-cy";
lastChange = "2018-09-25 21:50:47 +0000";
layers = (
{
layerId = "6992DDD3-6ECA-4BF7-B654-AC36925D8FF8";
paths = (
{
closed = 1;
nodes = (
"1429 908 OFFCURVE",
"1404 966 OFFCURVE",
"1373 1019 CURVE",
"1342 1072 OFFCURVE",
"1304 1121 OFFCURVE",
"1260 1165 CURVE",
"1216 1209 OFFCURVE",
"1167 1247 OFFCURVE",
"1114 1278 CURVE",
"1061 1309 OFFCURVE",
"1003 1333 OFFCURVE",
"942 1350 CURVE",
"921 1356 OFFCURVE",
"900 1361 OFFCURVE",
"878 1365 CURVE",
"878 1456 LINE",
"636 1456 LINE",
"636 1367 LINE",
"611 1363 OFFCURVE",
"585 1357 OFFCURVE",
"560 1350 CURVE",
"499 1333 OFFCURVE",
"441 1309 OFFCURVE",
"388 1278 CURVE",
"335 1247 OFFCURVE",
"286 1209 OFFCURVE",
"242 1165 CURVE",
"198 1121 OFFCURVE",
"160 1072 OFFCURVE",
"129 1019 CURVE",
"98 966 OFFCURVE",
"73 908 OFFCURVE",
"56 847 CURVE",
"39 786 OFFCURVE",
"30 722 OFFCURVE",
"30 656 CURVE",
"30 590 OFFCURVE",
"39 526 OFFCURVE",
"56 465 CURVE",
"73 404 OFFCURVE",
"98 346 OFFCURVE",
"129 293 CURVE",
"160 240 OFFCURVE",
"198 191 OFFCURVE",
"242 147 CURVE",
"286 103 OFFCURVE",
"335 66 OFFCURVE",
"388 35 CURVE",
"441 4 OFFCURVE",
"499 -21 OFFCURVE",
"560 -38 CURVE",
"585 -45 OFFCURVE",
"611 -50 OFFCURVE",
"636 -54 CURVE",
"636 -146 LINE",
"878 -146 LINE",
"878 -52 LINE",
"900 -48 OFFCURVE",
"921 -43 OFFCURVE",
"942 -38 CURVE",
"1003 -21 OFFCURVE",
"1061 4 OFFCURVE",
"1114 35 CURVE",
"1167 66 OFFCURVE",
"1216 103 OFFCURVE",
"1260 147 CURVE",
"1304 191 OFFCURVE",
"1342 240 OFFCURVE",
"1373 293 CURVE",
"1404 346 OFFCURVE",
"1429 404 OFFCURVE",
"1446 465 CURVE",
"1463 526 OFFCURVE",
"1472 590 OFFCURVE",
"1472 656 CURVE",
"1472 722 OFFCURVE",
"1463 786 OFFCURVE",
"1446 847 CURVE"
);
},
{
closed = 1;
nodes = (
"506 239 OFFCURVE",
"455 274 OFFCURVE",
"412 318 CURVE",
"369 361 OFFCURVE",
"334 412 OFFCURVE",
"309 471 CURVE",
"284 529 OFFCURVE",
"271 591 OFFCURVE",
"271 656 CURVE",
"271 721 OFFCURVE",
"284 782 OFFCURVE",
"309 841 CURVE",
"334 899 OFFCURVE",
"369 950 OFFCURVE",
"413 994 CURVE",
"456 1037 OFFCURVE",
"507 1072 OFFCURVE",
"566 1098 CURVE",
"589 1108 OFFCURVE",
"612 1116 OFFCURVE",
"636 1122 CURVE",
"636 190 LINE",
"612 196 OFFCURVE",
"588 204 OFFCURVE",
"565 214 CURVE"
);
},
{
closed = 1;
nodes = (
"1171 414 OFFCURVE",
"1136 362 OFFCURVE",
"1091 315 CURVE",
"1044 270 OFFCURVE",
"992 235 OFFCURVE",
"935 211 CURVE",
"916 204 OFFCURVE",
"897 197 OFFCURVE",
"878 192 CURVE",
"878 1119 LINE",
"898 1114 OFFCURVE",
"917 1107 OFFCURVE",
"936 1098 CURVE",
"994 1072 OFFCURVE",
"1045 1037 OFFCURVE",
"1089 994 CURVE",
"1132 950 OFFCURVE",
"1167 899 OFFCURVE",
"1193 841 CURVE",
"1218 783 OFFCURVE",
"1231 721 OFFCURVE",
"1231 656 CURVE",
"1231 592 OFFCURVE",
"1219 531 OFFCURVE",
"1195 473 CURVE"
);
}
);
width = 1502;
}
);
leftKerningGroup = O;
note = uni0424;
rightKerningGroup = O;
unicode = 0424;
},
{
glyphname = "Che-cy";
lastChange = "2018-09-25 23:54:40 +0000";
layers = (
{
layerId = "6992DDD3-6ECA-4BF7-B654-AC36925D8FF8";
paths = (
{
closed = 1;
nodes = (
"1029 901 LINE",
"1029 1326 LINE",
"790 1326 LINE",
"790 905 LINE",
"696 905 LINE",
"639 905 OFFCURVE",
"584 916 OFFCURVE",
"533 937 CURVE",
"482 958 OFFCURVE",
"437 987 OFFCURVE",
"398 1023 CURVE",
"359 1060 OFFCURVE",
"328 1102 OFFCURVE",
"305 1151 CURVE",
"282 1200 OFFCURVE",
"270 1253 OFFCURVE",
"270 1309 CURVE",
"270 1326 LINE",
"30 1326 LINE",
"31 1267 OFFCURVE",
"39 1211 OFFCURVE",
"54 1155 CURVE",
"69 1099 OFFCURVE",
"91 1046 OFFCURVE",
"120 997 CURVE",
"149 948 OFFCURVE",
"183 904 OFFCURVE",
"223 863 CURVE",
"263 823 OFFCURVE",
"307 788 OFFCURVE",
"356 759 CURVE",
"405 730 OFFCURVE",
"457 708 OFFCURVE",
"513 691 CURVE",
"568 675 OFFCURVE",
"626 667 OFFCURVE",
"687 666 CURVE",
"790 666 LINE",
"790 0 LINE",
"1030 0 LINE",
"1030 662 LINE",
"1104 662 LINE",
"1104 901 LINE"
);
}
);
width = 1134;
}
);
leftKerningGroup = Y;
note = uni0427;
rightKerningGroup = H;
unicode = 0427;
},
{
glyphname = "Tse-cy";
lastChange = "2018-09-25 23:54:54 +0000";
layers = (
{
layerId = "6992DDD3-6ECA-4BF7-B654-AC36925D8FF8";
paths = (
{
closed = 1;
nodes = (
"1029 1326 LINE",
"790 1326 LINE",
"790 240 LINE",
"689 240 LINE",
"634 240 OFFCURVE",
"581 250 OFFCURVE",
"530 271 CURVE",
"479 292 OFFCURVE",
"435 320 OFFCURVE",
"397 356 CURVE",
"358 391 OFFCURVE",
"328 433 OFFCURVE",
"305 481 CURVE",
"282 528 OFFCURVE",
"270 579 OFFCURVE",
"270 633 CURVE",
"270 1326 LINE",
"30 1326 LINE",
"30 627 LINE",
"30 570 OFFCURVE",
"38 515 OFFCURVE",
"54 463 CURVE",
"70 410 OFFCURVE",
"93 361 OFFCURVE",
"122 315 CURVE",
"151 269 OFFCURVE",
"185 227 OFFCURVE",
"225 189 CURVE",
"265 151 OFFCURVE",
"309 118 OFFCURVE",
"357 91 CURVE",
"405 64 OFFCURVE",
"456 42 OFFCURVE",
"511 27 CURVE",
"566 11 OFFCURVE",
"622 2 OFFCURVE",
"679 0 CURVE",
"1177 0 LINE",
"1177 240 LINE",
"1029 240 LINE"
);
}
);
width = 1207;
}
);
leftKerningGroup = M;
note = uni0426;
rightKerningGroup = Tse;
unicode = 0426;
},
{
glyphname = "Sha-cy";
lastChange = "2018-09-25 23:54:54 +0000";
layers = (
{
layerId = "6992DDD3-6ECA-4BF7-B654-AC36925D8FF8";
paths = (
{
closed = 1;
nodes = (
"1122 240 LINE",
"810 240 LINE",
"810 1327 LINE",
"573 1327 LINE",
"573 256 LINE",
"530 268 OFFCURVE",
"491 287 OFFCURVE",
"454 312 CURVE SMOOTH",
"417 337 OFFCURVE",
"385 366 OFFCURVE",
"358 401 CURVE SMOOTH",
"331 435 OFFCURVE",
"309 473 OFFCURVE",
"294 514 CURVE SMOOTH",
"278 555 OFFCURVE",
"270 598 OFFCURVE",
"270 643 CURVE SMOOTH",
"270 1327 LINE",
"30 1327 LINE",
"30 627 LINE SMOOTH",
"30 569 OFFCURVE",
"38 513 OFFCURVE",
"55 460 CURVE SMOOTH",
"71 406 OFFCURVE",
"94 356 OFFCURVE",
"123 310 CURVE SMOOTH",
"152 263 OFFCURVE",
"187 221 OFFCURVE",
"228 183 CURVE SMOOTH",
"268 145 OFFCURVE",
"313 112 OFFCURVE",
"362 85 CURVE SMOOTH",
"411 58 OFFCURVE",
"463 37 OFFCURVE",
"518 22 CURVE SMOOTH",
"573 7 OFFCURVE",
"630 0 OFFCURVE",
"689 0 CURVE SMOOTH",
"1361 0 LINE",
"1361 1327 LINE",
"1122 1327 LINE"
);
}
);
width = 1391;
}
);
leftKerningGroup = M;
note = uni0428;
rightKerningGroup = M;
unicode = 0428;
},
{
glyphname = "Shcha-cy";
lastChange = "2018-09-25 23:54:54 +0000";
layers = (
{
layerId = "6992DDD3-6ECA-4BF7-B654-AC36925D8FF8";
paths = (
{
closed = 1;
nodes = (
"1361 1326 LINE",
"1122 1326 LINE",
"1122 240 LINE",
"810 240 LINE",
"810 1326 LINE",
"573 1326 LINE",
"573 256 LINE",
"530 267 OFFCURVE",
"491 286 OFFCURVE",
"454 311 CURVE",
"417 336 OFFCURVE",
"385 366 OFFCURVE",
"358 401 CURVE",
"331 435 OFFCURVE",
"309 473 OFFCURVE",
"294 515 CURVE",
"278 556 OFFCURVE",
"270 599 OFFCURVE",
"270 643 CURVE",
"270 1326 LINE",
"30 1326 LINE",
"30 627 LINE",
"30 569 OFFCURVE",
"38 513 OFFCURVE",
"55 460 CURVE",
"71 407 OFFCURVE",
"94 357 OFFCURVE",
"123 311 CURVE",
"152 264 OFFCURVE",
"186 222 OFFCURVE",
"227 184 CURVE",
"268 145 OFFCURVE",
"312 113 OFFCURVE",
"361 86 CURVE",
"410 59 OFFCURVE",
"462 38 OFFCURVE",
"517 23 CURVE",
"572 8 OFFCURVE",
"629 0 OFFCURVE",
"687 0 CURVE",
"1509 0 LINE",
"1509 240 LINE",
"1361 240 LINE"
);
}
);
width = 1539;
}
);
leftKerningGroup = M;
note = uni0429;
rightKerningGroup = Tse;
unicode = 0429;
},
{
glyphname = "Dzhe-cy";
lastChange = "2018-09-25 23:54:54 +0000";
layers = (
{
layerId = "6992DDD3-6ECA-4BF7-B654-AC36925D8FF8";
paths = (
{
closed = 1;
nodes = (
"790 1326 LINE",
"790 240 LINE",
"689 240 LINE",
"634 240 OFFCURVE",
"581 250 OFFCURVE",
"530 271 CURVE",
"479 292 OFFCURVE",
"435 320 OFFCURVE",
"397 356 CURVE",
"358 391 OFFCURVE",
"328 433 OFFCURVE",
"305 481 CURVE",
"282 528 OFFCURVE",
"270 579 OFFCURVE",
"270 633 CURVE",
"270 1326 LINE",
"30 1326 LINE",
"30 627 LINE",
"30 570 OFFCURVE",
"38 515 OFFCURVE",
"54 463 CURVE",
"70 410 OFFCURVE",
"93 361 OFFCURVE",
"122 315 CURVE",
"151 269 OFFCURVE",
"185 227 OFFCURVE",
"225 189 CURVE",
"265 151 OFFCURVE",
"309 118 OFFCURVE",
"357 91 CURVE",
"390 72 OFFCURVE",
"425 56 OFFCURVE",
"461 43 CURVE",
"461 -148 LINE",
"703 -148 LINE",
"703 0 LINE",
"1029 0 LINE",
"1029 1326 LINE"
);
}
);
width = 1059;
}
);
leftKerningGroup = M;
note = uni040F;
rightKerningGroup = M;
unicode = 040F;
},
{
glyphname = "Softsign-cy";
lastChange = "2018-09-25 23:54:54 +0000";
layers = (
{
layerId = "6992DDD3-6ECA-4BF7-B654-AC36925D8FF8";
paths = (
{
closed = 1;
nodes = (
"344 662 LINE",
"438 662 LINE",
"495 662 OFFCURVE",
"550 651 OFFCURVE",
"601 630 CURVE",
"652 609 OFFCURVE",
"697 580 OFFCURVE",
"736 544 CURVE",
"775 507 OFFCURVE",
"806 465 OFFCURVE",
"829 416 CURVE",
"852 367 OFFCURVE",
"864 314 OFFCURVE",
"864 258 CURVE",
"864 240 LINE",
"344 240 LINE"
);
},
{
closed = 1;
nodes = (
"1104 297 OFFCURVE",
"1096 355 OFFCURVE",
"1080 412 CURVE",
"1065 468 OFFCURVE",
"1043 521 OFFCURVE",
"1014 570 CURVE",
"985 619 OFFCURVE",
"951 663 OFFCURVE",
"911 704 CURVE",
"871 744 OFFCURVE",
"827 779 OFFCURVE",
"778 808 CURVE",
"729 837 OFFCURVE",
"677 859 OFFCURVE",
"621 876 CURVE",
"566 892 OFFCURVE",
"508 900 OFFCURVE",
"447 901 CURVE",
"344 901 LINE",
"344 1326 LINE",
"104 1326 LINE",
"104 901 LINE",
"30 901 LINE",
"30 662 LINE",
"31 662 LINE",
"104 662 LINE",
"104 0 LINE",
"105 0 LINE",
"1104 0 LINE",
"1105 0 LINE",
"1105 236 LINE",
"1104 236 LINE"
);
}
);
width = 1135;
}
);
leftKerningGroup = Soft;
note = uni042C;
rightKerningGroup = B;
unicode = 042C;
},
{
glyphname = "Hardsign-cy";
lastChange = "2018-09-25 23:54:54 +0000";
layers = (
{
layerId = "6992DDD3-6ECA-4BF7-B654-AC36925D8FF8";
paths = (
{
closed = 1;
nodes = (
"1178 297 OFFCURVE",
"1170 355 OFFCURVE",
"1154 412 CURVE",
"1139 468 OFFCURVE",
"1117 521 OFFCURVE",
"1088 570 CURVE",
"1059 619 OFFCURVE",
"1025 663 OFFCURVE",
"985 704 CURVE",
"945 744 OFFCURVE",
"901 779 OFFCURVE",
"852 808 CURVE",
"803 837 OFFCURVE",
"751 859 OFFCURVE",
"695 876 CURVE",
"640 892 OFFCURVE",
"582 900 OFFCURVE",
"521 901 CURVE",
"418 901 LINE",
"418 1326 LINE",
"30 1326 LINE",
"30 1085 LINE",
"178 1085 LINE",
"178 903 LINE",
"104 903 LINE",
"104 662 LINE",
"178 662 LINE",
"178 0 LINE",
"1179 0 LINE",
"1179 236 LINE",
"1178 236 LINE"
);
},
{
closed = 1;
nodes = (
"418 240 LINE",
"418 662 LINE",
"512 662 LINE",
"569 662 OFFCURVE",
"624 651 OFFCURVE",
"675 630 CURVE",
"726 609 OFFCURVE",
"771 580 OFFCURVE",
"810 544 CURVE",
"849 507 OFFCURVE",
"880 465 OFFCURVE",
"903 416 CURVE",
"926 367 OFFCURVE",
"938 314 OFFCURVE",
"938 258 CURVE",
"938 240 LINE"
);
}
);
width = 1209;
}
);
leftKerningGroup = B;
note = uni042A;
rightKerningGroup = B;
unicode = 042A;
},
{
glyphname = "Yeru-cy";
lastChange = "2018-09-25 23:54:54 +0000";
layers = (
{
components = (
{
name = "Softsign-cy";
}
);
layerId = "6992DDD3-6ECA-4BF7-B654-AC36925D8FF8";
paths = (
{
closed = 1;
nodes = (
"1212 0 LINE",
"1212 1326 LINE",
"1452 1326 LINE",
"1452 0 LINE"
);
}
);
width = 1482;
}
);
leftKerningGroup = Soft;
note = uni042B;
rightKerningGroup = M;
unicode = 042B;
},
{
glyphname = "Lje-cy";
lastChange = "2018-09-25 23:54:54 +0000";
layers = (
{
layerId = "6992DDD3-6ECA-4BF7-B654-AC36925D8FF8";
paths = (
{
closed = 1;
nodes = (
"1792 297 OFFCURVE",
"1784 355 OFFCURVE",
"1768 412 CURVE",
"1753 468 OFFCURVE",
"1731 521 OFFCURVE",
"1702 570 CURVE",
"1673 619 OFFCURVE",
"1639 663 OFFCURVE",
"1599 704 CURVE",
"1559 744 OFFCURVE",
"1515 779 OFFCURVE",
"1466 808 CURVE",
"1417 837 OFFCURVE",
"1365 859 OFFCURVE",
"1309 876 CURVE",
"1254 892 OFFCURVE",
"1196 900 OFFCURVE",
"1135 901 CURVE",
"1032 901 LINE",
"1032 1326 LINE",
"1029 1326 LINE",
"687 1326 LINE",
"626 1325 OFFCURVE",
"568 1317 OFFCURVE",
"513 1301 CURVE",
"457 1284 OFFCURVE",
"405 1262 OFFCURVE",
"356 1233 CURVE",
"307 1204 OFFCURVE",
"263 1169 OFFCURVE",
"223 1129 CURVE",
"183 1088 OFFCURVE",
"149 1044 OFFCURVE",
"120 995 CURVE",
"91 946 OFFCURVE",
"69 893 OFFCURVE",
"54 837 CURVE",
"38 780 OFFCURVE",
"30 722 OFFCURVE",
"30 661 CURVE",
"30 0 LINE",
"270 0 LINE",
"270 683 LINE",
"270 739 OFFCURVE",
"282 792 OFFCURVE",
"305 841 CURVE",
"328 890 OFFCURVE",
"359 932 OFFCURVE",
"398 969 CURVE",
"437 1005 OFFCURVE",
"482 1034 OFFCURVE",
"533 1055 CURVE",
"584 1076 OFFCURVE",
"639 1087 OFFCURVE",
"696 1087 CURVE",
"792 1087 LINE",
"793 0 LINE",
"1792 0 LINE",
"1793 0 LINE",
"1793 236 LINE",
"1792 236 LINE"
);
},
{
closed = 1;
nodes = (
"1032 240 LINE",
"1032 662 LINE",
"1126 662 LINE",
"1183 662 OFFCURVE",
"1238 651 OFFCURVE",
"1289 630 CURVE",
"1340 609 OFFCURVE",
"1385 580 OFFCURVE",
"1424 544 CURVE",
"1463 507 OFFCURVE",
"1494 465 OFFCURVE",
"1517 416 CURVE",
"1540 367 OFFCURVE",
"1552 314 OFFCURVE",
"1552 258 CURVE",
"1552 240 LINE"
);
}
);
width = 1823;
}
);
leftKerningGroup = A;
note = uni0409;
rightKerningGroup = B;
unicode = 0409;
},
{
glyphname = "Nje-cy";
lastChange = "2018-09-25 23:54:54 +0000";
layers = (
{
layerId = "6992DDD3-6ECA-4BF7-B654-AC36925D8FF8";
paths = (
{
closed = 1;
nodes = (
"1788 297 OFFCURVE",
"1780 355 OFFCURVE",
"1764 412 CURVE",
"1749 468 OFFCURVE",
"1727 521 OFFCURVE",
"1698 570 CURVE",
"1669 619 OFFCURVE",
"1635 663 OFFCURVE",
"1595 704 CURVE",
"1555 744 OFFCURVE",
"1511 779 OFFCURVE",
"1462 808 CURVE",
"1413 837 OFFCURVE",
"1361 859 OFFCURVE",
"1305 876 CURVE",
"1250 892 OFFCURVE",
"1192 900 OFFCURVE",
"1131 901 CURVE",
"1028 901 LINE",
"1028 1327 LINE",
"789 1326 LINE",
"788 898 LINE",
"692 898 LINE",
"611 898 OFFCURVE",
"534 884 OFFCURVE",
"463 857 CURVE",
"391 830 OFFCURVE",
"326 793 OFFCURVE",
"269 746 CURVE",
"269 1327 LINE",
"30 1327 LINE",
"30 0 LINE",
"269 0 LINE",
"269 257 LINE",
"269 313 OFFCURVE",
"285 366 OFFCURVE",
"308 415 CURVE",
"331 464 OFFCURVE",
"362 507 OFFCURVE",
"401 544 CURVE",
"439 580 OFFCURVE",
"483 609 OFFCURVE",
"534 630 CURVE",
"584 651 OFFCURVE",
"638 662 OFFCURVE",
"696 662 CURVE",
"788 662 LINE",
"789 1 LINE",
"1788 1 LINE",
"1789 1 LINE",
"1789 237 LINE",
"1788 237 LINE"
);
},
{
closed = 1;
nodes = (
"1028 241 LINE",
"1028 662 LINE",
"1122 662 LINE",
"1179 662 OFFCURVE",
"1234 651 OFFCURVE",
"1285 630 CURVE",
"1336 609 OFFCURVE",
"1381 580 OFFCURVE",
"1420 544 CURVE",
"1459 507 OFFCURVE",
"1490 465 OFFCURVE",
"1513 416 CURVE",
"1536 367 OFFCURVE",
"1548 314 OFFCURVE",
"1548 258 CURVE",
"1548 241 LINE"
);
}
);
width = 1819;
}
);
leftKerningGroup = M;
note = uni040A;
rightKerningGroup = B;
unicode = 040A;
},
{
glyphname = "E-cy";
lastChange = "2018-09-25 23:54:54 +0000";
layers = (
{
layerId = "6992DDD3-6ECA-4BF7-B654-AC36925D8FF8";
paths = (
{
closed = 1;
nodes = (
"1130 1331 LINE",
"1130 1094 LINE",
"367 1093 LINE",
"367 899 LINE",
"782 899 LINE",
"789 887 LINE",
"789 662 LINE",
"367 662 LINE",
"367 489 LINE",
"367 368 OFFCURVE",
"491 287 OFFCURVE",
"622 255 CURVE",
"668 244 OFFCURVE",
"712 238 OFFCURVE",
"754 238 CURVE",
"913 238 OFFCURVE",
"1065 321 OFFCURVE",
"1154 454 CURVE",
"1226 176 LINE",
"1057 29 OFFCURVE",
"830 -28 OFFCURVE",
"607 13 CURVE",
"558 22 OFFCURVE",
"511 35 OFFCURVE",
"464 52 CURVE",
"418 69 OFFCURVE",
"374 91 OFFCURVE",
"333 116 CURVE",
"292 141 OFFCURVE",
"256 170 OFFCURVE",
"225 203 CURVE",
"194 236 OFFCURVE",
"170 272 OFFCURVE",
"152 313 CURVE",
"134 353 OFFCURVE",
"125 397 OFFCURVE",
"125 444 CURVE",
"125 1093 LINE",
"30 1093 LINE",
"30 1331 LINE"
);
}
);
width = 1256;
}
);
leftKerningGroup = E;
note = uni0404;
rightKerningGroup = C;
unicode = 0404;
},
{
glyphname = "Tshe-cy";
lastChange = "2018-09-25 23:55:28 +0000";
layers = (
{
layerId = "6992DDD3-6ECA-4BF7-B654-AC36925D8FF8";
paths = (
{
closed = 1;
nodes = (
"1535 465 OFFCURVE",
"1513 519 OFFCURVE",
"1484 568 CURVE",
"1456 617 OFFCURVE",
"1422 662 OFFCURVE",
"1381 702 CURVE",
"1341 742 OFFCURVE",
"1296 776 OFFCURVE",
"1247 804 CURVE",
"1198 833 OFFCURVE",
"1144 855 OFFCURVE",
"1087 870 CURVE",
"1030 885 OFFCURVE",
"971 893 OFFCURVE",
"908 893 CURVE",
"816 893 LINE",
"816 896 LINE",
"816 1087 LINE",
"1361 1087 LINE",
"1361 1326 LINE",
"30 1326 LINE",
"30 1087 LINE",
"577 1087 LINE",
"577 896 LINE",
"362 896 LINE",
"362 657 LINE",
"577 657 LINE",
"577 0 LINE",
"816 0 LINE",
"816 657 LINE",
"816 658 LINE",
"908 658 LINE",
"967 658 OFFCURVE",
"1023 647 OFFCURVE",
"1074 624 CURVE",
"1126 601 OFFCURVE",
"1171 570 OFFCURVE",
"1210 531 CURVE",
"1249 492 OFFCURVE",
"1280 447 OFFCURVE",
"1302 395 CURVE",
"1325 343 OFFCURVE",
"1336 287 OFFCURVE",
"1336 228 CURVE",
"1336 0 LINE",
"1574 0 LINE",
"1574 228 LINE",
"1574 291 OFFCURVE",
"1566 351 OFFCURVE",
"1550 408 CURVE"
);
}
);
width = 1604;
}
);
leftKerningGroup = T;
note = uni040B;
rightKerningGroup = B;
unicode = 040B;
},
{
glyphname = "Iu-cy";
lastChange = "2018-09-25 23:55:28 +0000";
layers = (
{
components = (
{
name = period;
transform = "{1, 0, 0, 1, 956, 546}";
}
);
layerId = "6992DDD3-6ECA-4BF7-B654-AC36925D8FF8";
paths = (
{
closed = 1;
nodes = (
"769 1386 OFFCURVE",
"472 1125 OFFCURVE",
"416 783 CURVE",
"269 783 LINE",
"269 1331 LINE",
"30 1331 LINE",
"30 0 LINE",
"269 0 LINE",
"269 548 LINE",
"416 548 LINE",
"472 206 OFFCURVE",
"769 -55 OFFCURVE",
"1126 -55 CURVE",
"1524 -55 OFFCURVE",
"1846 268 OFFCURVE",
"1846 666 CURVE",
"1846 1063 OFFCURVE",
"1524 1386 OFFCURVE",
"1126 1386 CURVE"
);
},
{
closed = 1;
nodes = (
"1365 253 OFFCURVE",
"1249 205 OFFCURVE",
"1126 205 CURVE",
"1003 205 OFFCURVE",
"888 253 OFFCURVE",
"800 340 CURVE",
"713 427 OFFCURVE",
"665 542 OFFCURVE",
"665 666 CURVE",
"665 920 OFFCURVE",
"872 1126 OFFCURVE",
"1126 1126 CURVE",
"1381 1126 OFFCURVE",
"1587 920 OFFCURVE",
"1587 666 CURVE",
"1587 542 OFFCURVE",
"1539 427 OFFCURVE",
"1452 340 CURVE"
);
}
);
width = 1876;
}
);
leftKerningGroup = M;
note = uni042E;
rightKerningGroup = O;
unicode = 042E;
},
{
glyphname = "Ia-cy";
lastChange = "2018-09-25 23:55:28 +0000";
layers = (
{
layerId = "6992DDD3-6ECA-4BF7-B654-AC36925D8FF8";
paths = (
{
closed = 1;
nodes = (
"1217 1326 LINE",
"69 1326 LINE",
"69 1266 OFFCURVE",
"77 1210 OFFCURVE",
"93 1154 CURVE",
"108 1098 OFFCURVE",
"130 1045 OFFCURVE",
"159 996 CURVE",
"188 947 OFFCURVE",
"222 903 OFFCURVE",
"262 862 CURVE",
"302 822 OFFCURVE",
"346 787 OFFCURVE",
"395 758 CURVE",
"428 739 OFFCURVE",
"462 722 OFFCURVE",
"498 709 CURVE",
"30 0 LINE",
"313 0 LINE",
"752 665 LINE",
"828 665 LINE",
"828 0 LINE",
"1069 0 LINE",
"1069 665 LINE",
"1143 665 LINE",
"1143 906 LINE",
"1069 906 LINE",
"1069 1085 LINE",
"1217 1085 LINE"
);
},
{
closed = 1;
nodes = (
"678 904 OFFCURVE",
"623 915 OFFCURVE",
"572 936 CURVE",
"521 957 OFFCURVE",
"476 986 OFFCURVE",
"437 1022 CURVE",
"416 1041 OFFCURVE",
"398 1062 OFFCURVE",
"382 1085 CURVE",
"828 1085 LINE",
"828 904 LINE",
"735 904 LINE"
);
}
);
width = 1247;
}
);
leftKerningGroup = M;
note = uni042F;
rightKerningGroup = A;
unicode = 042F;
},
{
glyphname = "Dje-cy";
lastChange = "2018-09-25 23:55:28 +0000";
layers = (
{
layerId = "6992DDD3-6ECA-4BF7-B654-AC36925D8FF8";
paths = (
{
closed = 1;
nodes = (
"1535 465 OFFCURVE",
"1513 519 OFFCURVE",
"1484 568 CURVE",
"1456 617 OFFCURVE",
"1422 662 OFFCURVE",
"1381 702 CURVE",
"1341 742 OFFCURVE",
"1296 776 OFFCURVE",
"1247 804 CURVE",
"1198 833 OFFCURVE",
"1144 855 OFFCURVE",
"1087 870 CURVE",
"1030 885 OFFCURVE",
"971 893 OFFCURVE",
"908 893 CURVE",
"816 893 LINE",
"816 896 LINE",
"816 1087 LINE",
"1361 1087 LINE",
"1361 1326 LINE",
"30 1326 LINE",
"30 1087 LINE",
"577 1087 LINE",
"577 896 LINE",
"362 896 LINE",
"362 657 LINE",
"577 657 LINE",
"577 0 LINE",
"816 0 LINE",
"816 657 LINE",
"816 658 LINE",
"908 658 LINE",
"967 658 OFFCURVE",
"1023 647 OFFCURVE",
"1074 624 CURVE",
"1126 601 OFFCURVE",
"1171 570 OFFCURVE",
"1210 531 CURVE",
"1249 492 OFFCURVE",
"1280 447 OFFCURVE",
"1302 395 CURVE",
"1323 347 OFFCURVE",
"1334 295 OFFCURVE",
"1336 241 CURVE",
"1178 241 LINE",
"1178 315 LINE",
"937 315 LINE",
"937 0 LINE",
"1574 0 LINE",
"1574 228 LINE",
"1574 291 OFFCURVE",
"1566 351 OFFCURVE",
"1550 408 CURVE"
);
}
);
width = 1604;
}
);
leftKerningGroup = T;
note = uni0402;
rightKerningGroup = B;
unicode = 0402;
},
{
glyphname = "Yat-cy";
lastChange = "2018-09-25 23:55:28 +0000";
layers = (
{
layerId = "6992DDD3-6ECA-4BF7-B654-AC36925D8FF8";
paths = (
{
closed = 1;
nodes = (
"1104 297 OFFCURVE",
"1096 355 OFFCURVE",
"1080 412 CURVE",
"1065 468 OFFCURVE",
"1043 521 OFFCURVE",
"1014 570 CURVE",
"985 619 OFFCURVE",
"951 663 OFFCURVE",
"911 704 CURVE",
"871 744 OFFCURVE",
"827 779 OFFCURVE",
"778 808 CURVE",
"729 837 OFFCURVE",
"677 859 OFFCURVE",
"621 876 CURVE",
"566 892 OFFCURVE",
"508 900 OFFCURVE",
"447 901 CURVE",
"344 901 LINE",
"344 994 LINE",
"418 994 LINE",
"418 1231 LINE",
"344 1231 LINE",
"344 1326 LINE",
"104 1326 LINE",
"104 1231 LINE",
"30 1231 LINE",
"30 994 LINE",
"104 994 LINE",
"104 901 LINE",
"30 901 LINE",
"30 662 LINE",
"31 662 LINE",
"104 662 LINE",
"104 0 LINE",
"105 0 LINE",
"1104 0 LINE",
"1105 0 LINE",
"1105 236 LINE",
"1104 236 LINE"
);
},
{
closed = 1;
nodes = (
"344 240 LINE",
"344 662 LINE",
"438 662 LINE",
"495 662 OFFCURVE",
"550 651 OFFCURVE",
"601 630 CURVE",
"652 609 OFFCURVE",
"697 580 OFFCURVE",
"736 544 CURVE",
"775 507 OFFCURVE",
"806 465 OFFCURVE",
"829 416 CURVE",
"852 367 OFFCURVE",
"864 314 OFFCURVE",
"864 258 CURVE",
"864 240 LINE"
);
}
);
width = 1135;
}
);
leftKerningGroup = B;
note = uni0462;
rightKerningGroup = B;
unicode = 0462;
},
{
glyphname = "Yusbig-cy";
lastChange = "2018-09-25 23:55:28 +0000";
layers = (
{
layerId = "6992DDD3-6ECA-4BF7-B654-AC36925D8FF8";
paths = (
{
closed = 1;
nodes = (
"1273 904 LINE",
"1215 904 LINE",
"1527 1327 LINE",
"373 1327 LINE",
"685 904 LINE",
"628 904 LINE",
"30 0 LINE",
"313 0 LINE",
"753 666 LINE",
"829 666 LINE",
"829 0 LINE",
"1070 0 LINE",
"1072 666 LINE",
"1148 666 LINE",
"1588 0 LINE",
"1805 0 LINE",
"1805 238 LINE",
"1714 238 LINE"
);
},
{
closed = 1;
nodes = (
"950 952 LINE",
"853 1085 LINE",
"1047 1085 LINE"
);
}
);
width = 1835;
}
);
leftKerningGroup = X;
note = uni046A;
rightKerningGroup = X;
unicode = 046A;
},
{
glyphname = "Izhitsa-cy";
lastChange = "2018-09-25 23:55:28 +0000";
layers = (
{
layerId = "6992DDD3-6ECA-4BF7-B654-AC36925D8FF8";
paths = (
{
closed = 1;
nodes = (
"629 1089 LINE",
"751 1089 LINE",
"270 363 LINE",
"270 1326 LINE",
"30 1326 LINE",
"30 0 LINE",
"314 1 LINE",
"1033 1089 LINE",
"1033 1326 LINE",
"1033 1327 LINE",
"629 1326 LINE"
);
}
);
width = 1063;
}
);
leftKerningGroup = M;
note = uni0474;
rightKerningGroup = P;
unicode = 0474;
},
{
glyphname = "Ghestroke-cy";
lastChange = "2018-09-25 23:55:28 +0000";
layers = (
{
layerId = "6992DDD3-6ECA-4BF7-B654-AC36925D8FF8";
paths = (
{
closed = 1;
nodes = (
"30 1326 LINE",
"30 1085 LINE",
"177 1085 LINE",
"177 995 LINE",
"103 995 LINE",
"103 754 LINE",
"177 754 LINE",
"177 0 LINE",
"418 0 LINE",
"418 754 LINE",
"491 754 LINE",
"491 995 LINE",
"418 995 LINE",
"418 1085 LINE",
"1102 1085 LINE",
"1102 1326 LINE"
);
}
);
width = 1132;
}
);
leftKerningGroup = B;
note = uni0492;
rightKerningGroup = T;
unicode = 0492;
},
{
glyphname = "Ghemiddlehook-cy";
lastChange = "2018-09-25 23:55:28 +0000";
layers = (
{
layerId = "6992DDD3-6ECA-4BF7-B654-AC36925D8FF8";
paths = (
{
closed = 1;
nodes = (
"1136 465 OFFCURVE",
"1114 519 OFFCURVE",
"1085 568 CURVE",
"1057 617 OFFCURVE",
"1023 662 OFFCURVE",
"982 702 CURVE",
"942 742 OFFCURVE",
"897 776 OFFCURVE",
"848 804 CURVE",
"799 833 OFFCURVE",
"745 855 OFFCURVE",
"688 870 CURVE",
"631 885 OFFCURVE",
"572 893 OFFCURVE",
"509 893 CURVE",
"418 893 LINE",
"418 1085 LINE",
"1102 1085 LINE",
"1102 1326 LINE",
"30 1326 LINE",
"30 1085 LINE",
"177 1085 LINE",
"177 0 LINE",
"418 0 LINE",
"418 658 LINE",
"509 658 LINE",
"568 658 OFFCURVE",
"624 647 OFFCURVE",
"675 624 CURVE",
"727 601 OFFCURVE",
"772 570 OFFCURVE",
"811 531 CURVE",
"850 492 OFFCURVE",
"881 447 OFFCURVE",
"903 395 CURVE",
"924 347 OFFCURVE",
"935 295 OFFCURVE",
"937 241 CURVE",
"538 241 LINE",
"538 0 LINE",
"1175 0 LINE",
"1175 228 LINE",
"1175 291 OFFCURVE",
"1167 351 OFFCURVE",
"1151 408 CURVE"
);
}
);
width = 1205;
}
);
leftKerningGroup = B;
note = uni0494;
rightKerningGroup = B;
unicode = 0494;
},
{
glyphname = "Zhedescender-cy";
lastChange = "2018-09-25 23:55:28 +0000";
layers = (
{
layerId = "6992DDD3-6ECA-4BF7-B654-AC36925D8FF8";
paths = (
{
closed = 1;
nodes = (
"1400 712 LINE",
"1646 808 OFFCURVE",
"1820 1047 OFFCURVE",
"1820 1327 CURVE",
"1583 1327 LINE",
"1583 1214 OFFCURVE",
"1539 1108 OFFCURVE",
"1459 1028 CURVE",
"1404 973 OFFCURVE",
"1337 936 OFFCURVE",
"1265 917 CURVE",
"1151 1089 LINE",
"1272 1089 LINE",
"1272 1327 LINE",
"629 1327 LINE",
"629 1089 LINE",
"750 1089 LINE",
"636 917 LINE",
"564 936 OFFCURVE",
"497 973 OFFCURVE",
"442 1028 CURVE",
"362 1108 OFFCURVE",
"318 1214 OFFCURVE",
"318 1327 CURVE",
"34 1327 LINE",
"34 1089 LINE",
"125 1089 LINE",
"191 917 OFFCURVE",
"328 779 OFFCURVE",
"501 712 CURVE",
"30 0 LINE",
"313 0 LINE",
"753 666 LINE",
"829 666 LINE",
"829 0 LINE",
"1070 0 LINE",
"1072 666 LINE",
"1148 666 LINE",
"1588 0 LINE",
"1683 0 LINE",
"1683 -147 LINE",
"1922 -147 LINE",
"1922 -17 LINE",
"1922 46 LINE",
"1922 238 LINE",
"1713 238 LINE"
);
},
{
closed = 1;
nodes = (
"950 965 LINE",
"991 904 LINE",
"910 904 LINE"
);
}
);
width = 1952;
}
);
leftKerningGroup = X;
note = uni0496;
rightKerningGroup = X;
unicode = 0496;
},
{
glyphname = "Zedescender-cy";
lastChange = "2018-09-25 23:55:28 +0000";
layers = (
{
layerId = "6992DDD3-6ECA-4BF7-B654-AC36925D8FF8";
paths = (
{
closed = 1;
nodes = (
"1035 899 LINE",
"662 899 LINE",
"790 1094 LINE",
"947 1094 LINE",
"947 1331 LINE",
"30 1331 LINE",
"30 1094 LINE",
"507 1094 LINE",
"222 662 LINE",
"793 662 LINE",
"787 450 LINE",
"777 398 OFFCURVE",
"751 350 OFFCURVE",
"713 311 CURVE",
"661 260 OFFCURVE",
"593 231 OFFCURVE",
"520 231 CURVE",
"320 231 LINE",
"320 373 LINE",
"89 373 LINE",
"89 0 LINE",
"465 0 LINE",
"465 -145 LINE",
"706 -145 LINE",
"706 35 LINE",
"896 108 OFFCURVE",
"1036 290 OFFCURVE",
"1036 503 CURVE"
);
}
);
width = 1066;
}
);
leftKerningGroup = Ze;
note = uni0498;
rightKerningGroup = M;
unicode = 0498;
},
{
glyphname = "Kadescender-cy";
lastChange = "2018-09-25 23:55:28 +0000";
layers = (
{
layerId = "6992DDD3-6ECA-4BF7-B654-AC36925D8FF8";
paths = (
{
closed = 1;
nodes = (
"740 710 LINE",
"986 806 OFFCURVE",
"1160 1045 OFFCURVE",
"1160 1325 CURVE",
"923 1325 LINE",
"923 1212 OFFCURVE",
"879 1106 OFFCURVE",
"799 1026 CURVE",
"719 946 OFFCURVE",
"613 903 OFFCURVE",
"501 903 CURVE",
"418 903 LINE",
"419 1326 LINE",
"30 1326 LINE",
"30 1088 LINE",
"176 1088 LINE",
"176 903 LINE",
"102 903 LINE",
"102 665 LINE",
"176 665 LINE",
"176 0 LINE",
"417 0 LINE",
"418 665 LINE",
"489 665 LINE",
"928 0 LINE",
"981 0 LINE",
"981 -147 LINE",
"1220 -147 LINE",
"1220 238 LINE",
"1053 238 LINE"
);
}
);
width = 1250;
}
);
leftKerningGroup = B;
note = uni049A;
rightKerningGroup = X;
unicode = 049A;
},
{
glyphname = "Kaverticalstroke-cy";
lastChange = "2018-09-25 23:55:28 +0000";
layers = (
{
layerId = "6992DDD3-6ECA-4BF7-B654-AC36925D8FF8";
paths = (
{
closed = 1;
nodes = (
"986 806 OFFCURVE",
"1160 1045 OFFCURVE",
"1160 1325 CURVE",
"923 1325 LINE",
"923 1212 OFFCURVE",
"879 1106 OFFCURVE",
"799 1026 CURVE",
"770 997 OFFCURVE",
"737 972 OFFCURVE",
"702 953 CURVE",
"702 1087 LINE",
"463 1087 LINE",
"463 903 LINE",
"418 903 LINE",
"419 1326 LINE",
"30 1326 LINE",
"30 1088 LINE",
"176 1088 LINE",
"176 903 LINE",
"102 903 LINE",
"102 665 LINE",
"176 665 LINE",
"176 0 LINE",
"417 0 LINE",
"418 665 LINE",
"489 665 LINE",
"928 0 LINE",
"1146 0 LINE",
"1146 237 LINE",
"1054 237 LINE",
"740 710 LINE"
);
}
);
width = 1190;
}
);
leftKerningGroup = B;
note = uni049C;
rightKerningGroup = X;
unicode = 049C;
},
{
glyphname = "Kabashkir-cy";
lastChange = "2018-09-25 23:55:28 +0000";
layers = (
{
layerId = "6992DDD3-6ECA-4BF7-B654-AC36925D8FF8";
paths = (
{
closed = 1;
nodes = (
"783 710 LINE",
"1029 806 OFFCURVE",
"1203 1045 OFFCURVE",
"1203 1325 CURVE",
"966 1325 LINE",
"966 1212 OFFCURVE",
"922 1106 OFFCURVE",
"842 1026 CURVE",
"762 946 OFFCURVE",
"656 903 OFFCURVE",
"544 903 CURVE",
"461 903 LINE",
"462 1326 LINE",
"30 1326 LINE",
"30 1088 LINE",
"219 1088 LINE",
"219 903 LINE",
"145 903 LINE",
"145 665 LINE",
"219 665 LINE",
"219 0 LINE",
"460 0 LINE",
"461 665 LINE",
"532 665 LINE",
"971 0 LINE",
"1189 0 LINE",
"1189 237 LINE",
"1097 237 LINE"
);
}
);
width = 1233;
}
);
leftKerningGroup = B;
note = uni04A0;
rightKerningGroup = X;
unicode = 04A0;
},
{
glyphname = "Endescender-cy";
lastChange = "2018-09-25 23:55:48 +0000";
layers = (
{
layerId = "6992DDD3-6ECA-4BF7-B654-AC36925D8FF8";
paths = (
{
closed = 1;
nodes = (
"1119 898 LINE",
"1028 898 LINE",
"1028 1327 LINE",
"789 1327 LINE",
"789 898 LINE",
"692 898 LINE",
"611 898 OFFCURVE",
"534 884 OFFCURVE",
"463 857 CURVE",
"391 830 OFFCURVE",
"326 793 OFFCURVE",
"269 746 CURVE",
"269 1327 LINE",
"30 1327 LINE",
"30 0 LINE",
"269 0 LINE",
"269 257 LINE",
"269 313 OFFCURVE",
"285 366 OFFCURVE",
"308 415 CURVE",
"331 464 OFFCURVE",
"362 507 OFFCURVE",
"401 544 CURVE",
"439 580 OFFCURVE",
"483 609 OFFCURVE",
"534 630 CURVE",
"584 651 OFFCURVE",
"638 662 OFFCURVE",
"696 662 CURVE",
"789 662 LINE",
"789 0 LINE",
"880 0 LINE",
"880 -145 LINE",
"1119 -145 LINE",
"1119 240 LINE",
"1028 240 LINE",
"1028 662 LINE",
"1119 662 LINE"
);
}
);
width = 1149;
}
);
leftKerningGroup = M;
note = uni04A2;
rightKerningGroup = H;
unicode = 04A2;
},
{
glyphname = "Enghe-cy";
lastChange = "2018-09-25 23:55:48 +0000";
layers = (
{
layerId = "6992DDD3-6ECA-4BF7-B654-AC36925D8FF8";
paths = (
{
closed = 1;
nodes = (
"642 1327 LINE",
"642 1086 LINE",
"789 1086 LINE",
"789 898 LINE",
"692 898 LINE",
"611 898 OFFCURVE",
"534 884 OFFCURVE",
"463 857 CURVE",
"391 830 OFFCURVE",
"326 793 OFFCURVE",
"269 746 CURVE",
"269 1327 LINE",
"30 1327 LINE",
"30 0 LINE",
"269 0 LINE",
"269 257 LINE",
"269 313 OFFCURVE",
"285 366 OFFCURVE",
"308 415 CURVE",
"331 464 OFFCURVE",
"362 507 OFFCURVE",
"401 544 CURVE",
"439 580 OFFCURVE",
"483 609 OFFCURVE",
"534 630 CURVE",
"584 651 OFFCURVE",
"638 662 OFFCURVE",
"696 662 CURVE",
"789 662 LINE",
"789 1 LINE",
"1028 0 LINE",
"1028 1 LINE",
"1030 1 LINE",
"1030 1086 LINE",
"1714 1086 LINE",
"1714 1327 LINE"
);
}
);
width = 1744;
}
);
leftKerningGroup = M;
note = uni04A4;
rightKerningGroup = T;
unicode = 04A4;
},
{
glyphname = "Esdescender-cy";
lastChange = "2018-09-25 23:55:48 +0000";
layers = (
{
layerId = "6992DDD3-6ECA-4BF7-B654-AC36925D8FF8";
paths = (
{
closed = 1;
nodes = (
"1150 390 LINE",
"1132 363 OFFCURVE",
"1112 339 OFFCURVE",
"1089 316 CURVE",
"999 226 OFFCURVE",
"878 176 OFFCURVE",
"750 176 CURVE",
"622 176 OFFCURVE",
"501 226 OFFCURVE",
"411 316 CURVE",
"320 407 OFFCURVE",
"270 527 OFFCURVE",
"270 656 CURVE",
"270 784 OFFCURVE",
"320 904 OFFCURVE",
"411 995 CURVE",
"501 1086 OFFCURVE",
"622 1136 OFFCURVE",
"750 1136 CURVE",
"808 1136 OFFCURVE",
"865 1126 OFFCURVE",
"918 1106 CURVE",
"918 890 LINE",
"1158 890 LINE",
"1158 1249 LINE",
"1042 1329 OFFCURVE",
"902 1376 OFFCURVE",
"750 1376 CURVE",
"352 1376 OFFCURVE",
"30 1053 OFFCURVE",
"30 656 CURVE",
"30 309 OFFCURVE",
"275 20 OFFCURVE",
"601 -49 CURVE",
"601 -145 LINE",
"845 -145 LINE",
"845 -58 LINE",
"988 -39 OFFCURVE",
"1118 21 OFFCURVE",
"1222 112 CURVE"
);
}
);
width = 1252;
}
);
leftKerningGroup = O;
note = uni04AA;
rightKerningGroup = C;
unicode = 04AA;
},
{
glyphname = "Ustraitstroke-cy";
lastChange = "2018-09-25 23:55:48 +0000";
layers = (
{
layerId = "6992DDD3-6ECA-4BF7-B654-AC36925D8FF8";
paths = (
{
closed = 1;
nodes = (
"1119 1326 LINE",
"1119 1210 OFFCURVE",
"1077 1104 OFFCURVE",
"996 1023 CURVE",
"916 943 OFFCURVE",
"809 898 OFFCURVE",
"695 898 CURVE",
"580 898 OFFCURVE",
"473 943 OFFCURVE",
"393 1023 CURVE",
"312 1104 OFFCURVE",
"270 1210 OFFCURVE",
"270 1326 CURVE",
"30 1326 LINE",
"30 1000 OFFCURVE",
"262 727 OFFCURVE",
"573 670 CURVE",
"573 478 LINE",
"499 478 LINE",
"499 237 LINE",
"573 237 LINE",
"573 0 LINE",
"813 0 LINE",
"813 237 LINE",
"888 237 LINE",
"888 478 LINE",
"813 478 LINE",
"813 669 LINE",
"1125 725 OFFCURVE",
"1359 998 OFFCURVE",
"1359 1326 CURVE"
);
}
);
width = 1389;
}
);
leftKerningGroup = Y;
note = uni04B0;
rightKerningGroup = Y;
unicode = 04B0;
},
{
glyphname = "Chedescender-cy";
lastChange = "2018-09-25 23:55:48 +0000";
layers = (
{
layerId = "6992DDD3-6ECA-4BF7-B654-AC36925D8FF8";
paths = (
{
closed = 1;
nodes = (
"1030 661 LINE",
"1104 661 LINE",
"1104 900 LINE",
"1030 900 LINE",
"1029 1326 LINE",
"790 1326 LINE",
"790 905 LINE",
"696 905 LINE",
"639 905 OFFCURVE",
"584 916 OFFCURVE",
"533 937 CURVE",
"482 958 OFFCURVE",
"437 987 OFFCURVE",
"398 1023 CURVE",
"359 1060 OFFCURVE",
"328 1102 OFFCURVE",
"305 1151 CURVE",
"282 1200 OFFCURVE",
"270 1253 OFFCURVE",
"270 1309 CURVE",
"270 1326 LINE",
"30 1326 LINE",
"31 1267 OFFCURVE",
"39 1210 OFFCURVE",
"54 1155 CURVE",
"69 1099 OFFCURVE",
"91 1046 OFFCURVE",
"120 997 CURVE",
"149 948 OFFCURVE",
"183 904 OFFCURVE",
"223 863 CURVE",
"263 823 OFFCURVE",
"307 788 OFFCURVE",
"356 759 CURVE",
"405 730 OFFCURVE",
"457 708 OFFCURVE",
"513 691 CURVE",
"568 675 OFFCURVE",
"626 667 OFFCURVE",
"687 666 CURVE",
"790 666 LINE",
"790 0 LINE",
"881 0 LINE",
"881 -145 LINE",
"1120 -145 LINE",
"1120 240 LINE",
"1030 240 LINE"
);
}
);
width = 1150;
}
);
leftKerningGroup = Y;
note = uni04B6;
rightKerningGroup = H;
unicode = 04B6;
},
{
glyphname = "Cheverticalstroke-cy";
lastChange = "2018-09-25 23:55:48 +0000";
layers = (
{
layerId = "6992DDD3-6ECA-4BF7-B654-AC36925D8FF8";
paths = (
{
closed = 1;
nodes = (
"1029 1326 LINE",
"790 1326 LINE",
"790 905 LINE",
"705 905 LINE",
"705 1087 LINE",
"463 1087 LINE",
"463 973 LINE",
"439 988 OFFCURVE",
"418 1004 OFFCURVE",
"398 1023 CURVE",
"359 1060 OFFCURVE",
"328 1102 OFFCURVE",
"305 1151 CURVE",
"282 1200 OFFCURVE",
"270 1253 OFFCURVE",
"270 1309 CURVE",
"270 1326 LINE",
"30 1326 LINE",
"31 1267 OFFCURVE",
"39 1210 OFFCURVE",
"54 1155 CURVE",
"69 1099 OFFCURVE",
"91 1046 OFFCURVE",
"120 997 CURVE",
"149 948 OFFCURVE",
"183 904 OFFCURVE",
"223 863 CURVE",
"263 823 OFFCURVE",
"307 788 OFFCURVE",
"356 759 CURVE",
"390 739 OFFCURVE",
"425 722 OFFCURVE",
"463 708 CURVE",
"463 579 LINE",
"705 579 LINE",
"705 666 LINE",
"790 666 LINE",
"790 0 LINE",
"1030 0 LINE",
"1030 661 LINE",
"1104 661 LINE",
"1104 900 LINE",
"1030 900 LINE"
);
}
);
width = 1134;
}
);
leftKerningGroup = Y;
note = uni04B8;
rightKerningGroup = H;
unicode = 04B8;
},
{
glyphname = "Shha-cy";
lastChange = "2018-09-25 23:55:48 +0000";
layers = (
{
layerId = "6992DDD3-6ECA-4BF7-B654-AC36925D8FF8";
paths = (
{
closed = 1;
nodes = (
"1062 465 OFFCURVE",
"1040 519 OFFCURVE",
"1011 568 CURVE",
"983 617 OFFCURVE",
"949 662 OFFCURVE",
"908 702 CURVE",
"868 742 OFFCURVE",
"823 776 OFFCURVE",
"774 804 CURVE",
"725 833 OFFCURVE",
"671 855 OFFCURVE",
"614 870 CURVE",
"557 885 OFFCURVE",
"498 893 OFFCURVE",
"435 893 CURVE",
"343 893 LINE",
"343 896 LINE",
"343 1326 LINE",
"104 1326 LINE",
"104 896 LINE",
"30 896 LINE",
"30 657 LINE",
"104 657 LINE",
"104 0 LINE",
"343 0 LINE",
"343 657 LINE",
"343 658 LINE",
"435 658 LINE",
"494 658 OFFCURVE",
"550 647 OFFCURVE",
"601 624 CURVE",
"653 601 OFFCURVE",
"698 570 OFFCURVE",
"737 531 CURVE",
"776 492 OFFCURVE",
"807 447 OFFCURVE",
"829 395 CURVE",
"852 343 OFFCURVE",
"863 287 OFFCURVE",
"863 228 CURVE",
"863 0 LINE",
"1101 0 LINE",
"1101 228 LINE",
"1101 291 OFFCURVE",
"1093 351 OFFCURVE",
"1077 408 CURVE"
);
}
);
width = 1131;
}
);
leftKerningGroup = B;
note = uni04BA;
rightKerningGroup = B;
unicode = 04BA;
},
{
glyphname = "Chekhakassian-cy";
lastChange = "2018-09-25 23:55:48 +0000";
layers = (
{
layerId = "6992DDD3-6ECA-4BF7-B654-AC36925D8FF8";
paths = (
{
closed = 1;
nodes = (
"1029 1326 LINE",
"790 1326 LINE",
"790 905 LINE",
"696 905 LINE",
"639 905 OFFCURVE",
"584 916 OFFCURVE",
"533 937 CURVE",
"482 958 OFFCURVE",
"437 987 OFFCURVE",
"398 1023 CURVE",
"359 1060 OFFCURVE",
"328 1102 OFFCURVE",
"305 1151 CURVE",
"282 1200 OFFCURVE",
"270 1253 OFFCURVE",
"270 1309 CURVE",
"270 1326 LINE",
"30 1326 LINE",
"31 1267 OFFCURVE",
"39 1210 OFFCURVE",
"54 1155 CURVE",
"69 1099 OFFCURVE",
"91 1046 OFFCURVE",
"120 997 CURVE",
"149 948 OFFCURVE",
"183 904 OFFCURVE",
"223 863 CURVE",
"263 823 OFFCURVE",
"307 788 OFFCURVE",
"356 759 CURVE",
"405 730 OFFCURVE",
"457 708 OFFCURVE",
"513 691 CURVE",
"568 675 OFFCURVE",
"626 667 OFFCURVE",
"687 666 CURVE",
"790 666 LINE",
"790 241 LINE",
"700 241 LINE",
"700 -145 LINE",
"940 -145 LINE",
"940 0 LINE",
"1030 0 LINE",
"1030 661 LINE",
"1104 661 LINE",
"1104 900 LINE",
"1030 900 LINE"
);
}
);
width = 1134;
}
);
leftKerningGroup = Y;
note = uni04CB;
rightKerningGroup = H;
unicode = 04CB;
},
{
glyphname = "Imacron-cy";
lastChange = "2018-09-25 23:56:26 +0000";
layers = (
{
components = (
{
alignment = -1;
name = "Ii-cy";
transform = "{1, 0, 0, 1, 10, 0}";
}
);
layerId = "6992DDD3-6ECA-4BF7-B654-AC36925D8FF8";
paths = (
{
closed = 1;
nodes = (
"1021 1424 LINE",
"1021 1662 LINE",
"30 1662 LINE",
"30 1424 LINE"
);
}
);
width = 1071;
}
);
leftKerningGroup = M;
note = uni04E2;
rightKerningGroup = M;
unicode = 04E2;
},
{
glyphname = "Obarred-cy";
lastChange = "2018-09-25 23:56:26 +0000";
layers = (
{
layerId = "6992DDD3-6ECA-4BF7-B654-AC36925D8FF8";
paths = (
{
closed = 1;
nodes = (
"1429 908 OFFCURVE",
"1404 966 OFFCURVE",
"1373 1019 CURVE SMOOTH",
"1342 1072 OFFCURVE",
"1304 1121 OFFCURVE",
"1260 1165 CURVE SMOOTH",
"1216 1209 OFFCURVE",
"1167 1247 OFFCURVE",
"1114 1278 CURVE SMOOTH",
"1061 1309 OFFCURVE",
"1003 1333 OFFCURVE",
"942 1350 CURVE SMOOTH",
"881 1367 OFFCURVE",
"817 1376 OFFCURVE",
"751 1376 CURVE SMOOTH",
"685 1376 OFFCURVE",
"621 1367 OFFCURVE",
"560 1350 CURVE SMOOTH",
"499 1333 OFFCURVE",
"441 1309 OFFCURVE",
"388 1278 CURVE SMOOTH",
"335 1247 OFFCURVE",
"286 1209 OFFCURVE",
"242 1165 CURVE SMOOTH",
"198 1121 OFFCURVE",
"160 1072 OFFCURVE",
"129 1019 CURVE SMOOTH",
"98 966 OFFCURVE",
"73 908 OFFCURVE",
"56 847 CURVE SMOOTH",
"39 786 OFFCURVE",
"30 722 OFFCURVE",
"30 656 CURVE SMOOTH",
"30 590 OFFCURVE",
"39 526 OFFCURVE",
"56 465 CURVE SMOOTH",
"73 404 OFFCURVE",
"98 346 OFFCURVE",
"129 293 CURVE SMOOTH",
"160 240 OFFCURVE",
"198 191 OFFCURVE",
"242 147 CURVE SMOOTH",
"286 103 OFFCURVE",
"335 66 OFFCURVE",
"388 35 CURVE SMOOTH",
"441 4 OFFCURVE",
"499 -21 OFFCURVE",
"560 -38 CURVE SMOOTH",
"621 -55 OFFCURVE",
"685 -64 OFFCURVE",
"751 -64 CURVE SMOOTH",
"817 -64 OFFCURVE",
"881 -55 OFFCURVE",
"942 -38 CURVE SMOOTH",
"1003 -21 OFFCURVE",
"1061 4 OFFCURVE",
"1114 35 CURVE SMOOTH",
"1167 66 OFFCURVE",
"1216 103 OFFCURVE",
"1260 147 CURVE SMOOTH",
"1304 191 OFFCURVE",
"1342 240 OFFCURVE",
"1373 293 CURVE SMOOTH",
"1404 346 OFFCURVE",
"1429 404 OFFCURVE",
"1446 465 CURVE SMOOTH",
"1463 526 OFFCURVE",
"1472 590 OFFCURVE",
"1472 656 CURVE SMOOTH",
"1472 722 OFFCURVE",
"1463 786 OFFCURVE",
"1446 847 CURVE SMOOTH"
);
},
{
closed = 1;
nodes = (
"456 1037 OFFCURVE",
"507 1072 OFFCURVE",
"566 1098 CURVE SMOOTH",
"624 1123 OFFCURVE",
"686 1136 OFFCURVE",
"751 1136 CURVE SMOOTH",
"816 1136 OFFCURVE",
"878 1123 OFFCURVE",
"936 1098 CURVE SMOOTH",
"994 1072 OFFCURVE",
"1045 1037 OFFCURVE",
"1089 994 CURVE SMOOTH",
"1132 950 OFFCURVE",
"1167 899 OFFCURVE",
"1193 841 CURVE SMOOTH",
"1211 798 OFFCURVE",
"1223 753 OFFCURVE",
"1228 707 CURVE SMOOTH",
"1193 693 OFFCURVE",
"1155 684 OFFCURVE",
"1114 679 CURVE SMOOTH",
"1036 669 OFFCURVE",
"958 679 OFFCURVE",
"890 712 CURVE SMOOTH",
"832 739 OFFCURVE",
"718 800 OFFCURVE",
"656 816 CURVE SMOOTH",
"541 847 OFFCURVE",
"414 842 OFFCURVE",
"295 804 CURVE SMOOTH",
"299 816 OFFCURVE",
"304 829 OFFCURVE",
"309 841 CURVE SMOOTH",
"334 899 OFFCURVE",
"369 950 OFFCURVE",
"413 994 CURVE SMOOTH"
);
},
{
closed = 1;
nodes = (
"1044 270 OFFCURVE",
"992 235 OFFCURVE",
"935 211 CURVE SMOOTH",
"877 187 OFFCURVE",
"816 175 OFFCURVE",
"751 175 CURVE SMOOTH",
"685 175 OFFCURVE",
"623 188 OFFCURVE",
"565 214 CURVE SMOOTH",
"506 239 OFFCURVE",
"455 274 OFFCURVE",
"412 318 CURVE SMOOTH",
"369 361 OFFCURVE",
"334 412 OFFCURVE",
"309 471 CURVE SMOOTH",
"299 493 OFFCURVE",
"292 515 OFFCURVE",
"286 538 CURVE SMOOTH",
"389 595 OFFCURVE",
"512 608 OFFCURVE",
"621 577 CURVE SMOOTH",
"687 558 OFFCURVE",
"811 486 OFFCURVE",
"870 463 CURVE SMOOTH",
"959 429 OFFCURVE",
"1070 423 OFFCURVE",
"1183 446 CURVE SMOOTH",
"1160 398 OFFCURVE",
"1129 355 OFFCURVE",
"1091 315 CURVE SMOOTH"
);
}
);
width = 1502;
}
);
leftKerningGroup = O;
note = uni04E8;
rightKerningGroup = O;
unicode = 04E8;
},
{
glyphname = "Umacron-cy";
lastChange = "2018-09-25 23:56:26 +0000";
layers = (
{
components = (
{
alignment = -1;
name = "U-cy";
transform = "{1, 0, 0, 1, 10, 0}";
}
);
layerId = "6992DDD3-6ECA-4BF7-B654-AC36925D8FF8";
paths = (
{
closed = 1;
nodes = (
"891 1424 LINE",
"891 1662 LINE",
"30 1662 LINE",
"30 1424 LINE"
);
}
);
width = 1024;
}
);
leftKerningGroup = Ze;
note = uni04EE;
rightKerningGroup = H;
unicode = 04EE;
},
{
glyphname = "Gedescender-cy";
lastChange = "2018-09-25 23:56:26 +0000";
layers = (
{
layerId = "6992DDD3-6ECA-4BF7-B654-AC36925D8FF8";
paths = (
{
closed = 1;
nodes = (
"1102 1472 LINE",
"30 1472 LINE",
"30 1231 LINE",
"177 1231 LINE",
"177 146 LINE",
"268 146 LINE",
"268 0 LINE",
"507 0 LINE",
"507 385 LINE",
"418 385 LINE",
"418 1231 LINE",
"1102 1231 LINE"
);
}
);
width = 1132;
}
);
leftKerningGroup = B;
note = uni04F6;
rightKerningGroup = T;
unicode = 04F6;
},
{
glyphname = "be-cy";
lastChange = "2018-09-25 09:39:02 +0000";
layers = (
{
layerId = "6992DDD3-6ECA-4BF7-B654-AC36925D8FF8";
paths = (
{
closed = 1;
nodes = (
"871 1298 OFFCURVE",
"861 1273 OFFCURVE",
"846 1250 CURVE",
"830 1225 OFFCURVE",
"811 1203 OFFCURVE",
"788 1184 CURVE",
"765 1165 OFFCURVE",
"739 1151 OFFCURVE",
"712 1141 CURVE",
"684 1130 OFFCURVE",
"656 1125 OFFCURVE",
"628 1125 CURVE",
"331 1125 LINE",
"290 1125 OFFCURVE",
"251 1117 OFFCURVE",
"215 1101 CURVE",
"178 1085 OFFCURVE",
"146 1064 OFFCURVE",
"119 1037 CURVE",
"92 1010 OFFCURVE",
"70 978 OFFCURVE",
"54 942 CURVE",
"38 905 OFFCURVE",
"30 867 OFFCURVE",
"30 826 CURVE",
"30 778 OFFCURVE",
"41 734 OFFCURVE",
"62 694 CURVE",
"82 654 OFFCURVE",
"115 617 OFFCURVE",
"148 590 CURVE",
"119 534 OFFCURVE",
"103 472 OFFCURVE",
"103 405 CURVE",
"103 181 OFFCURVE",
"285 0 OFFCURVE",
"508 0 CURVE",
"732 0 OFFCURVE",
"913 181 OFFCURVE",
"913 405 CURVE",
"913 629 OFFCURVE",
"732 810 OFFCURVE",
"508 810 CURVE",
"443 810 OFFCURVE",
"382 795 OFFCURVE",
"328 768 CURVE",
"325 768 OFFCURVE",
"323 768 OFFCURVE",
"321 768 CURVE",
"308 769 OFFCURVE",
"296 776 OFFCURVE",
"287 787 CURVE",
"278 798 OFFCURVE",
"274 811 OFFCURVE",
"274 826 CURVE",
"274 841 OFFCURVE",
"279 855 OFFCURVE",
"290 867 CURVE",
"300 879 OFFCURVE",
"314 885 OFFCURVE",
"331 885 CURVE",
"646 885 LINE",
"708 885 OFFCURVE",
"764 905 OFFCURVE",
"813 926 CURVE",
"862 947 OFFCURVE",
"906 974 OFFCURVE",
"944 1008 CURVE",
"948 1011 OFFCURVE",
"952 1015 OFFCURVE",
"955 1018 CURVE",
"876 1325 LINE"
);
},
{
closed = 1;
nodes = (
"464 241 OFFCURVE",
"423 258 OFFCURVE",
"392 289 CURVE",
"361 320 OFFCURVE",
"344 361 OFFCURVE",
"344 405 CURVE",
"344 449 OFFCURVE",
"361 490 OFFCURVE",
"392 521 CURVE",
"423 552 OFFCURVE",
"464 569 OFFCURVE",
"508 569 CURVE",
"552 569 OFFCURVE",
"593 552 OFFCURVE",
"624 521 CURVE",
"655 490 OFFCURVE",
"672 449 OFFCURVE",
"672 405 CURVE",
"672 361 OFFCURVE",
"655 320 OFFCURVE",
"624 289 CURVE",
"593 258 OFFCURVE",
"552 241 OFFCURVE",
"508 241 CURVE"
);
}
);
width = 985;
}
);
leftKerningGroup = b;
note = uni0431;
rightKerningGroup = b;
unicode = 0431;
},
{
glyphname = "ve-cy";
lastChange = "2018-09-25 02:48:39 +0000";
layers = (
{
layerId = "6992DDD3-6ECA-4BF7-B654-AC36925D8FF8";
paths = (
{
closed = 1;
nodes = (
"1016 769 OFFCURVE",
"1029 827 OFFCURVE",
"1029 890 CURVE",
"1029 995 LINE",
"30 994 LINE",
"30 753 LINE",
"178 753 LINE",
"178 683 LINE",
"104 683 LINE",
"104 442 LINE",
"178 442 LINE",
"178 0 LINE",
"1029 0 LINE",
"1029 235 LINE",
"1029 297 OFFCURVE",
"1016 356 OFFCURVE",
"990 410 CURVE",
"964 465 OFFCURVE",
"928 512 OFFCURVE",
"884 553 CURVE",
"880 556 OFFCURVE",
"877 559 OFFCURVE",
"873 562 CURVE",
"877 565 OFFCURVE",
"880 569 OFFCURVE",
"884 572 CURVE",
"928 612 OFFCURVE",
"964 660 OFFCURVE",
"990 714 CURVE"
);
},
{
closed = 1;
nodes = (
"719 753 LINE",
"700 734 OFFCURVE",
"668 712 OFFCURVE",
"643 701 CURVE",
"614 689 OFFCURVE",
"583 683 OFFCURVE",
"550 683 CURVE",
"419 683 LINE",
"419 753 LINE"
);
},
{
closed = 1;
nodes = (
"550 442 LINE",
"583 442 OFFCURVE",
"614 436 OFFCURVE",
"643 424 CURVE",
"672 410 OFFCURVE",
"697 393 OFFCURVE",
"718 372 CURVE",
"740 351 OFFCURVE",
"757 326 OFFCURVE",
"769 296 CURVE",
"777 279 OFFCURVE",
"782 261 OFFCURVE",
"785 242 CURVE",
"419 242 LINE",
"419 442 LINE"
);
}
);
width = 1059;
}
);
leftKerningGroup = e;
note = uni0432;
rightKerningGroup = m;
unicode = 0432;
},
{
glyphname = "ge-cy";
lastChange = "2018-09-25 02:48:39 +0000";
layers = (
{
layerId = "6992DDD3-6ECA-4BF7-B654-AC36925D8FF8";
paths = (
{
closed = 1;
nodes = (
"30 994 LINE",
"30 755 LINE",
"103 755 LINE",
"103 0 LINE",
"344 0 LINE",
"344 755 LINE",
"610 755 LINE",
"610 663 LINE",
"849 663 LINE",
"849 994 LINE"
);
},
{
closed = 1;
nodes = (
"30 994 LINE",
"30 755 LINE",
"103 755 LINE",
"103 0 LINE",
"344 0 LINE",
"344 755 LINE",
"610 755 LINE",
"610 663 LINE",
"849 663 LINE",
"849 994 LINE"
);
}
);
width = 879;
}
);
leftKerningGroup = i;
note = uni0433;
rightKerningGroup = r;
unicode = 0433;
},
{
glyphname = "gheupturn-cy";
lastChange = "2018-09-25 02:48:39 +0000";
layers = (
{
layerId = "6992DDD3-6ECA-4BF7-B654-AC36925D8FF8";
paths = (
{
closed = 1;
nodes = (
"610 994 LINE",
"30 994 LINE",
"30 755 LINE",
"103 755 LINE",
"103 0 LINE",
"344 0 LINE",
"344 755 LINE",
"610 755 LINE",
"610 663 LINE",
"849 663 LINE",
"849 1086 LINE",
"610 1086 LINE"
);
}
);
width = 879;
}
);
leftKerningGroup = i;
note = uni0491;
rightKerningGroup = r;
unicode = 0491;
},
{
glyphname = "de-cy";
lastChange = "2018-09-25 08:19:22 +0000";
layers = (
{
layerId = "6992DDD3-6ECA-4BF7-B654-AC36925D8FF8";
paths = (
{
closed = 1;
nodes = (
"1025 994 LINE",
"580 995 LINE",
"516 995 OFFCURVE",
"456 984 OFFCURVE",
"398 960 CURVE",
"341 937 OFFCURVE",
"289 905 OFFCURVE",
"246 865 CURVE",
"202 824 OFFCURVE",
"166 777 OFFCURVE",
"140 722 CURVE",
"114 668 OFFCURVE",
"101 609 OFFCURVE",
"101 547 CURVE",
"101 241 LINE",
"30 241 LINE",
"30 0 LINE",
"1025 0 LINE",
"1025 241 LINE",
"951 241 LINE",
"951 755 LINE",
"1025 755 LINE"
);
},
{
closed = 1;
nodes = (
"342 516 LINE",
"342 549 OFFCURVE",
"348 579 OFFCURVE",
"361 608 CURVE",
"373 638 OFFCURVE",
"390 663 OFFCURVE",
"412 684 CURVE",
"433 705 OFFCURVE",
"458 722 OFFCURVE",
"487 736 CURVE",
"516 748 OFFCURVE",
"547 754 OFFCURVE",
"580 754 CURVE",
"710 754 LINE",
"710 241 LINE",
"342 241 LINE"
);
}
);
width = 1055;
}
);
leftKerningGroup = d;
note = uni0434;
rightKerningGroup = y;
unicode = 0434;
},
{
glyphname = "zhe-cy";
lastChange = "2018-09-25 02:48:39 +0000";
layers = (
{
layerId = "6992DDD3-6ECA-4BF7-B654-AC36925D8FF8";
paths = (
{
closed = 1;
nodes = (
"1415 0 LINE",
"1415 242 LINE",
"1254 242 LINE",
"1086 496 LINE",
"1126 516 OFFCURVE",
"1163 542 OFFCURVE",
"1195 572 CURVE",
"1240 612 OFFCURVE",
"1275 660 OFFCURVE",
"1301 714 CURVE",
"1328 769 OFFCURVE",
"1341 827 OFFCURVE",
"1341 890 CURVE",
"1341 995 LINE",
"1100 995 LINE",
"1100 921 LINE",
"1100 888 OFFCURVE",
"1094 857 OFFCURVE",
"1080 828 CURVE",
"1068 799 OFFCURVE",
"1051 774 OFFCURVE",
"1030 752 CURVE",
"1009 731 OFFCURVE",
"984 714 OFFCURVE",
"954 701 CURVE",
"953 700 OFFCURVE",
"952 700 OFFCURVE",
"951 700 CURVE",
"755 994 LINE",
"689 994 LINE",
"494 699 LINE",
"493 700 OFFCURVE",
"491 700 OFFCURVE",
"490 701 CURVE",
"461 714 OFFCURVE",
"436 731 OFFCURVE",
"415 752 CURVE",
"393 774 OFFCURVE",
"376 799 OFFCURVE",
"364 828 CURVE",
"351 857 OFFCURVE",
"345 888 OFFCURVE",
"345 921 CURVE",
"345 995 LINE",
"30 994 LINE",
"30 753 LINE",
"127 753 LINE",
"132 740 OFFCURVE",
"137 727 OFFCURVE",
"143 714 CURVE",
"169 660 OFFCURVE",
"205 612 OFFCURVE",
"249 572 CURVE",
"281 542 OFFCURVE",
"318 516 OFFCURVE",
"359 496 CURVE",
"30 0 LINE",
"314 0 LINE",
"602 435 LINE",
"602 0 LINE",
"843 0 LINE",
"843 435 LINE",
"1131 0 LINE"
);
}
);
width = 1445;
}
);
leftKerningGroup = x;
note = uni0436;
rightKerningGroup = x;
unicode = 0436;
},
{
glyphname = "ze-cy";
lastChange = "2018-09-25 02:48:39 +0000";
layers = (
{
layerId = "6992DDD3-6ECA-4BF7-B654-AC36925D8FF8";
paths = (
{
closed = 1;
nodes = (
"720 683 LINE",
"766 753 LINE",
"881 753 LINE",
"881 994 LINE",
"30 994 LINE",
"30 753 LINE",
"483 753 LINE",
"277 441 LINE",
"634 441 LINE",
"624 387 OFFCURVE",
"597 337 OFFCURVE",
"557 296 CURVE",
"503 243 OFFCURVE",
"432 213 OFFCURVE",
"356 213 CURVE",
"280 213 OFFCURVE",
"209 243 OFFCURVE",
"155 296 CURVE",
"137 315 OFFCURVE",
"122 335 OFFCURVE",
"109 356 CURVE",
"38 80 LINE",
"126 12 OFFCURVE",
"236 -28 OFFCURVE",
"356 -28 CURVE",
"646 -28 OFFCURVE",
"881 207 OFFCURVE",
"881 497 CURVE",
"881 683 LINE"
);
}
);
width = 911;
}
);
leftKerningGroup = ze;
note = uni0437;
rightKerningGroup = s;
unicode = 0437;
},
{
glyphname = "ii-cy";
lastChange = "2018-09-26 00:30:26 +0000";
layers = (
{
layerId = "6992DDD3-6ECA-4BF7-B654-AC36925D8FF8";
paths = (
{
closed = 1;
nodes = (
"639 851 LINE SMOOTH",
"500 833 OFFCURVE",
"374 776 OFFCURVE",
"271 691 CURVE SMOOTH",
"271 995 LINE",
"30 995 LINE",
"30 0 LINE",
"271 0 LINE",
"271 176 LINE SMOOTH",
"271 284 OFFCURVE",
"327 385 OFFCURVE",
"404 463 CURVE SMOOTH",
"469 528 OFFCURVE",
"551 571 OFFCURVE",
"639 589 CURVE SMOOTH",
"639 0 LINE",
"880 0 LINE",
"880 995 LINE",
"639 995 LINE"
);
}
);
width = 910;
}
);
leftKerningGroup = m;
note = uni0438;
rightKerningGroup = m;
unicode = 0438;
},
{
glyphname = "iishort-cy";
lastChange = "2018-09-26 00:30:19 +0000";
layers = (
{
components = (
{
alignment = -1;
name = brevecombcy;
transform = "{1, 0, 0, 1, 154, 0}";
}
);
layerId = "6992DDD3-6ECA-4BF7-B654-AC36925D8FF8";
paths = (
{
closed = 1;
nodes = (
"639 851 LINE SMOOTH",
"500 833 OFFCURVE",
"374 776 OFFCURVE",
"271 691 CURVE SMOOTH",
"271 995 LINE",
"30 995 LINE",
"30 0 LINE",
"271 0 LINE",
"271 176 LINE SMOOTH",
"271 284 OFFCURVE",
"327 385 OFFCURVE",
"404 463 CURVE SMOOTH",
"469 528 OFFCURVE",
"551 571 OFFCURVE",
"639 589 CURVE SMOOTH",
"639 0 LINE",
"880 0 LINE",
"880 995 LINE",
"639 995 LINE"
);
}
);
width = 910;
}
);
leftKerningGroup = m;
note = uni0439;
rightKerningGroup = m;
unicode = 0439;
},
{
glyphname = "iigrave-cy";
lastChange = "2018-09-26 00:29:46 +0000";
layers = (
{
components = (
{
alignment = -1;
name = gravecomb;
transform = "{1, 0, 0, 1, 112, 0}";
}
);
layerId = "6992DDD3-6ECA-4BF7-B654-AC36925D8FF8";
paths = (
{
closed = 1;
nodes = (
"639 851 LINE SMOOTH",
"500 833 OFFCURVE",
"374 776 OFFCURVE",
"271 691 CURVE SMOOTH",
"271 995 LINE",
"30 995 LINE",
"30 0 LINE",
"271 0 LINE",
"271 176 LINE SMOOTH",
"271 284 OFFCURVE",
"327 385 OFFCURVE",
"404 463 CURVE SMOOTH",
"469 528 OFFCURVE",
"551 571 OFFCURVE",
"639 589 CURVE SMOOTH",
"639 0 LINE",
"880 0 LINE",
"880 995 LINE",
"639 995 LINE"
);
}
);
width = 910;
}
);
leftKerningGroup = m;
note = uni045D;
rightKerningGroup = m;
unicode = 045D;
},
{
glyphname = "ka-cy";
lastChange = "2018-09-25 02:48:39 +0000";
layers = (
{
layerId = "6992DDD3-6ECA-4BF7-B654-AC36925D8FF8";
paths = (
{
closed = 1;
nodes = (
"780 612 OFFCURVE",
"815 660 OFFCURVE",
"842 714 CURVE",
"867 767 OFFCURVE",
"880 824 OFFCURVE",
"881 884 CURVE",
"881 994 LINE",
"640 994 LINE",
"640 912 LINE",
"639 882 OFFCURVE",
"633 855 OFFCURVE",
"621 828 CURVE",
"609 799 OFFCURVE",
"592 774 OFFCURVE",
"570 753 CURVE",
"549 731 OFFCURVE",
"524 714 OFFCURVE",
"495 701 CURVE",
"442 680 OFFCURVE",
"427 683 OFFCURVE",
"271 683 CURVE",
"271 994 LINE",
"30 994 LINE",
"30 0 LINE",
"271 0 LINE",
"271 442 LINE",
"305 442 LINE",
"597 0 LINE",
"881 0 LINE",
"569 471 LINE",
"574 472 OFFCURVE",
"578 474 OFFCURVE",
"583 476 CURVE",
"641 499 OFFCURVE",
"692 532 OFFCURVE",
"736 572 CURVE"
);
}
);
width = 911;
}
);
leftKerningGroup = m;
note = uni043A;
rightKerningGroup = x;
unicode = 043A;
},
{
glyphname = "el-cy";
lastChange = "2018-09-25 08:25:33 +0000";
layers = (
{
layerId = "6992DDD3-6ECA-4BF7-B654-AC36925D8FF8";
paths = (
{
closed = 1;
nodes = (
"509 995 LINE",
"445 995 OFFCURVE",
"385 984 OFFCURVE",
"327 960 CURVE",
"270 937 OFFCURVE",
"218 905 OFFCURVE",
"175 865 CURVE",
"131 824 OFFCURVE",
"95 777 OFFCURVE",
"69 722 CURVE",
"43 668 OFFCURVE",
"30 609 OFFCURVE",
"30 547 CURVE",
"30 0 LINE",
"271 0 LINE",
"271 516 LINE",
"271 549 OFFCURVE",
"277 579 OFFCURVE",
"290 608 CURVE",
"302 638 OFFCURVE",
"319 663 OFFCURVE",
"340 684 CURVE",
"361 705 OFFCURVE",
"387 722 OFFCURVE",
"416 736 CURVE",
"445 748 OFFCURVE",
"475 754 OFFCURVE",
"509 754 CURVE",
"639 754 LINE",
"639 0 LINE",
"880 0 LINE",
"880 755 LINE",
"954 755 LINE",
"954 994 LINE"
);
}
);
width = 984;
}
);
leftKerningGroup = s;
note = uni043B;
rightKerningGroup = a;
unicode = 043B;
},
{
glyphname = "em-cy";
lastChange = "2018-09-25 02:48:39 +0000";
layers = (
{
layerId = "6992DDD3-6ECA-4BF7-B654-AC36925D8FF8";
paths = (
{
closed = 1;
nodes = (
"672 377 LINE",
"263 994 LINE",
"30 994 LINE",
"30 0 LINE",
"271 0 LINE",
"271 555 LINE",
"639 0 LINE",
"705 0 LINE",
"1073 555 LINE",
"1073 0 LINE",
"1314 0 LINE",
"1314 994 LINE",
"1080 994 LINE"
);
}
);
width = 1344;
}
);
leftKerningGroup = m;
note = uni043C;
rightKerningGroup = m;
unicode = 043C;
},
{
glyphname = "en-cy";
lastChange = "2018-09-25 02:48:39 +0000";
layers = (
{
layerId = "6992DDD3-6ECA-4BF7-B654-AC36925D8FF8";
paths = (
{
closed = 1;
nodes = (
"880 683 LINE",
"880 995 LINE",
"639 995 LINE",
"639 683 LINE",
"509 683 LINE",
"445 683 OFFCURVE",
"385 672 OFFCURVE",
"327 649 CURVE",
"308 641 OFFCURVE",
"289 632 OFFCURVE",
"271 622 CURVE",
"271 995 LINE",
"30 995 LINE",
"30 0 LINE",
"271 0 LINE",
"271 213 LINE",
"272 243 OFFCURVE",
"278 270 OFFCURVE",
"290 297 CURVE",
"302 326 OFFCURVE",
"319 351 OFFCURVE",
"340 372 CURVE",
"362 393 OFFCURVE",
"387 411 OFFCURVE",
"416 424 CURVE",
"445 436 OFFCURVE",
"476 442 OFFCURVE",
"509 442 CURVE",
"639 442 LINE",
"639 0 LINE",
"880 0 LINE",
"880 442 LINE",
"955 442 LINE",
"955 683 LINE"
);
}
);
width = 985;
}
);
leftKerningGroup = m;
note = uni043D;
rightKerningGroup = n;
unicode = 043D;
},
{
glyphname = "pe-cy";
lastChange = "2018-09-25 02:48:39 +0000";
layers = (
{
layerId = "6992DDD3-6ECA-4BF7-B654-AC36925D8FF8";
paths = (
{
closed = 1;
nodes = (
"30 995 LINE",
"30 0 LINE",
"272 0 LINE",
"272 755 LINE",
"639 755 LINE",
"639 0 LINE",
"881 0 LINE",
"881 755 LINE",
"955 755 LINE",
"955 994 LINE"
);
}
);
width = 985;
}
);
leftKerningGroup = m;
note = uni043F;
rightKerningGroup = a;
unicode = 043F;
},
{
glyphname = "er-cy";
lastChange = "2018-09-25 02:48:39 +0000";
layers = (
{
layerId = "6992DDD3-6ECA-4BF7-B654-AC36925D8FF8";
paths = (
{
closed = 1;
nodes = (
"30 994 LINE",
"30 753 LINE",
"179 753 LINE",
"179 683 LINE",
"105 683 LINE",
"105 442 LINE",
"179 442 LINE",
"179 0 LINE",
"420 0 LINE",
"420 442 LINE",
"550 442 LINE",
"614 442 OFFCURVE",
"674 453 OFFCURVE",
"732 476 CURVE",
"789 499 OFFCURVE",
"841 532 OFFCURVE",
"884 572 CURVE",
"929 612 OFFCURVE",
"964 660 OFFCURVE",
"990 714 CURVE",
"1016 769 OFFCURVE",
"1030 827 OFFCURVE",
"1030 890 CURVE",
"1030 995 LINE"
);
},
{
closed = 1;
nodes = (
"614 689 OFFCURVE",
"584 683 OFFCURVE",
"550 683 CURVE",
"420 683 LINE",
"420 753 LINE",
"719 753 LINE",
"684 724 OFFCURVE",
"683 719 OFFCURVE",
"643 701 CURVE"
);
}
);
width = 1060;
}
);
leftKerningGroup = e;
note = uni0440;
rightKerningGroup = r;
unicode = 0440;
},
{
glyphname = "te-cy";
lastChange = "2018-09-25 02:48:39 +0000";
layers = (
{
layerId = "6992DDD3-6ECA-4BF7-B654-AC36925D8FF8";
paths = (
{
closed = 1;
nodes = (
"1084 994 LINE",
"30 994 LINE",
"30 755 LINE",
"436 755 LINE",
"436 684 LINE",
"363 684 LINE",
"363 442 LINE",
"437 442 LINE",
"437 0 LINE",
"677 0 LINE",
"678 442 LINE",
"752 442 LINE",
"752 684 LINE",
"678 684 LINE",
"678 755 LINE",
"1084 755 LINE"
);
}
);
width = 1114;
}
);
leftKerningGroup = t;
note = uni0442;
rightKerningGroup = r;
unicode = 0442;
},
{
glyphname = "u-cy";
lastChange = "2018-09-25 02:48:39 +0000";
layers = (
{
layerId = "6992DDD3-6ECA-4BF7-B654-AC36925D8FF8";
paths = (
{
closed = 1;
nodes = (
"955 682 LINE",
"881 682 LINE",
"881 994 LINE",
"640 994 LINE",
"640 682 LINE",
"509 682 LINE",
"476 682 OFFCURVE",
"446 688 OFFCURVE",
"416 700 CURVE",
"387 713 OFFCURVE",
"362 730 OFFCURVE",
"341 752 CURVE",
"319 773 OFFCURVE",
"302 798 OFFCURVE",
"290 827 CURVE",
"277 857 OFFCURVE",
"271 887 OFFCURVE",
"271 920 CURVE",
"271 994 LINE",
"30 994 LINE",
"30 889 LINE",
"30 826 OFFCURVE",
"43 768 OFFCURVE",
"69 713 CURVE",
"96 659 OFFCURVE",
"131 611 OFFCURVE",
"175 571 CURVE",
"219 531 OFFCURVE",
"270 498 OFFCURVE",
"328 475 CURVE",
"385 452 OFFCURVE",
"446 441 OFFCURVE",
"509 441 CURVE",
"634 441 LINE",
"624 386 OFFCURVE",
"597 336 OFFCURVE",
"557 296 CURVE",
"503 242 OFFCURVE",
"432 213 OFFCURVE",
"356 213 CURVE",
"280 213 OFFCURVE",
"209 242 OFFCURVE",
"155 296 CURVE",
"137 314 OFFCURVE",
"122 334 OFFCURVE",
"109 356 CURVE",
"37 79 LINE",
"126 12 OFFCURVE",
"236 -28 OFFCURVE",
"356 -28 CURVE",
"627 -28 OFFCURVE",
"850 177 OFFCURVE",
"878 441 CURVE",
"955 441 LINE"
);
}
);
width = 985;
}
);
leftKerningGroup = ze;
note = uni0443;
rightKerningGroup = n;
unicode = 0443;
},
{
glyphname = "ef-cy";
lastChange = "2018-09-25 02:48:39 +0000";
layers = (
{
layerId = "6992DDD3-6ECA-4BF7-B654-AC36925D8FF8";
paths = (
{
closed = 1;
nodes = (
"793 992 LINE",
"793 1066 LINE",
"552 1066 LINE",
"552 992 LINE",
"30 991 LINE",
"30 448 LINE",
"30 385 OFFCURVE",
"43 327 OFFCURVE",
"70 272 CURVE",
"96 218 OFFCURVE",
"131 170 OFFCURVE",
"176 130 CURVE",
"219 90 OFFCURVE",
"270 57 OFFCURVE",
"328 34 CURVE",
"397 6 OFFCURVE",
"446 0 OFFCURVE",
"552 0 CURVE",
"552 -76 LINE",
"793 -76 LINE",
"793 0 LINE",
"896 0 OFFCURVE",
"946 5 OFFCURVE",
"1017 34 CURVE",
"1075 57 OFFCURVE",
"1126 90 OFFCURVE",
"1170 130 CURVE",
"1214 170 OFFCURVE",
"1249 218 OFFCURVE",
"1276 272 CURVE",
"1302 327 OFFCURVE",
"1315 385 OFFCURVE",
"1315 448 CURVE",
"1315 991 LINE"
);
},
{
closed = 1;
nodes = (
"476 241 OFFCURVE",
"446 247 OFFCURVE",
"417 259 CURVE",
"387 272 OFFCURVE",
"362 289 OFFCURVE",
"341 311 CURVE",
"320 332 OFFCURVE",
"303 357 OFFCURVE",
"291 386 CURVE",
"277 416 OFFCURVE",
"271 446 OFFCURVE",
"271 479 CURVE",
"271 750 LINE",
"552 750 LINE",
"552 241 LINE",
"509 241 LINE"
);
},
{
closed = 1;
nodes = (
"1043 357 OFFCURVE",
"1025 332 OFFCURVE",
"1004 311 CURVE",
"983 289 OFFCURVE",
"958 272 OFFCURVE",
"929 259 CURVE",
"899 247 OFFCURVE",
"869 241 OFFCURVE",
"836 241 CURVE",
"793 241 LINE",
"793 750 LINE",
"1074 750 LINE",
"1074 479 LINE",
"1074 446 OFFCURVE",
"1068 416 OFFCURVE",
"1055 386 CURVE"
);
}
);
width = 1345;
}
);
leftKerningGroup = m;
note = uni0444;
rightKerningGroup = m;
unicode = 0444;
},
{
glyphname = "che-cy";
lastChange = "2018-09-25 02:48:39 +0000";
layers = (
{
layerId = "6992DDD3-6ECA-4BF7-B654-AC36925D8FF8";
paths = (
{
closed = 1;
nodes = (
"955 683 LINE",
"881 683 LINE",
"881 995 LINE",
"640 995 LINE",
"640 683 LINE",
"509 683 LINE",
"476 683 OFFCURVE",
"446 689 OFFCURVE",
"416 701 CURVE",
"387 714 OFFCURVE",
"362 731 OFFCURVE",
"341 752 CURVE",
"320 774 OFFCURVE",
"302 799 OFFCURVE",
"290 828 CURVE",
"277 857 OFFCURVE",
"271 888 OFFCURVE",
"271 921 CURVE",
"271 995 LINE",
"30 995 LINE",
"30 890 LINE",
"30 827 OFFCURVE",
"43 769 OFFCURVE",
"69 714 CURVE",
"96 660 OFFCURVE",
"131 612 OFFCURVE",
"175 572 CURVE",
"219 532 OFFCURVE",
"270 499 OFFCURVE",
"328 476 CURVE",
"385 453 OFFCURVE",
"446 442 OFFCURVE",
"509 442 CURVE",
"640 442 LINE",
"640 0 LINE",
"881 0 LINE",
"881 442 LINE",
"955 442 LINE"
);
}
);
width = 985;
}
);
leftKerningGroup = y;
note = uni0447;
rightKerningGroup = n;
unicode = 0447;
},
{
glyphname = "tse-cy";
lastChange = "2018-09-25 02:48:39 +0000";
layers = (
{
layerId = "6992DDD3-6ECA-4BF7-B654-AC36925D8FF8";
paths = (
{
closed = 1;
nodes = (
"1031 244 LINE",
"957 244 LINE",
"957 995 LINE",
"716 995 LINE",
"716 244 LINE",
"509 244 LINE",
"476 244 OFFCURVE",
"446 250 OFFCURVE",
"417 262 CURVE",
"387 275 OFFCURVE",
"362 292 OFFCURVE",
"341 313 CURVE",
"320 334 OFFCURVE",
"303 360 OFFCURVE",
"291 389 CURVE",
"277 418 OFFCURVE",
"271 448 OFFCURVE",
"271 482 CURVE",
"271 994 LINE",
"30 994 LINE",
"30 450 LINE",
"30 388 OFFCURVE",
"43 329 OFFCURVE",
"70 275 CURVE",
"96 220 OFFCURVE",
"131 173 OFFCURVE",
"176 133 CURVE",
"219 92 OFFCURVE",
"270 60 OFFCURVE",
"328 37 CURVE",
"385 14 OFFCURVE",
"446 3 OFFCURVE",
"509 3 CURVE",
"1031 3 LINE"
);
}
);
width = 1061;
}
);
leftKerningGroup = m;
note = uni0446;
rightKerningGroup = y;
unicode = 0446;
},
{
glyphname = "sha-cy";
lastChange = "2018-09-25 02:48:39 +0000";
layers = (
{
layerId = "6992DDD3-6ECA-4BF7-B654-AC36925D8FF8";
paths = (
{
closed = 1;
nodes = (
"1314 0 LINE",
"1314 994 LINE",
"1073 994 LINE",
"1073 241 LINE",
"793 241 LINE",
"793 994 LINE",
"551 994 LINE",
"551 241 LINE",
"509 241 LINE",
"476 241 OFFCURVE",
"445 247 OFFCURVE",
"416 259 CURVE",
"387 272 OFFCURVE",
"362 289 OFFCURVE",
"340 310 CURVE",
"319 331 OFFCURVE",
"302 357 OFFCURVE",
"290 386 CURVE",
"277 415 OFFCURVE",
"271 445 OFFCURVE",
"271 479 CURVE",
"271 994 LINE",
"30 994 LINE",
"30 447 LINE",
"30 385 OFFCURVE",
"43 326 OFFCURVE",
"69 272 CURVE",
"95 217 OFFCURVE",
"131 170 OFFCURVE",
"175 130 CURVE",
"218 89 OFFCURVE",
"270 57 OFFCURVE",
"327 34 CURVE",
"385 11 OFFCURVE",
"445 0 OFFCURVE",
"509 0 CURVE"
);
}
);
width = 1344;
}
);
leftKerningGroup = m;
note = uni0448;
rightKerningGroup = m;
unicode = 0448;
},
{
glyphname = "shcha-cy";
lastChange = "2018-09-25 02:48:39 +0000";
layers = (
{
layerId = "6992DDD3-6ECA-4BF7-B654-AC36925D8FF8";
paths = (
{
closed = 1;
nodes = (
"1314 994 LINE",
"1073 994 LINE",
"1073 241 LINE",
"793 241 LINE",
"793 994 LINE",
"551 994 LINE",
"551 241 LINE",
"509 241 LINE",
"476 241 OFFCURVE",
"445 247 OFFCURVE",
"416 259 CURVE",
"387 272 OFFCURVE",
"362 289 OFFCURVE",
"340 310 CURVE",
"319 331 OFFCURVE",
"302 357 OFFCURVE",
"290 386 CURVE",
"277 415 OFFCURVE",
"271 445 OFFCURVE",
"271 479 CURVE",
"271 994 LINE",
"30 994 LINE",
"30 447 LINE",
"30 385 OFFCURVE",
"43 326 OFFCURVE",
"69 272 CURVE",
"95 217 OFFCURVE",
"131 170 OFFCURVE",
"175 130 CURVE",
"218 89 OFFCURVE",
"270 57 OFFCURVE",
"327 34 CURVE",
"385 11 OFFCURVE",
"445 0 OFFCURVE",
"509 0 CURVE",
"1388 0 LINE",
"1388 241 LINE",
"1314 241 LINE"
);
}
);
width = 1418;
}
);
leftKerningGroup = m;
note = uni0449;
rightKerningGroup = y;
unicode = 0449;
},
{
glyphname = "dzhe-cy";
lastChange = "2018-09-25 02:48:39 +0000";
layers = (
{
layerId = "6992DDD3-6ECA-4BF7-B654-AC36925D8FF8";
paths = (
{
closed = 1;
nodes = (
"716 995 LINE",
"716 241 LINE",
"509 241 LINE",
"476 241 OFFCURVE",
"446 247 OFFCURVE",
"417 259 CURVE",
"387 272 OFFCURVE",
"362 289 OFFCURVE",
"341 310 CURVE",
"320 331 OFFCURVE",
"303 357 OFFCURVE",
"291 386 CURVE",
"277 415 OFFCURVE",
"271 445 OFFCURVE",
"271 479 CURVE",
"271 994 LINE",
"30 994 LINE",
"30 447 LINE",
"30 385 OFFCURVE",
"43 326 OFFCURVE",
"70 272 CURVE",
"96 217 OFFCURVE",
"131 170 OFFCURVE",
"176 130 CURVE",
"219 89 OFFCURVE",
"270 57 OFFCURVE",
"328 34 CURVE",
"343 28 OFFCURVE",
"358 23 OFFCURVE",
"373 19 CURVE",
"373 -76 LINE",
"614 -76 LINE",
"614 0 LINE",
"957 0 LINE",
"957 995 LINE"
);
}
);
width = 987;
}
);
leftKerningGroup = m;
note = uni045F;
rightKerningGroup = m;
unicode = 045F;
},
{
glyphname = "softsign-cy";
lastChange = "2018-09-25 02:48:39 +0000";
layers = (
{
layerId = "6992DDD3-6ECA-4BF7-B654-AC36925D8FF8";
paths = (
{
closed = 1;
nodes = (
"954 301 OFFCURVE",
"941 358 OFFCURVE",
"916 410 CURVE",
"890 465 OFFCURVE",
"854 512 OFFCURVE",
"810 553 CURVE",
"767 593 OFFCURVE",
"715 625 OFFCURVE",
"658 648 CURVE",
"600 672 OFFCURVE",
"540 683 OFFCURVE",
"476 683 CURVE",
"345 683 LINE",
"345 995 LINE",
"104 995 LINE",
"104 683 LINE",
"30 683 LINE",
"30 442 LINE",
"104 442 LINE",
"104 0 LINE",
"955 0 LINE",
"955 130 LINE",
"955 235 LINE",
"955 241 LINE"
);
},
{
closed = 1;
nodes = (
"476 442 LINE",
"509 442 OFFCURVE",
"540 436 OFFCURVE",
"569 423 CURVE",
"598 410 OFFCURVE",
"623 393 OFFCURVE",
"644 372 CURVE",
"666 351 OFFCURVE",
"683 326 OFFCURVE",
"695 296 CURVE",
"703 279 OFFCURVE",
"708 260 OFFCURVE",
"711 241 CURVE",
"345 241 LINE",
"345 442 LINE"
);
}
);
width = 985;
}
);
leftKerningGroup = soft;
note = uni044C;
rightKerningGroup = soft;
unicode = 044C;
},
{
glyphname = "hardsign-cy";
lastChange = "2018-09-25 02:48:39 +0000";
layers = (
{
layerId = "6992DDD3-6ECA-4BF7-B654-AC36925D8FF8";
paths = (
{
closed = 1;
nodes = (
"1028 301 OFFCURVE",
"1015 358 OFFCURVE",
"990 410 CURVE",
"964 465 OFFCURVE",
"928 512 OFFCURVE",
"884 553 CURVE",
"841 593 OFFCURVE",
"789 625 OFFCURVE",
"732 648 CURVE",
"674 672 OFFCURVE",
"614 683 OFFCURVE",
"550 683 CURVE",
"419 683 LINE",
"419 994 LINE",
"30 994 LINE",
"30 752 LINE",
"178 752 LINE",
"178 683 LINE",
"104 683 LINE",
"104 442 LINE",
"178 442 LINE",
"178 0 LINE",
"1029 0 LINE",
"1029 235 LINE",
"1029 241 LINE"
);
},
{
closed = 1;
nodes = (
"550 442 LINE",
"583 442 OFFCURVE",
"614 436 OFFCURVE",
"643 423 CURVE",
"672 410 OFFCURVE",
"697 393 OFFCURVE",
"718 372 CURVE",
"740 351 OFFCURVE",
"757 326 OFFCURVE",
"769 296 CURVE",
"777 279 OFFCURVE",
"782 260 OFFCURVE",
"785 241 CURVE",
"419 241 LINE",
"419 442 LINE"
);
}
);
width = 1059;
}
);
leftKerningGroup = e;
note = uni044A;
rightKerningGroup = soft;
unicode = 044A;
},
{
glyphname = "yeru-cy";
lastChange = "2018-09-25 08:20:06 +0000";
layers = (
{
layerId = "6992DDD3-6ECA-4BF7-B654-AC36925D8FF8";
paths = (
{
closed = 1;
nodes = (
"1029 0 LINE",
"1270 0 LINE",
"1270 995 LINE",
"1029 995 LINE"
);
},
{
closed = 1;
nodes = (
"890 465 OFFCURVE",
"854 512 OFFCURVE",
"810 553 CURVE",
"767 593 OFFCURVE",
"715 625 OFFCURVE",
"658 648 CURVE",
"600 672 OFFCURVE",
"540 683 OFFCURVE",
"476 683 CURVE",
"345 683 LINE",
"345 995 LINE",
"104 995 LINE",
"104 683 LINE",
"30 683 LINE",
"30 442 LINE",
"104 442 LINE",
"104 0 LINE",
"955 0 LINE",
"955 241 LINE",
"954 301 OFFCURVE",
"941 358 OFFCURVE",
"916 410 CURVE"
);
},
{
closed = 1;
nodes = (
"476 442 LINE",
"509 442 OFFCURVE",
"540 436 OFFCURVE",
"569 423 CURVE",
"598 410 OFFCURVE",
"623 393 OFFCURVE",
"644 372 CURVE",
"666 351 OFFCURVE",
"683 326 OFFCURVE",
"695 296 CURVE",
"703 279 OFFCURVE",
"708 260 OFFCURVE",
"711 241 CURVE",
"345 241 LINE",
"345 442 LINE"
);
}
);
width = 1300;
}
);
leftKerningGroup = soft;
note = uni044B;
rightKerningGroup = m;
unicode = 044B;
},
{
glyphname = "lje-cy";
lastChange = "2018-09-25 02:48:39 +0000";
layers = (
{
layerId = "6992DDD3-6ECA-4BF7-B654-AC36925D8FF8";
paths = (
{
closed = 1;
nodes = (
"1425 465 OFFCURVE",
"1389 512 OFFCURVE",
"1345 553 CURVE",
"1302 593 OFFCURVE",
"1250 625 OFFCURVE",
"1193 648 CURVE",
"1135 672 OFFCURVE",
"1075 683 OFFCURVE",
"1011 683 CURVE",
"880 683 LINE",
"880 994 LINE",
"880 995 LINE",
"509 995 LINE",
"445 995 OFFCURVE",
"385 984 OFFCURVE",
"327 960 CURVE",
"270 937 OFFCURVE",
"218 905 OFFCURVE",
"175 865 CURVE",
"131 824 OFFCURVE",
"95 777 OFFCURVE",
"69 722 CURVE",
"43 668 OFFCURVE",
"30 609 OFFCURVE",
"30 547 CURVE",
"30 0 LINE",
"271 0 LINE",
"271 516 LINE",
"271 549 OFFCURVE",
"277 579 OFFCURVE",
"290 608 CURVE",
"302 638 OFFCURVE",
"319 663 OFFCURVE",
"340 684 CURVE",
"361 705 OFFCURVE",
"387 722 OFFCURVE",
"416 736 CURVE",
"445 748 OFFCURVE",
"475 754 OFFCURVE",
"509 754 CURVE",
"639 754 LINE",
"639 0 LINE",
"1490 0 LINE",
"1490 130 LINE",
"1490 235 LINE",
"1490 241 LINE",
"1489 301 OFFCURVE",
"1476 358 OFFCURVE",
"1451 410 CURVE"
);
},
{
closed = 1;
nodes = (
"880 442 LINE",
"1011 442 LINE",
"1044 442 OFFCURVE",
"1075 436 OFFCURVE",
"1104 423 CURVE",
"1133 410 OFFCURVE",
"1158 393 OFFCURVE",
"1179 372 CURVE",
"1201 351 OFFCURVE",
"1218 326 OFFCURVE",
"1230 296 CURVE",
"1238 279 OFFCURVE",
"1243 260 OFFCURVE",
"1246 241 CURVE",
"880 241 LINE"
);
}
);
width = 1520;
}
);
leftKerningGroup = s;
note = uni0459;
rightKerningGroup = soft;
unicode = 0459;
},
{
glyphname = "nje-cy";
lastChange = "2018-09-25 02:48:39 +0000";
layers = (
{
layerId = "6992DDD3-6ECA-4BF7-B654-AC36925D8FF8";
paths = (
{
closed = 1;
nodes = (
"1425 465 OFFCURVE",
"1389 512 OFFCURVE",
"1345 553 CURVE",
"1302 593 OFFCURVE",
"1250 625 OFFCURVE",
"1193 648 CURVE",
"1135 672 OFFCURVE",
"1075 683 OFFCURVE",
"1011 683 CURVE",
"955 683 LINE",
"880 683 LINE",
"880 995 LINE",
"639 995 LINE",
"639 683 LINE",
"509 683 LINE",
"445 683 OFFCURVE",
"385 672 OFFCURVE",
"327 649 CURVE",
"308 641 OFFCURVE",
"289 632 OFFCURVE",
"271 622 CURVE",
"271 995 LINE",
"30 995 LINE",
"30 0 LINE",
"271 0 LINE",
"271 213 LINE",
"272 243 OFFCURVE",
"278 270 OFFCURVE",
"290 297 CURVE",
"302 326 OFFCURVE",
"319 351 OFFCURVE",
"340 372 CURVE",
"362 393 OFFCURVE",
"387 411 OFFCURVE",
"416 424 CURVE",
"445 436 OFFCURVE",
"476 442 OFFCURVE",
"509 442 CURVE",
"639 442 LINE",
"639 0 LINE",
"1490 0 LINE",
"1490 241 LINE",
"1489 301 OFFCURVE",
"1476 358 OFFCURVE",
"1451 410 CURVE"
);
},
{
closed = 1;
nodes = (
"880 442 LINE",
"955 442 LINE",
"1011 442 LINE",
"1044 442 OFFCURVE",
"1075 436 OFFCURVE",
"1104 423 CURVE",
"1133 410 OFFCURVE",
"1158 393 OFFCURVE",
"1179 372 CURVE",
"1201 351 OFFCURVE",
"1218 326 OFFCURVE",
"1230 296 CURVE",
"1238 279 OFFCURVE",
"1243 260 OFFCURVE",
"1246 241 CURVE",
"880 241 LINE"
);
}
);
width = 1520;
}
);
leftKerningGroup = m;
note = uni045A;
rightKerningGroup = soft;
unicode = 045A;
},
{
glyphname = "e-cy";
lastChange = "2018-09-25 02:48:39 +0000";
layers = (
{
layerId = "6992DDD3-6ECA-4BF7-B654-AC36925D8FF8";
paths = (
{
closed = 1;
nodes = (
"30 1022 LINE",
"955 1022 LINE",
"955 781 LINE",
"345 781 LINE",
"345 711 LINE",
"629 711 LINE",
"629 469 LINE",
"351 469 LINE",
"361 415 OFFCURVE",
"388 365 OFFCURVE",
"428 324 CURVE",
"482 271 OFFCURVE",
"553 241 OFFCURVE",
"629 241 CURVE",
"705 241 OFFCURVE",
"776 271 OFFCURVE",
"830 324 CURVE",
"848 343 OFFCURVE",
"863 363 OFFCURVE",
"876 384 CURVE",
"947 108 LINE",
"859 40 OFFCURVE",
"749 0 OFFCURVE",
"629 0 CURVE",
"343 0 OFFCURVE",
"111 228 OFFCURVE",
"104 513 CURVE",
"104 781 LINE",
"30 781 LINE"
);
}
);
width = 985;
}
);
leftKerningGroup = i;
note = uni0454;
rightKerningGroup = c;
unicode = 0454;
},
{
glyphname = "tshe-cy";
lastChange = "2018-09-25 02:48:39 +0000";
layers = (
{
layerId = "6992DDD3-6ECA-4BF7-B654-AC36925D8FF8";
paths = (
{
closed = 1;
nodes = (
"1222 335 OFFCURVE",
"1187 383 OFFCURVE",
"1143 423 CURVE",
"1099 463 OFFCURVE",
"1048 496 OFFCURVE",
"990 519 CURVE",
"933 542 OFFCURVE",
"872 553 OFFCURVE",
"809 553 CURVE",
"678 553 LINE",
"678 756 LINE",
"1084 756 LINE",
"1084 995 LINE",
"30 995 LINE",
"30 756 LINE",
"436 756 LINE",
"436 553 LINE",
"363 553 LINE",
"363 312 LINE",
"436 312 LINE",
"437 0 LINE",
"678 0 LINE",
"678 312 LINE",
"809 312 LINE",
"842 312 OFFCURVE",
"872 306 OFFCURVE",
"902 294 CURVE",
"931 281 OFFCURVE",
"956 264 OFFCURVE",
"977 243 CURVE",
"998 221 OFFCURVE",
"1016 196 OFFCURVE",
"1028 167 CURVE",
"1041 138 OFFCURVE",
"1047 107 OFFCURVE",
"1047 74 CURVE",
"1047 0 LINE",
"1288 0 LINE",
"1288 105 LINE",
"1288 168 OFFCURVE",
"1275 226 OFFCURVE",
"1249 281 CURVE"
);
}
);
width = 1318;
}
);
leftKerningGroup = t;
note = uni045B;
rightKerningGroup = soft;
unicode = 045B;
},
{
glyphname = "iu-cy";
lastChange = "2018-09-25 02:48:39 +0000";
layers = (
{
layerId = "6992DDD3-6ECA-4BF7-B654-AC36925D8FF8";
paths = (
{
closed = 1;
nodes = (
"609 1022 OFFCURVE",
"401 850 OFFCURVE",
"346 618 CURVE",
"271 618 LINE",
"271 995 LINE",
"30 995 LINE",
"30 0 LINE",
"271 0 LINE",
"271 377 LINE",
"346 377 LINE",
"401 145 OFFCURVE",
"609 -28 OFFCURVE",
"857 -28 CURVE",
"1147 -28 OFFCURVE",
"1382 207 OFFCURVE",
"1382 497 CURVE",
"1382 787 OFFCURVE",
"1147 1022 OFFCURVE",
"857 1022 CURVE"
);
},
{
closed = 1;
nodes = (
"1004 243 OFFCURVE",
"933 214 OFFCURVE",
"857 214 CURVE",
"782 214 OFFCURVE",
"710 243 OFFCURVE",
"657 297 CURVE",
"603 350 OFFCURVE",
"573 422 OFFCURVE",
"573 497 CURVE",
"573 573 OFFCURVE",
"603 645 OFFCURVE",
"657 698 CURVE",
"710 752 OFFCURVE",
"782 781 OFFCURVE",
"857 781 CURVE",
"933 781 OFFCURVE",
"1004 752 OFFCURVE",
"1058 698 CURVE",
"1112 645 OFFCURVE",
"1141 573 OFFCURVE",
"1141 497 CURVE",
"1141 422 OFFCURVE",
"1112 350 OFFCURVE",
"1058 297 CURVE"
);
}
);
width = 1412;
}
);
leftKerningGroup = m;
note = uni044E;
rightKerningGroup = o;
unicode = 044E;
},
{
glyphname = "ia-cy";
lastChange = "2018-09-25 02:48:39 +0000";
layers = (
{
layerId = "6992DDD3-6ECA-4BF7-B654-AC36925D8FF8";
paths = (
{
closed = 1;
nodes = (
"1030 994 LINE",
"30 995 LINE",
"30 890 LINE",
"30 827 OFFCURVE",
"44 769 OFFCURVE",
"70 714 CURVE",
"96 660 OFFCURVE",
"131 612 OFFCURVE",
"176 572 CURVE",
"219 532 OFFCURVE",
"271 499 OFFCURVE",
"328 476 CURVE",
"333 474 OFFCURVE",
"337 472 OFFCURVE",
"342 471 CURVE",
"30 0 LINE",
"314 0 LINE",
"606 442 LINE",
"640 442 LINE",
"640 0 LINE",
"881 0 LINE",
"881 442 LINE",
"955 442 LINE",
"955 683 LINE",
"881 683 LINE",
"881 753 LINE",
"1030 753 LINE"
);
},
{
closed = 1;
nodes = (
"640 683 LINE",
"510 683 LINE",
"476 683 OFFCURVE",
"446 689 OFFCURVE",
"417 701 CURVE",
"377 719 OFFCURVE",
"376 724 OFFCURVE",
"341 753 CURVE",
"640 753 LINE"
);
}
);
width = 1060;
}
);
leftKerningGroup = x;
note = uni044F;
rightKerningGroup = a;
unicode = 044F;
},
{
glyphname = "dje-cy";
lastChange = "2018-09-25 02:48:39 +0000";
layers = (
{
layerId = "6992DDD3-6ECA-4BF7-B654-AC36925D8FF8";
paths = (
{
closed = 1;
nodes = (
"1246 518 OFFCURVE",
"826 553 OFFCURVE",
"678 553 CURVE",
"678 756 LINE",
"1084 756 LINE",
"1084 995 LINE",
"30 995 LINE",
"30 756 LINE",
"436 756 LINE",
"436 553 LINE",
"363 553 LINE",
"363 312 LINE",
"436 312 LINE",
"437 0 LINE",
"678 0 LINE",
"678 312 LINE",
"831 312 OFFCURVE",
"1003 282 OFFCURVE",
"1003 113 CURVE SMOOTH",
"1003 82 OFFCURVE",
"984 42 OFFCURVE",
"948 42 CURVE",
"928 42 OFFCURVE",
"915 51 OFFCURVE",
"907 59 CURVE",
"904 62 OFFCURVE",
"900 67 OFFCURVE",
"897 72 CURVE",
"834 -173 LINE",
"869 -188 OFFCURVE",
"907 -196 OFFCURVE",
"948 -196 CURVE",
"1126 -196 OFFCURVE",
"1246 -43 OFFCURVE",
"1246 120 CURVE",
"1246 126 LINE"
);
}
);
width = 1276;
}
);
leftKerningGroup = t;
note = uni0452;
rightKerningGroup = soft;
unicode = 0452;
},
{
glyphname = "yat-cy";
lastChange = "2018-09-25 02:48:39 +0000";
layers = (
{
layerId = "6992DDD3-6ECA-4BF7-B654-AC36925D8FF8";
paths = (
{
closed = 1;
nodes = (
"890 465 OFFCURVE",
"854 512 OFFCURVE",
"810 553 CURVE",
"767 593 OFFCURVE",
"715 625 OFFCURVE",
"658 648 CURVE",
"600 672 OFFCURVE",
"540 683 OFFCURVE",
"476 683 CURVE",
"345 683 LINE",
"345 720 LINE",
"419 720 LINE",
"419 961 LINE",
"345 961 LINE",
"345 995 LINE",
"104 995 LINE",
"104 961 LINE",
"30 961 LINE",
"30 720 LINE",
"104 720 LINE",
"104 683 LINE",
"30 683 LINE",
"30 442 LINE",
"104 442 LINE",
"104 0 LINE",
"955 0 LINE",
"955 130 LINE",
"955 235 LINE",
"955 241 LINE",
"954 301 OFFCURVE",
"941 358 OFFCURVE",
"916 410 CURVE"
);
},
{
closed = 1;
nodes = (
"345 442 LINE",
"476 442 LINE",
"509 442 OFFCURVE",
"540 436 OFFCURVE",
"569 423 CURVE",
"598 410 OFFCURVE",
"623 393 OFFCURVE",
"644 372 CURVE",
"666 351 OFFCURVE",
"683 326 OFFCURVE",
"695 296 CURVE",
"703 279 OFFCURVE",
"708 260 OFFCURVE",
"711 241 CURVE",
"345 241 LINE"
);
}
);
width = 985;
}
);
leftKerningGroup = k;
note = uni0463;
rightKerningGroup = soft;
unicode = 0463;
},
{
glyphname = "yusbig-cy";
lastChange = "2018-09-25 02:48:39 +0000";
layers = (
{
layerId = "6992DDD3-6ECA-4BF7-B654-AC36925D8FF8";
paths = (
{
closed = 1;
nodes = (
"987 643 LINE",
"1245 994 LINE",
"199 994 LINE",
"457 644 LINE",
"30 0 LINE",
"314 0 LINE",
"602 435 LINE",
"602 0 LINE",
"843 0 LINE",
"843 435 LINE",
"1131 0 LINE",
"1415 0 LINE",
"1415 242 LINE",
"1254 242 LINE"
);
},
{
closed = 1;
nodes = (
"722 655 LINE",
"634 774 LINE",
"810 774 LINE"
);
}
);
width = 1445;
}
);
leftKerningGroup = m;
note = uni046B;
rightKerningGroup = x;
unicode = 046B;
},
{
glyphname = "izhitsa-cy";
lastChange = "2018-09-25 02:48:39 +0000";
layers = (
{
layerId = "6992DDD3-6ECA-4BF7-B654-AC36925D8FF8";
paths = (
{
closed = 1;
nodes = (
"424 755 LINE",
"530 755 LINE",
"272 365 LINE",
"272 995 LINE",
"30 995 LINE",
"30 1 LINE",
"31 1 LINE",
"30 0 LINE",
"314 1 LINE",
"813 755 LINE",
"813 996 LINE",
"738 996 LINE",
"424 996 LINE"
);
}
);
width = 843;
}
);
leftKerningGroup = m;
note = uni0475;
rightKerningGroup = r;
unicode = 0475;
},
{
glyphname = "ghestroke-cy";
lastChange = "2018-09-25 02:48:39 +0000";
layers = (
{
layerId = "6992DDD3-6ECA-4BF7-B654-AC36925D8FF8";
paths = (
{
closed = 1;
nodes = (
"30 755 LINE",
"103 755 LINE",
"103 683 LINE",
"30 683 LINE",
"30 441 LINE",
"39 441 LINE",
"103 441 LINE",
"103 0 LINE",
"344 0 LINE",
"344 441 LINE",
"419 441 LINE",
"419 683 LINE",
"344 683 LINE",
"344 755 LINE",
"610 755 LINE",
"610 663 LINE",
"849 663 LINE",
"849 994 LINE",
"30 994 LINE"
);
}
);
width = 879;
}
);
leftKerningGroup = i;
note = uni0493;
rightKerningGroup = r;
unicode = 0493;
},
{
glyphname = "ghemiddlehook-cy";
lastChange = "2018-09-25 02:48:39 +0000";
layers = (
{
layerId = "6992DDD3-6ECA-4BF7-B654-AC36925D8FF8";
paths = (
{
closed = 1;
nodes = (
"345 755 LINE",
"611 755 LINE",
"611 663 LINE",
"850 663 LINE",
"850 994 LINE",
"31 994 LINE",
"31 755 LINE",
"104 755 LINE",
"104 553 LINE",
"103 553 LINE",
"30 553 LINE",
"30 312 LINE",
"103 312 LINE",
"104 312 LINE",
"104 0 LINE",
"345 0 LINE",
"345 312 LINE",
"498 312 OFFCURVE",
"670 282 OFFCURVE",
"670 113 CURVE",
"670 82 OFFCURVE",
"651 42 OFFCURVE",
"615 42 CURVE",
"595 42 OFFCURVE",
"582 51 OFFCURVE",
"574 59 CURVE",
"571 62 OFFCURVE",
"567 67 OFFCURVE",
"564 72 CURVE",
"501 -173 LINE",
"536 -188 OFFCURVE",
"574 -196 OFFCURVE",
"615 -196 CURVE",
"793 -196 OFFCURVE",
"913 -43 OFFCURVE",
"913 120 CURVE",
"913 126 LINE",
"913 518 OFFCURVE",
"493 553 OFFCURVE",
"345 553 CURVE"
);
}
);
width = 943;
}
);
leftKerningGroup = e;
note = uni0495;
rightKerningGroup = soft;
unicode = 0495;
},
{
glyphname = "zhedescender-cy";
lastChange = "2018-09-25 02:48:39 +0000";
layers = (
{
layerId = "6992DDD3-6ECA-4BF7-B654-AC36925D8FF8";
paths = (
{
closed = 1;
nodes = (
"1086 496 LINE",
"1126 516 OFFCURVE",
"1163 542 OFFCURVE",
"1195 572 CURVE",
"1240 612 OFFCURVE",
"1275 660 OFFCURVE",
"1301 714 CURVE",
"1328 769 OFFCURVE",
"1341 827 OFFCURVE",
"1341 890 CURVE",
"1341 995 LINE",
"1100 995 LINE",
"1100 921 LINE",
"1100 888 OFFCURVE",
"1094 857 OFFCURVE",
"1080 828 CURVE",
"1068 799 OFFCURVE",
"1051 774 OFFCURVE",
"1030 752 CURVE",
"1009 731 OFFCURVE",
"984 714 OFFCURVE",
"954 701 CURVE",
"953 700 OFFCURVE",
"952 700 OFFCURVE",
"951 700 CURVE",
"755 994 LINE",
"689 994 LINE",
"494 699 LINE",
"493 700 OFFCURVE",
"491 700 OFFCURVE",
"490 701 CURVE",
"461 714 OFFCURVE",
"436 731 OFFCURVE",
"415 752 CURVE",
"393 774 OFFCURVE",
"376 799 OFFCURVE",
"364 828 CURVE",
"351 857 OFFCURVE",
"345 888 OFFCURVE",
"345 921 CURVE",
"345 995 LINE",
"30 994 LINE",
"30 753 LINE",
"127 753 LINE",
"132 740 OFFCURVE",
"137 727 OFFCURVE",
"143 714 CURVE",
"169 660 OFFCURVE",
"205 612 OFFCURVE",
"249 572 CURVE",
"281 542 OFFCURVE",
"318 516 OFFCURVE",
"359 496 CURVE",
"30 0 LINE",
"314 0 LINE",
"602 435 LINE",
"602 0 LINE",
"843 0 LINE",
"843 435 LINE",
"1131 0 LINE",
"1174 0 LINE",
"1174 -76 LINE",
"1415 -76 LINE",
"1415 242 LINE",
"1254 242 LINE"
);
}
);
width = 1445;
}
);
leftKerningGroup = x;
note = uni0497;
rightKerningGroup = x;
unicode = 0497;
},
{
glyphname = "zedescender-cy";
lastChange = "2018-09-25 02:48:39 +0000";
layers = (
{
layerId = "6992DDD3-6ECA-4BF7-B654-AC36925D8FF8";
paths = (
{
closed = 1;
nodes = (
"881 994 LINE",
"30 994 LINE",
"30 753 LINE",
"483 753 LINE",
"277 441 LINE",
"634 441 LINE",
"624 387 OFFCURVE",
"597 337 OFFCURVE",
"557 296 CURVE",
"503 243 OFFCURVE",
"432 213 OFFCURVE",
"356 213 CURVE",
"280 213 OFFCURVE",
"209 243 OFFCURVE",
"155 296 CURVE",
"137 315 OFFCURVE",
"122 335 OFFCURVE",
"109 356 CURVE",
"38 80 LINE",
"98 34 OFFCURVE",
"168 0 OFFCURVE",
"245 -16 CURVE",
"245 -76 LINE",
"486 -76 LINE",
"486 -12 LINE",
"713 46 OFFCURVE",
"881 252 OFFCURVE",
"881 497 CURVE",
"881 683 LINE",
"720 683 LINE",
"766 753 LINE",
"881 753 LINE"
);
}
);
width = 911;
}
);
leftKerningGroup = ze;
note = uni0499;
rightKerningGroup = s;
unicode = 0499;
},
{
glyphname = "kadescender-cy";
lastChange = "2018-09-25 02:48:39 +0000";
layers = (
{
layerId = "6992DDD3-6ECA-4BF7-B654-AC36925D8FF8";
paths = (
{
closed = 1;
nodes = (
"780 612 OFFCURVE",
"815 660 OFFCURVE",
"842 714 CURVE",
"867 767 OFFCURVE",
"880 824 OFFCURVE",
"881 884 CURVE",
"881 994 LINE",
"640 994 LINE",
"640 912 LINE",
"639 882 OFFCURVE",
"633 855 OFFCURVE",
"621 828 CURVE",
"609 799 OFFCURVE",
"592 774 OFFCURVE",
"570 753 CURVE",
"549 731 OFFCURVE",
"524 714 OFFCURVE",
"495 701 CURVE",
"465 689 OFFCURVE",
"435 683 OFFCURVE",
"402 683 CURVE",
"271 683 LINE",
"271 994 LINE",
"30 994 LINE",
"30 0 LINE",
"271 0 LINE",
"271 442 LINE",
"305 442 LINE",
"597 0 LINE",
"640 0 LINE",
"640 -77 LINE",
"881 -77 LINE",
"881 241 LINE",
"721 241 LINE",
"569 471 LINE",
"574 472 OFFCURVE",
"578 474 OFFCURVE",
"583 476 CURVE",
"641 499 OFFCURVE",
"692 532 OFFCURVE",
"736 572 CURVE"
);
}
);
width = 911;
}
);
leftKerningGroup = m;
note = uni049B;
rightKerningGroup = x;
unicode = 049B;
},
{
glyphname = "kaverticalstroke-cy";
lastChange = "2018-09-25 02:48:39 +0000";
layers = (
{
layerId = "6992DDD3-6ECA-4BF7-B654-AC36925D8FF8";
paths = (
{
closed = 1;
nodes = (
"780 612 OFFCURVE",
"815 660 OFFCURVE",
"842 714 CURVE",
"867 767 OFFCURVE",
"880 824 OFFCURVE",
"881 884 CURVE",
"881 994 LINE",
"640 994 LINE",
"640 912 LINE",
"639 882 OFFCURVE",
"633 855 OFFCURVE",
"621 828 CURVE",
"609 799 OFFCURVE",
"592 774 OFFCURVE",
"570 753 CURVE",
"563 745 OFFCURVE",
"555 738 OFFCURVE",
"546 731 CURVE",
"546 815 LINE",
"305 815 LINE",
"305 683 LINE",
"295 683 OFFCURVE",
"284 683 OFFCURVE",
"271 683 CURVE",
"271 994 LINE",
"30 994 LINE",
"30 0 LINE",
"271 0 LINE",
"271 442 LINE",
"305 442 LINE",
"597 0 LINE",
"881 0 LINE",
"569 471 LINE",
"574 472 OFFCURVE",
"578 474 OFFCURVE",
"583 476 CURVE",
"641 499 OFFCURVE",
"692 532 OFFCURVE",
"736 572 CURVE"
);
}
);
width = 911;
}
);
leftKerningGroup = m;
note = uni049D;
rightKerningGroup = x;
unicode = 049D;
},
{
glyphname = "kabashkir-cy";
lastChange = "2018-09-25 02:48:39 +0000";
layers = (
{
layerId = "6992DDD3-6ECA-4BF7-B654-AC36925D8FF8";
paths = (
{
closed = 1;
nodes = (
"927 612 OFFCURVE",
"962 660 OFFCURVE",
"989 714 CURVE",
"1014 767 OFFCURVE",
"1027 824 OFFCURVE",
"1028 884 CURVE",
"1028 994 LINE",
"787 994 LINE",
"787 912 LINE",
"786 882 OFFCURVE",
"780 855 OFFCURVE",
"768 828 CURVE",
"756 799 OFFCURVE",
"739 774 OFFCURVE",
"717 753 CURVE",
"696 731 OFFCURVE",
"671 714 OFFCURVE",
"642 701 CURVE",
"589 680 OFFCURVE",
"574 683 OFFCURVE",
"418 683 CURVE",
"418 994 LINE",
"30 994 LINE",
"30 752 LINE",
"177 752 LINE",
"177 0 LINE",
"418 0 LINE",
"418 442 LINE",
"452 442 LINE",
"744 0 LINE",
"1028 0 LINE",
"716 471 LINE",
"721 472 OFFCURVE",
"725 474 OFFCURVE",
"730 476 CURVE",
"788 499 OFFCURVE",
"839 532 OFFCURVE",
"883 572 CURVE"
);
}
);
width = 1058;
}
);
leftKerningGroup = e;
note = uni04A1;
rightKerningGroup = x;
unicode = 04A1;
},
{
glyphname = "endescender-cy";
lastChange = "2018-09-25 02:48:39 +0000";
layers = (
{
layerId = "6992DDD3-6ECA-4BF7-B654-AC36925D8FF8";
paths = (
{
closed = 1;
nodes = (
"955 683 LINE",
"880 683 LINE",
"880 995 LINE",
"639 995 LINE",
"639 683 LINE",
"509 683 LINE",
"445 683 OFFCURVE",
"385 672 OFFCURVE",
"327 649 CURVE",
"308 641 OFFCURVE",
"289 632 OFFCURVE",
"271 622 CURVE",
"271 995 LINE",
"30 995 LINE",
"30 0 LINE",
"271 0 LINE",
"271 213 LINE",
"272 243 OFFCURVE",
"278 270 OFFCURVE",
"290 297 CURVE",
"302 326 OFFCURVE",
"319 351 OFFCURVE",
"340 372 CURVE",
"362 393 OFFCURVE",
"387 411 OFFCURVE",
"416 424 CURVE",
"445 436 OFFCURVE",
"476 442 OFFCURVE",
"509 442 CURVE",
"639 442 LINE",
"639 0 LINE",
"714 0 LINE",
"714 -76 LINE",
"955 -76 LINE",
"955 242 LINE",
"880 242 LINE",
"880 442 LINE",
"955 442 LINE"
);
}
);
width = 985;
}
);
leftKerningGroup = m;
note = uni04A3;
rightKerningGroup = h;
unicode = 04A3;
},
